%TF.GenerationSoftware,KiCad,Pcbnew,10.0.5*%
%TF.CreationDate,2026-08-03T15:54:05-04:00*%
%TF.ProjectId,ADC,4144432e-6b69-4636-9164-5f7063625858,rev?*%
%TF.SameCoordinates,Original*%
%TF.FileFunction,Legend,Top*%
%TF.FilePolarity,Positive*%
%FSLAX46Y46*%
G04 Gerber Fmt 4.6, Leading zero omitted, Abs format (unit mm)*
G04 Created by KiCad (PCBNEW 10.0.5) date 2026-08-03 15:54:05*
%MOMM*%
%LPD*%
G01*
G04 APERTURE LIST*
%ADD10C,0.100000*%
%ADD11C,0.175000*%
%ADD12C,0.150000*%
%ADD13C,0.300000*%
%ADD14C,0.120000*%
%ADD15C,0.152400*%
%ADD16C,0.000000*%
%ADD17C,0.200000*%
G04 APERTURE END LIST*
D10*
X143500000Y-38630000D02*
X145280000Y-38630000D01*
X145280000Y-41430000D01*
X143500000Y-41430000D01*
X143500000Y-38630000D01*
X143500000Y-41430000D02*
X145280000Y-41430000D01*
X145280000Y-44230000D01*
X143500000Y-44230000D01*
X143500000Y-41430000D01*
X145330000Y-39550000D02*
X148130000Y-39550000D01*
X148130000Y-41330000D01*
X145330000Y-41330000D01*
X145330000Y-39550000D01*
X145330000Y-41330000D02*
X148130000Y-41330000D01*
X148130000Y-43110000D01*
X145330000Y-43110000D01*
X145330000Y-41330000D01*
X147210000Y-43210000D02*
X150010000Y-43210000D01*
X150010000Y-44990000D01*
X147210000Y-44990000D01*
X147210000Y-43210000D01*
X147210000Y-44990000D02*
X151040000Y-52540000D01*
X147280000Y-37770000D02*
X150080000Y-37770000D01*
X150080000Y-39550000D01*
X147280000Y-39550000D01*
X147280000Y-37770000D01*
X148240000Y-39620000D02*
X150020000Y-39620000D01*
X150020000Y-43190000D01*
X148240000Y-43190000D01*
X148240000Y-39620000D01*
X150090000Y-68230000D02*
X149700000Y-68230000D01*
X150370000Y-66770000D02*
X149780000Y-66770000D01*
X150980000Y-65050000D02*
X149810000Y-65050000D01*
X151770000Y-66770000D02*
X150370000Y-66770000D01*
X152810000Y-63220000D02*
X150980000Y-65050000D01*
X152870000Y-68230000D02*
X150090000Y-68230000D01*
X155340000Y-63200000D02*
X151770000Y-66770000D01*
X157880000Y-63220000D02*
X152870000Y-68230000D01*
X186560000Y-74340000D02*
X171310000Y-70810000D01*
X187450000Y-74410000D02*
X189230000Y-74410000D01*
X189230000Y-77210000D01*
X187450000Y-77210000D01*
X187450000Y-74410000D01*
X189230000Y-71610000D02*
X191010000Y-71610000D01*
X191010000Y-74410000D01*
X189230000Y-74410000D01*
X189230000Y-71610000D01*
X189230000Y-74410000D02*
X191010000Y-74410000D01*
X191010000Y-77210000D01*
X189230000Y-77210000D01*
X189230000Y-74410000D01*
X191010000Y-73200000D02*
X193810000Y-73200000D01*
X193810000Y-74980000D01*
X191010000Y-74980000D01*
X191010000Y-73200000D01*
X191010000Y-74980000D02*
X193810000Y-74980000D01*
X193810000Y-76760000D01*
X191010000Y-76760000D01*
X191010000Y-74980000D01*
X192180000Y-76760000D02*
X193810000Y-76760000D01*
X193810000Y-79460000D01*
X192180000Y-79460000D01*
X192180000Y-76760000D01*
X192000000Y-70400000D02*
X193780000Y-70400000D01*
X193780000Y-73200000D01*
X192000000Y-73200000D01*
X192000000Y-70400000D01*
X193780000Y-71350000D02*
X198870000Y-71350000D01*
X198870000Y-77990000D01*
X193780000Y-77990000D01*
X193780000Y-71350000D01*
X194845000Y-69560000D02*
X197645000Y-69560000D01*
X197645000Y-71340000D01*
X194845000Y-71340000D01*
X194845000Y-69560000D01*
X197645000Y-68550000D02*
X199425000Y-68550000D01*
X199425000Y-71350000D01*
X197645000Y-71350000D01*
X197645000Y-68550000D01*
X198870000Y-76810000D02*
X200650000Y-76810000D01*
X200650000Y-79610000D01*
X198870000Y-79610000D01*
X198870000Y-76810000D01*
X198970000Y-73200000D02*
X201770000Y-73200000D01*
X201770000Y-74980000D01*
X198970000Y-74980000D01*
X198970000Y-73200000D01*
X198970000Y-74980000D02*
X201770000Y-74980000D01*
X201770000Y-76760000D01*
X198970000Y-76760000D01*
X198970000Y-74980000D01*
X199650000Y-70370000D02*
X201430000Y-70370000D01*
X201430000Y-73170000D01*
X199650000Y-73170000D01*
X199650000Y-70370000D01*
X201430000Y-70370000D02*
X203210000Y-70370000D01*
X203210000Y-73170000D01*
X201430000Y-73170000D01*
X201430000Y-70370000D01*
X201770000Y-73580000D02*
X203550000Y-73580000D01*
X203550000Y-76380000D01*
X201770000Y-76380000D01*
X201770000Y-73580000D01*
X203210000Y-70370000D02*
X204990000Y-70370000D01*
X204990000Y-73170000D01*
X203210000Y-73170000D01*
X203210000Y-70370000D01*
D11*
X205126874Y-62113526D02*
X205093541Y-62180193D01*
X205093541Y-62180193D02*
X205093541Y-62280193D01*
X205093541Y-62280193D02*
X205126874Y-62380193D01*
X205126874Y-62380193D02*
X205193541Y-62446860D01*
X205193541Y-62446860D02*
X205260208Y-62480193D01*
X205260208Y-62480193D02*
X205393541Y-62513526D01*
X205393541Y-62513526D02*
X205493541Y-62513526D01*
X205493541Y-62513526D02*
X205626874Y-62480193D01*
X205626874Y-62480193D02*
X205693541Y-62446860D01*
X205693541Y-62446860D02*
X205760208Y-62380193D01*
X205760208Y-62380193D02*
X205793541Y-62280193D01*
X205793541Y-62280193D02*
X205793541Y-62213526D01*
X205793541Y-62213526D02*
X205760208Y-62113526D01*
X205760208Y-62113526D02*
X205726874Y-62080193D01*
X205726874Y-62080193D02*
X205493541Y-62080193D01*
X205493541Y-62080193D02*
X205493541Y-62213526D01*
X205793541Y-61780193D02*
X205093541Y-61780193D01*
X205093541Y-61780193D02*
X205793541Y-61380193D01*
X205793541Y-61380193D02*
X205093541Y-61380193D01*
X205793541Y-61046860D02*
X205093541Y-61046860D01*
X205093541Y-61046860D02*
X205093541Y-60880193D01*
X205093541Y-60880193D02*
X205126874Y-60780193D01*
X205126874Y-60780193D02*
X205193541Y-60713527D01*
X205193541Y-60713527D02*
X205260208Y-60680193D01*
X205260208Y-60680193D02*
X205393541Y-60646860D01*
X205393541Y-60646860D02*
X205493541Y-60646860D01*
X205493541Y-60646860D02*
X205626874Y-60680193D01*
X205626874Y-60680193D02*
X205693541Y-60713527D01*
X205693541Y-60713527D02*
X205760208Y-60780193D01*
X205760208Y-60780193D02*
X205793541Y-60880193D01*
X205793541Y-60880193D02*
X205793541Y-61046860D01*
X205726874Y-59413527D02*
X205760208Y-59446860D01*
X205760208Y-59446860D02*
X205793541Y-59546860D01*
X205793541Y-59546860D02*
X205793541Y-59613527D01*
X205793541Y-59613527D02*
X205760208Y-59713527D01*
X205760208Y-59713527D02*
X205693541Y-59780194D01*
X205693541Y-59780194D02*
X205626874Y-59813527D01*
X205626874Y-59813527D02*
X205493541Y-59846860D01*
X205493541Y-59846860D02*
X205393541Y-59846860D01*
X205393541Y-59846860D02*
X205260208Y-59813527D01*
X205260208Y-59813527D02*
X205193541Y-59780194D01*
X205193541Y-59780194D02*
X205126874Y-59713527D01*
X205126874Y-59713527D02*
X205093541Y-59613527D01*
X205093541Y-59613527D02*
X205093541Y-59546860D01*
X205093541Y-59546860D02*
X205126874Y-59446860D01*
X205126874Y-59446860D02*
X205160208Y-59413527D01*
X205793541Y-59113527D02*
X205093541Y-59113527D01*
X205093541Y-59113527D02*
X205793541Y-58713527D01*
X205793541Y-58713527D02*
X205093541Y-58713527D01*
X205093541Y-58480194D02*
X205793541Y-58246861D01*
X205793541Y-58246861D02*
X205093541Y-58013527D01*
X205760208Y-57280194D02*
X205793541Y-57180194D01*
X205793541Y-57180194D02*
X205793541Y-57013528D01*
X205793541Y-57013528D02*
X205760208Y-56946861D01*
X205760208Y-56946861D02*
X205726874Y-56913528D01*
X205726874Y-56913528D02*
X205660208Y-56880194D01*
X205660208Y-56880194D02*
X205593541Y-56880194D01*
X205593541Y-56880194D02*
X205526874Y-56913528D01*
X205526874Y-56913528D02*
X205493541Y-56946861D01*
X205493541Y-56946861D02*
X205460208Y-57013528D01*
X205460208Y-57013528D02*
X205426874Y-57146861D01*
X205426874Y-57146861D02*
X205393541Y-57213528D01*
X205393541Y-57213528D02*
X205360208Y-57246861D01*
X205360208Y-57246861D02*
X205293541Y-57280194D01*
X205293541Y-57280194D02*
X205226874Y-57280194D01*
X205226874Y-57280194D02*
X205160208Y-57246861D01*
X205160208Y-57246861D02*
X205126874Y-57213528D01*
X205126874Y-57213528D02*
X205093541Y-57146861D01*
X205093541Y-57146861D02*
X205093541Y-56980194D01*
X205093541Y-56980194D02*
X205126874Y-56880194D01*
X205793541Y-56580194D02*
X205093541Y-56580194D01*
X205093541Y-56580194D02*
X205093541Y-56413527D01*
X205093541Y-56413527D02*
X205126874Y-56313527D01*
X205126874Y-56313527D02*
X205193541Y-56246861D01*
X205193541Y-56246861D02*
X205260208Y-56213527D01*
X205260208Y-56213527D02*
X205393541Y-56180194D01*
X205393541Y-56180194D02*
X205493541Y-56180194D01*
X205493541Y-56180194D02*
X205626874Y-56213527D01*
X205626874Y-56213527D02*
X205693541Y-56246861D01*
X205693541Y-56246861D02*
X205760208Y-56313527D01*
X205760208Y-56313527D02*
X205793541Y-56413527D01*
X205793541Y-56413527D02*
X205793541Y-56580194D01*
X205093541Y-55746861D02*
X205093541Y-55613527D01*
X205093541Y-55613527D02*
X205126874Y-55546861D01*
X205126874Y-55546861D02*
X205193541Y-55480194D01*
X205193541Y-55480194D02*
X205326874Y-55446861D01*
X205326874Y-55446861D02*
X205560208Y-55446861D01*
X205560208Y-55446861D02*
X205693541Y-55480194D01*
X205693541Y-55480194D02*
X205760208Y-55546861D01*
X205760208Y-55546861D02*
X205793541Y-55613527D01*
X205793541Y-55613527D02*
X205793541Y-55746861D01*
X205793541Y-55746861D02*
X205760208Y-55813527D01*
X205760208Y-55813527D02*
X205693541Y-55880194D01*
X205693541Y-55880194D02*
X205560208Y-55913527D01*
X205560208Y-55913527D02*
X205326874Y-55913527D01*
X205326874Y-55913527D02*
X205193541Y-55880194D01*
X205193541Y-55880194D02*
X205126874Y-55813527D01*
X205126874Y-55813527D02*
X205093541Y-55746861D01*
X205760208Y-54646861D02*
X205793541Y-54546861D01*
X205793541Y-54546861D02*
X205793541Y-54380195D01*
X205793541Y-54380195D02*
X205760208Y-54313528D01*
X205760208Y-54313528D02*
X205726874Y-54280195D01*
X205726874Y-54280195D02*
X205660208Y-54246861D01*
X205660208Y-54246861D02*
X205593541Y-54246861D01*
X205593541Y-54246861D02*
X205526874Y-54280195D01*
X205526874Y-54280195D02*
X205493541Y-54313528D01*
X205493541Y-54313528D02*
X205460208Y-54380195D01*
X205460208Y-54380195D02*
X205426874Y-54513528D01*
X205426874Y-54513528D02*
X205393541Y-54580195D01*
X205393541Y-54580195D02*
X205360208Y-54613528D01*
X205360208Y-54613528D02*
X205293541Y-54646861D01*
X205293541Y-54646861D02*
X205226874Y-54646861D01*
X205226874Y-54646861D02*
X205160208Y-54613528D01*
X205160208Y-54613528D02*
X205126874Y-54580195D01*
X205126874Y-54580195D02*
X205093541Y-54513528D01*
X205093541Y-54513528D02*
X205093541Y-54346861D01*
X205093541Y-54346861D02*
X205126874Y-54246861D01*
X205726874Y-53546861D02*
X205760208Y-53580194D01*
X205760208Y-53580194D02*
X205793541Y-53680194D01*
X205793541Y-53680194D02*
X205793541Y-53746861D01*
X205793541Y-53746861D02*
X205760208Y-53846861D01*
X205760208Y-53846861D02*
X205693541Y-53913528D01*
X205693541Y-53913528D02*
X205626874Y-53946861D01*
X205626874Y-53946861D02*
X205493541Y-53980194D01*
X205493541Y-53980194D02*
X205393541Y-53980194D01*
X205393541Y-53980194D02*
X205260208Y-53946861D01*
X205260208Y-53946861D02*
X205193541Y-53913528D01*
X205193541Y-53913528D02*
X205126874Y-53846861D01*
X205126874Y-53846861D02*
X205093541Y-53746861D01*
X205093541Y-53746861D02*
X205093541Y-53680194D01*
X205093541Y-53680194D02*
X205126874Y-53580194D01*
X205126874Y-53580194D02*
X205160208Y-53546861D01*
X205793541Y-53246861D02*
X205093541Y-53246861D01*
X205793541Y-52846861D02*
X205393541Y-53146861D01*
X205093541Y-52846861D02*
X205493541Y-53246861D01*
X205760208Y-52046861D02*
X205793541Y-51946861D01*
X205793541Y-51946861D02*
X205793541Y-51780195D01*
X205793541Y-51780195D02*
X205760208Y-51713528D01*
X205760208Y-51713528D02*
X205726874Y-51680195D01*
X205726874Y-51680195D02*
X205660208Y-51646861D01*
X205660208Y-51646861D02*
X205593541Y-51646861D01*
X205593541Y-51646861D02*
X205526874Y-51680195D01*
X205526874Y-51680195D02*
X205493541Y-51713528D01*
X205493541Y-51713528D02*
X205460208Y-51780195D01*
X205460208Y-51780195D02*
X205426874Y-51913528D01*
X205426874Y-51913528D02*
X205393541Y-51980195D01*
X205393541Y-51980195D02*
X205360208Y-52013528D01*
X205360208Y-52013528D02*
X205293541Y-52046861D01*
X205293541Y-52046861D02*
X205226874Y-52046861D01*
X205226874Y-52046861D02*
X205160208Y-52013528D01*
X205160208Y-52013528D02*
X205126874Y-51980195D01*
X205126874Y-51980195D02*
X205093541Y-51913528D01*
X205093541Y-51913528D02*
X205093541Y-51746861D01*
X205093541Y-51746861D02*
X205126874Y-51646861D01*
X205793541Y-51346861D02*
X205093541Y-51346861D01*
X205093541Y-51346861D02*
X205093541Y-51180194D01*
X205093541Y-51180194D02*
X205126874Y-51080194D01*
X205126874Y-51080194D02*
X205193541Y-51013528D01*
X205193541Y-51013528D02*
X205260208Y-50980194D01*
X205260208Y-50980194D02*
X205393541Y-50946861D01*
X205393541Y-50946861D02*
X205493541Y-50946861D01*
X205493541Y-50946861D02*
X205626874Y-50980194D01*
X205626874Y-50980194D02*
X205693541Y-51013528D01*
X205693541Y-51013528D02*
X205760208Y-51080194D01*
X205760208Y-51080194D02*
X205793541Y-51180194D01*
X205793541Y-51180194D02*
X205793541Y-51346861D01*
X205793541Y-50646861D02*
X205093541Y-50646861D01*
X205185233Y-44248202D02*
X205885233Y-44014869D01*
X205885233Y-44014869D02*
X205185233Y-43781535D01*
X205818566Y-43148202D02*
X205851900Y-43181535D01*
X205851900Y-43181535D02*
X205885233Y-43281535D01*
X205885233Y-43281535D02*
X205885233Y-43348202D01*
X205885233Y-43348202D02*
X205851900Y-43448202D01*
X205851900Y-43448202D02*
X205785233Y-43514869D01*
X205785233Y-43514869D02*
X205718566Y-43548202D01*
X205718566Y-43548202D02*
X205585233Y-43581535D01*
X205585233Y-43581535D02*
X205485233Y-43581535D01*
X205485233Y-43581535D02*
X205351900Y-43548202D01*
X205351900Y-43548202D02*
X205285233Y-43514869D01*
X205285233Y-43514869D02*
X205218566Y-43448202D01*
X205218566Y-43448202D02*
X205185233Y-43348202D01*
X205185233Y-43348202D02*
X205185233Y-43281535D01*
X205185233Y-43281535D02*
X205218566Y-43181535D01*
X205218566Y-43181535D02*
X205251900Y-43148202D01*
X205818566Y-42448202D02*
X205851900Y-42481535D01*
X205851900Y-42481535D02*
X205885233Y-42581535D01*
X205885233Y-42581535D02*
X205885233Y-42648202D01*
X205885233Y-42648202D02*
X205851900Y-42748202D01*
X205851900Y-42748202D02*
X205785233Y-42814869D01*
X205785233Y-42814869D02*
X205718566Y-42848202D01*
X205718566Y-42848202D02*
X205585233Y-42881535D01*
X205585233Y-42881535D02*
X205485233Y-42881535D01*
X205485233Y-42881535D02*
X205351900Y-42848202D01*
X205351900Y-42848202D02*
X205285233Y-42814869D01*
X205285233Y-42814869D02*
X205218566Y-42748202D01*
X205218566Y-42748202D02*
X205185233Y-42648202D01*
X205185233Y-42648202D02*
X205185233Y-42581535D01*
X205185233Y-42581535D02*
X205218566Y-42481535D01*
X205218566Y-42481535D02*
X205251900Y-42448202D01*
X205185233Y-41714869D02*
X205885233Y-41481536D01*
X205885233Y-41481536D02*
X205185233Y-41248202D01*
X205885233Y-41014869D02*
X205185233Y-41014869D01*
X205185233Y-40548203D02*
X205185233Y-40414869D01*
X205185233Y-40414869D02*
X205218566Y-40348203D01*
X205218566Y-40348203D02*
X205285233Y-40281536D01*
X205285233Y-40281536D02*
X205418566Y-40248203D01*
X205418566Y-40248203D02*
X205651900Y-40248203D01*
X205651900Y-40248203D02*
X205785233Y-40281536D01*
X205785233Y-40281536D02*
X205851900Y-40348203D01*
X205851900Y-40348203D02*
X205885233Y-40414869D01*
X205885233Y-40414869D02*
X205885233Y-40548203D01*
X205885233Y-40548203D02*
X205851900Y-40614869D01*
X205851900Y-40614869D02*
X205785233Y-40681536D01*
X205785233Y-40681536D02*
X205651900Y-40714869D01*
X205651900Y-40714869D02*
X205418566Y-40714869D01*
X205418566Y-40714869D02*
X205285233Y-40681536D01*
X205285233Y-40681536D02*
X205218566Y-40614869D01*
X205218566Y-40614869D02*
X205185233Y-40548203D01*
X205185233Y-39481537D02*
X205185233Y-39048203D01*
X205185233Y-39048203D02*
X205451900Y-39281537D01*
X205451900Y-39281537D02*
X205451900Y-39181537D01*
X205451900Y-39181537D02*
X205485233Y-39114870D01*
X205485233Y-39114870D02*
X205518566Y-39081537D01*
X205518566Y-39081537D02*
X205585233Y-39048203D01*
X205585233Y-39048203D02*
X205751900Y-39048203D01*
X205751900Y-39048203D02*
X205818566Y-39081537D01*
X205818566Y-39081537D02*
X205851900Y-39114870D01*
X205851900Y-39114870D02*
X205885233Y-39181537D01*
X205885233Y-39181537D02*
X205885233Y-39381537D01*
X205885233Y-39381537D02*
X205851900Y-39448203D01*
X205851900Y-39448203D02*
X205818566Y-39481537D01*
X205185233Y-38848203D02*
X205885233Y-38614870D01*
X205885233Y-38614870D02*
X205185233Y-38381536D01*
X205185233Y-38214870D02*
X205185233Y-37781536D01*
X205185233Y-37781536D02*
X205451900Y-38014870D01*
X205451900Y-38014870D02*
X205451900Y-37914870D01*
X205451900Y-37914870D02*
X205485233Y-37848203D01*
X205485233Y-37848203D02*
X205518566Y-37814870D01*
X205518566Y-37814870D02*
X205585233Y-37781536D01*
X205585233Y-37781536D02*
X205751900Y-37781536D01*
X205751900Y-37781536D02*
X205818566Y-37814870D01*
X205818566Y-37814870D02*
X205851900Y-37848203D01*
X205851900Y-37848203D02*
X205885233Y-37914870D01*
X205885233Y-37914870D02*
X205885233Y-38114870D01*
X205885233Y-38114870D02*
X205851900Y-38181536D01*
X205851900Y-38181536D02*
X205818566Y-38214870D01*
D10*
X148076265Y-65166760D02*
X148552455Y-65166760D01*
X147981027Y-65452475D02*
X148314360Y-64452475D01*
X148314360Y-64452475D02*
X148647693Y-65452475D01*
X148933408Y-64547713D02*
X148981027Y-64500094D01*
X148981027Y-64500094D02*
X149076265Y-64452475D01*
X149076265Y-64452475D02*
X149314360Y-64452475D01*
X149314360Y-64452475D02*
X149409598Y-64500094D01*
X149409598Y-64500094D02*
X149457217Y-64547713D01*
X149457217Y-64547713D02*
X149504836Y-64642951D01*
X149504836Y-64642951D02*
X149504836Y-64738189D01*
X149504836Y-64738189D02*
X149457217Y-64881046D01*
X149457217Y-64881046D02*
X148885789Y-65452475D01*
X148885789Y-65452475D02*
X149504836Y-65452475D01*
X148096265Y-68396704D02*
X148572455Y-68396704D01*
X148001027Y-68682419D02*
X148334360Y-67682419D01*
X148334360Y-67682419D02*
X148667693Y-68682419D01*
X149191503Y-67682419D02*
X149286741Y-67682419D01*
X149286741Y-67682419D02*
X149381979Y-67730038D01*
X149381979Y-67730038D02*
X149429598Y-67777657D01*
X149429598Y-67777657D02*
X149477217Y-67872895D01*
X149477217Y-67872895D02*
X149524836Y-68063371D01*
X149524836Y-68063371D02*
X149524836Y-68301466D01*
X149524836Y-68301466D02*
X149477217Y-68491942D01*
X149477217Y-68491942D02*
X149429598Y-68587180D01*
X149429598Y-68587180D02*
X149381979Y-68634800D01*
X149381979Y-68634800D02*
X149286741Y-68682419D01*
X149286741Y-68682419D02*
X149191503Y-68682419D01*
X149191503Y-68682419D02*
X149096265Y-68634800D01*
X149096265Y-68634800D02*
X149048646Y-68587180D01*
X149048646Y-68587180D02*
X149001027Y-68491942D01*
X149001027Y-68491942D02*
X148953408Y-68301466D01*
X148953408Y-68301466D02*
X148953408Y-68063371D01*
X148953408Y-68063371D02*
X149001027Y-67872895D01*
X149001027Y-67872895D02*
X149048646Y-67777657D01*
X149048646Y-67777657D02*
X149096265Y-67730038D01*
X149096265Y-67730038D02*
X149191503Y-67682419D01*
X148156265Y-66926704D02*
X148632455Y-66926704D01*
X148061027Y-67212419D02*
X148394360Y-66212419D01*
X148394360Y-66212419D02*
X148727693Y-67212419D01*
X149584836Y-67212419D02*
X149013408Y-67212419D01*
X149299122Y-67212419D02*
X149299122Y-66212419D01*
X149299122Y-66212419D02*
X149203884Y-66355276D01*
X149203884Y-66355276D02*
X149108646Y-66450514D01*
X149108646Y-66450514D02*
X149013408Y-66498133D01*
D12*
X146087142Y-40894819D02*
X145753809Y-40418628D01*
X145515714Y-40894819D02*
X145515714Y-39894819D01*
X145515714Y-39894819D02*
X145896666Y-39894819D01*
X145896666Y-39894819D02*
X145991904Y-39942438D01*
X145991904Y-39942438D02*
X146039523Y-39990057D01*
X146039523Y-39990057D02*
X146087142Y-40085295D01*
X146087142Y-40085295D02*
X146087142Y-40228152D01*
X146087142Y-40228152D02*
X146039523Y-40323390D01*
X146039523Y-40323390D02*
X145991904Y-40371009D01*
X145991904Y-40371009D02*
X145896666Y-40418628D01*
X145896666Y-40418628D02*
X145515714Y-40418628D01*
X147039523Y-40894819D02*
X146468095Y-40894819D01*
X146753809Y-40894819D02*
X146753809Y-39894819D01*
X146753809Y-39894819D02*
X146658571Y-40037676D01*
X146658571Y-40037676D02*
X146563333Y-40132914D01*
X146563333Y-40132914D02*
X146468095Y-40180533D01*
X147610952Y-40323390D02*
X147515714Y-40275771D01*
X147515714Y-40275771D02*
X147468095Y-40228152D01*
X147468095Y-40228152D02*
X147420476Y-40132914D01*
X147420476Y-40132914D02*
X147420476Y-40085295D01*
X147420476Y-40085295D02*
X147468095Y-39990057D01*
X147468095Y-39990057D02*
X147515714Y-39942438D01*
X147515714Y-39942438D02*
X147610952Y-39894819D01*
X147610952Y-39894819D02*
X147801428Y-39894819D01*
X147801428Y-39894819D02*
X147896666Y-39942438D01*
X147896666Y-39942438D02*
X147944285Y-39990057D01*
X147944285Y-39990057D02*
X147991904Y-40085295D01*
X147991904Y-40085295D02*
X147991904Y-40132914D01*
X147991904Y-40132914D02*
X147944285Y-40228152D01*
X147944285Y-40228152D02*
X147896666Y-40275771D01*
X147896666Y-40275771D02*
X147801428Y-40323390D01*
X147801428Y-40323390D02*
X147610952Y-40323390D01*
X147610952Y-40323390D02*
X147515714Y-40371009D01*
X147515714Y-40371009D02*
X147468095Y-40418628D01*
X147468095Y-40418628D02*
X147420476Y-40513866D01*
X147420476Y-40513866D02*
X147420476Y-40704342D01*
X147420476Y-40704342D02*
X147468095Y-40799580D01*
X147468095Y-40799580D02*
X147515714Y-40847200D01*
X147515714Y-40847200D02*
X147610952Y-40894819D01*
X147610952Y-40894819D02*
X147801428Y-40894819D01*
X147801428Y-40894819D02*
X147896666Y-40847200D01*
X147896666Y-40847200D02*
X147944285Y-40799580D01*
X147944285Y-40799580D02*
X147991904Y-40704342D01*
X147991904Y-40704342D02*
X147991904Y-40513866D01*
X147991904Y-40513866D02*
X147944285Y-40418628D01*
X147944285Y-40418628D02*
X147896666Y-40371009D01*
X147896666Y-40371009D02*
X147801428Y-40323390D01*
X146087142Y-42759847D02*
X145753809Y-42283656D01*
X145515714Y-42759847D02*
X145515714Y-41759847D01*
X145515714Y-41759847D02*
X145896666Y-41759847D01*
X145896666Y-41759847D02*
X145991904Y-41807466D01*
X145991904Y-41807466D02*
X146039523Y-41855085D01*
X146039523Y-41855085D02*
X146087142Y-41950323D01*
X146087142Y-41950323D02*
X146087142Y-42093180D01*
X146087142Y-42093180D02*
X146039523Y-42188418D01*
X146039523Y-42188418D02*
X145991904Y-42236037D01*
X145991904Y-42236037D02*
X145896666Y-42283656D01*
X145896666Y-42283656D02*
X145515714Y-42283656D01*
X147039523Y-42759847D02*
X146468095Y-42759847D01*
X146753809Y-42759847D02*
X146753809Y-41759847D01*
X146753809Y-41759847D02*
X146658571Y-41902704D01*
X146658571Y-41902704D02*
X146563333Y-41997942D01*
X146563333Y-41997942D02*
X146468095Y-42045561D01*
X147896666Y-41759847D02*
X147706190Y-41759847D01*
X147706190Y-41759847D02*
X147610952Y-41807466D01*
X147610952Y-41807466D02*
X147563333Y-41855085D01*
X147563333Y-41855085D02*
X147468095Y-41997942D01*
X147468095Y-41997942D02*
X147420476Y-42188418D01*
X147420476Y-42188418D02*
X147420476Y-42569370D01*
X147420476Y-42569370D02*
X147468095Y-42664608D01*
X147468095Y-42664608D02*
X147515714Y-42712228D01*
X147515714Y-42712228D02*
X147610952Y-42759847D01*
X147610952Y-42759847D02*
X147801428Y-42759847D01*
X147801428Y-42759847D02*
X147896666Y-42712228D01*
X147896666Y-42712228D02*
X147944285Y-42664608D01*
X147944285Y-42664608D02*
X147991904Y-42569370D01*
X147991904Y-42569370D02*
X147991904Y-42331275D01*
X147991904Y-42331275D02*
X147944285Y-42236037D01*
X147944285Y-42236037D02*
X147896666Y-42188418D01*
X147896666Y-42188418D02*
X147801428Y-42140799D01*
X147801428Y-42140799D02*
X147610952Y-42140799D01*
X147610952Y-42140799D02*
X147515714Y-42188418D01*
X147515714Y-42188418D02*
X147468095Y-42236037D01*
X147468095Y-42236037D02*
X147420476Y-42331275D01*
X147917142Y-39079580D02*
X147869523Y-39127200D01*
X147869523Y-39127200D02*
X147726666Y-39174819D01*
X147726666Y-39174819D02*
X147631428Y-39174819D01*
X147631428Y-39174819D02*
X147488571Y-39127200D01*
X147488571Y-39127200D02*
X147393333Y-39031961D01*
X147393333Y-39031961D02*
X147345714Y-38936723D01*
X147345714Y-38936723D02*
X147298095Y-38746247D01*
X147298095Y-38746247D02*
X147298095Y-38603390D01*
X147298095Y-38603390D02*
X147345714Y-38412914D01*
X147345714Y-38412914D02*
X147393333Y-38317676D01*
X147393333Y-38317676D02*
X147488571Y-38222438D01*
X147488571Y-38222438D02*
X147631428Y-38174819D01*
X147631428Y-38174819D02*
X147726666Y-38174819D01*
X147726666Y-38174819D02*
X147869523Y-38222438D01*
X147869523Y-38222438D02*
X147917142Y-38270057D01*
X148250476Y-38174819D02*
X148869523Y-38174819D01*
X148869523Y-38174819D02*
X148536190Y-38555771D01*
X148536190Y-38555771D02*
X148679047Y-38555771D01*
X148679047Y-38555771D02*
X148774285Y-38603390D01*
X148774285Y-38603390D02*
X148821904Y-38651009D01*
X148821904Y-38651009D02*
X148869523Y-38746247D01*
X148869523Y-38746247D02*
X148869523Y-38984342D01*
X148869523Y-38984342D02*
X148821904Y-39079580D01*
X148821904Y-39079580D02*
X148774285Y-39127200D01*
X148774285Y-39127200D02*
X148679047Y-39174819D01*
X148679047Y-39174819D02*
X148393333Y-39174819D01*
X148393333Y-39174819D02*
X148298095Y-39127200D01*
X148298095Y-39127200D02*
X148250476Y-39079580D01*
X149202857Y-38174819D02*
X149821904Y-38174819D01*
X149821904Y-38174819D02*
X149488571Y-38555771D01*
X149488571Y-38555771D02*
X149631428Y-38555771D01*
X149631428Y-38555771D02*
X149726666Y-38603390D01*
X149726666Y-38603390D02*
X149774285Y-38651009D01*
X149774285Y-38651009D02*
X149821904Y-38746247D01*
X149821904Y-38746247D02*
X149821904Y-38984342D01*
X149821904Y-38984342D02*
X149774285Y-39079580D01*
X149774285Y-39079580D02*
X149726666Y-39127200D01*
X149726666Y-39127200D02*
X149631428Y-39174819D01*
X149631428Y-39174819D02*
X149345714Y-39174819D01*
X149345714Y-39174819D02*
X149250476Y-39127200D01*
X149250476Y-39127200D02*
X149202857Y-39079580D01*
X147967142Y-44459580D02*
X147919523Y-44507200D01*
X147919523Y-44507200D02*
X147776666Y-44554819D01*
X147776666Y-44554819D02*
X147681428Y-44554819D01*
X147681428Y-44554819D02*
X147538571Y-44507200D01*
X147538571Y-44507200D02*
X147443333Y-44411961D01*
X147443333Y-44411961D02*
X147395714Y-44316723D01*
X147395714Y-44316723D02*
X147348095Y-44126247D01*
X147348095Y-44126247D02*
X147348095Y-43983390D01*
X147348095Y-43983390D02*
X147395714Y-43792914D01*
X147395714Y-43792914D02*
X147443333Y-43697676D01*
X147443333Y-43697676D02*
X147538571Y-43602438D01*
X147538571Y-43602438D02*
X147681428Y-43554819D01*
X147681428Y-43554819D02*
X147776666Y-43554819D01*
X147776666Y-43554819D02*
X147919523Y-43602438D01*
X147919523Y-43602438D02*
X147967142Y-43650057D01*
X148824285Y-43888152D02*
X148824285Y-44554819D01*
X148586190Y-43507200D02*
X148348095Y-44221485D01*
X148348095Y-44221485D02*
X148967142Y-44221485D01*
X149776666Y-43554819D02*
X149586190Y-43554819D01*
X149586190Y-43554819D02*
X149490952Y-43602438D01*
X149490952Y-43602438D02*
X149443333Y-43650057D01*
X149443333Y-43650057D02*
X149348095Y-43792914D01*
X149348095Y-43792914D02*
X149300476Y-43983390D01*
X149300476Y-43983390D02*
X149300476Y-44364342D01*
X149300476Y-44364342D02*
X149348095Y-44459580D01*
X149348095Y-44459580D02*
X149395714Y-44507200D01*
X149395714Y-44507200D02*
X149490952Y-44554819D01*
X149490952Y-44554819D02*
X149681428Y-44554819D01*
X149681428Y-44554819D02*
X149776666Y-44507200D01*
X149776666Y-44507200D02*
X149824285Y-44459580D01*
X149824285Y-44459580D02*
X149871904Y-44364342D01*
X149871904Y-44364342D02*
X149871904Y-44126247D01*
X149871904Y-44126247D02*
X149824285Y-44031009D01*
X149824285Y-44031009D02*
X149776666Y-43983390D01*
X149776666Y-43983390D02*
X149681428Y-43935771D01*
X149681428Y-43935771D02*
X149490952Y-43935771D01*
X149490952Y-43935771D02*
X149395714Y-43983390D01*
X149395714Y-43983390D02*
X149348095Y-44031009D01*
X149348095Y-44031009D02*
X149300476Y-44126247D01*
X144844819Y-40672857D02*
X144368628Y-41006190D01*
X144844819Y-41244285D02*
X143844819Y-41244285D01*
X143844819Y-41244285D02*
X143844819Y-40863333D01*
X143844819Y-40863333D02*
X143892438Y-40768095D01*
X143892438Y-40768095D02*
X143940057Y-40720476D01*
X143940057Y-40720476D02*
X144035295Y-40672857D01*
X144035295Y-40672857D02*
X144178152Y-40672857D01*
X144178152Y-40672857D02*
X144273390Y-40720476D01*
X144273390Y-40720476D02*
X144321009Y-40768095D01*
X144321009Y-40768095D02*
X144368628Y-40863333D01*
X144368628Y-40863333D02*
X144368628Y-41244285D01*
X144844819Y-39720476D02*
X144844819Y-40291904D01*
X144844819Y-40006190D02*
X143844819Y-40006190D01*
X143844819Y-40006190D02*
X143987676Y-40101428D01*
X143987676Y-40101428D02*
X144082914Y-40196666D01*
X144082914Y-40196666D02*
X144130533Y-40291904D01*
X143940057Y-39339523D02*
X143892438Y-39291904D01*
X143892438Y-39291904D02*
X143844819Y-39196666D01*
X143844819Y-39196666D02*
X143844819Y-38958571D01*
X143844819Y-38958571D02*
X143892438Y-38863333D01*
X143892438Y-38863333D02*
X143940057Y-38815714D01*
X143940057Y-38815714D02*
X144035295Y-38768095D01*
X144035295Y-38768095D02*
X144130533Y-38768095D01*
X144130533Y-38768095D02*
X144273390Y-38815714D01*
X144273390Y-38815714D02*
X144844819Y-39387142D01*
X144844819Y-39387142D02*
X144844819Y-38768095D01*
X144844819Y-43472857D02*
X144368628Y-43806190D01*
X144844819Y-44044285D02*
X143844819Y-44044285D01*
X143844819Y-44044285D02*
X143844819Y-43663333D01*
X143844819Y-43663333D02*
X143892438Y-43568095D01*
X143892438Y-43568095D02*
X143940057Y-43520476D01*
X143940057Y-43520476D02*
X144035295Y-43472857D01*
X144035295Y-43472857D02*
X144178152Y-43472857D01*
X144178152Y-43472857D02*
X144273390Y-43520476D01*
X144273390Y-43520476D02*
X144321009Y-43568095D01*
X144321009Y-43568095D02*
X144368628Y-43663333D01*
X144368628Y-43663333D02*
X144368628Y-44044285D01*
X144844819Y-42520476D02*
X144844819Y-43091904D01*
X144844819Y-42806190D02*
X143844819Y-42806190D01*
X143844819Y-42806190D02*
X143987676Y-42901428D01*
X143987676Y-42901428D02*
X144082914Y-42996666D01*
X144082914Y-42996666D02*
X144130533Y-43091904D01*
X143844819Y-42187142D02*
X143844819Y-41568095D01*
X143844819Y-41568095D02*
X144225771Y-41901428D01*
X144225771Y-41901428D02*
X144225771Y-41758571D01*
X144225771Y-41758571D02*
X144273390Y-41663333D01*
X144273390Y-41663333D02*
X144321009Y-41615714D01*
X144321009Y-41615714D02*
X144416247Y-41568095D01*
X144416247Y-41568095D02*
X144654342Y-41568095D01*
X144654342Y-41568095D02*
X144749580Y-41615714D01*
X144749580Y-41615714D02*
X144797200Y-41663333D01*
X144797200Y-41663333D02*
X144844819Y-41758571D01*
X144844819Y-41758571D02*
X144844819Y-42044285D01*
X144844819Y-42044285D02*
X144797200Y-42139523D01*
X144797200Y-42139523D02*
X144749580Y-42187142D01*
X149489580Y-42002857D02*
X149537200Y-42050476D01*
X149537200Y-42050476D02*
X149584819Y-42193333D01*
X149584819Y-42193333D02*
X149584819Y-42288571D01*
X149584819Y-42288571D02*
X149537200Y-42431428D01*
X149537200Y-42431428D02*
X149441961Y-42526666D01*
X149441961Y-42526666D02*
X149346723Y-42574285D01*
X149346723Y-42574285D02*
X149156247Y-42621904D01*
X149156247Y-42621904D02*
X149013390Y-42621904D01*
X149013390Y-42621904D02*
X148822914Y-42574285D01*
X148822914Y-42574285D02*
X148727676Y-42526666D01*
X148727676Y-42526666D02*
X148632438Y-42431428D01*
X148632438Y-42431428D02*
X148584819Y-42288571D01*
X148584819Y-42288571D02*
X148584819Y-42193333D01*
X148584819Y-42193333D02*
X148632438Y-42050476D01*
X148632438Y-42050476D02*
X148680057Y-42002857D01*
X148918152Y-41145714D02*
X149584819Y-41145714D01*
X148537200Y-41383809D02*
X149251485Y-41621904D01*
X149251485Y-41621904D02*
X149251485Y-41002857D01*
X148584819Y-40717142D02*
X148584819Y-40050476D01*
X148584819Y-40050476D02*
X149584819Y-40479047D01*
D13*
X166971653Y-47404685D02*
X166857368Y-47347542D01*
X166857368Y-47347542D02*
X166685939Y-47347542D01*
X166685939Y-47347542D02*
X166514510Y-47404685D01*
X166514510Y-47404685D02*
X166400225Y-47518971D01*
X166400225Y-47518971D02*
X166343082Y-47633257D01*
X166343082Y-47633257D02*
X166285939Y-47861828D01*
X166285939Y-47861828D02*
X166285939Y-48033257D01*
X166285939Y-48033257D02*
X166343082Y-48261828D01*
X166343082Y-48261828D02*
X166400225Y-48376114D01*
X166400225Y-48376114D02*
X166514510Y-48490400D01*
X166514510Y-48490400D02*
X166685939Y-48547542D01*
X166685939Y-48547542D02*
X166800225Y-48547542D01*
X166800225Y-48547542D02*
X166971653Y-48490400D01*
X166971653Y-48490400D02*
X167028796Y-48433257D01*
X167028796Y-48433257D02*
X167028796Y-48033257D01*
X167028796Y-48033257D02*
X166800225Y-48033257D01*
X167543082Y-48547542D02*
X167543082Y-47347542D01*
X167543082Y-47347542D02*
X168228796Y-48547542D01*
X168228796Y-48547542D02*
X168228796Y-47347542D01*
X168800225Y-48547542D02*
X168800225Y-47347542D01*
X168800225Y-47347542D02*
X169085939Y-47347542D01*
X169085939Y-47347542D02*
X169257368Y-47404685D01*
X169257368Y-47404685D02*
X169371653Y-47518971D01*
X169371653Y-47518971D02*
X169428796Y-47633257D01*
X169428796Y-47633257D02*
X169485939Y-47861828D01*
X169485939Y-47861828D02*
X169485939Y-48033257D01*
X169485939Y-48033257D02*
X169428796Y-48261828D01*
X169428796Y-48261828D02*
X169371653Y-48376114D01*
X169371653Y-48376114D02*
X169257368Y-48490400D01*
X169257368Y-48490400D02*
X169085939Y-48547542D01*
X169085939Y-48547542D02*
X168800225Y-48547542D01*
X170743082Y-47347542D02*
X171143082Y-48547542D01*
X171143082Y-48547542D02*
X171543082Y-47347542D01*
X172628796Y-48433257D02*
X172571653Y-48490400D01*
X172571653Y-48490400D02*
X172400225Y-48547542D01*
X172400225Y-48547542D02*
X172285939Y-48547542D01*
X172285939Y-48547542D02*
X172114510Y-48490400D01*
X172114510Y-48490400D02*
X172000225Y-48376114D01*
X172000225Y-48376114D02*
X171943082Y-48261828D01*
X171943082Y-48261828D02*
X171885939Y-48033257D01*
X171885939Y-48033257D02*
X171885939Y-47861828D01*
X171885939Y-47861828D02*
X171943082Y-47633257D01*
X171943082Y-47633257D02*
X172000225Y-47518971D01*
X172000225Y-47518971D02*
X172114510Y-47404685D01*
X172114510Y-47404685D02*
X172285939Y-47347542D01*
X172285939Y-47347542D02*
X172400225Y-47347542D01*
X172400225Y-47347542D02*
X172571653Y-47404685D01*
X172571653Y-47404685D02*
X172628796Y-47461828D01*
X173828796Y-48433257D02*
X173771653Y-48490400D01*
X173771653Y-48490400D02*
X173600225Y-48547542D01*
X173600225Y-48547542D02*
X173485939Y-48547542D01*
X173485939Y-48547542D02*
X173314510Y-48490400D01*
X173314510Y-48490400D02*
X173200225Y-48376114D01*
X173200225Y-48376114D02*
X173143082Y-48261828D01*
X173143082Y-48261828D02*
X173085939Y-48033257D01*
X173085939Y-48033257D02*
X173085939Y-47861828D01*
X173085939Y-47861828D02*
X173143082Y-47633257D01*
X173143082Y-47633257D02*
X173200225Y-47518971D01*
X173200225Y-47518971D02*
X173314510Y-47404685D01*
X173314510Y-47404685D02*
X173485939Y-47347542D01*
X173485939Y-47347542D02*
X173600225Y-47347542D01*
X173600225Y-47347542D02*
X173771653Y-47404685D01*
X173771653Y-47404685D02*
X173828796Y-47461828D01*
X174841653Y-69254685D02*
X174727368Y-69197542D01*
X174727368Y-69197542D02*
X174555939Y-69197542D01*
X174555939Y-69197542D02*
X174384510Y-69254685D01*
X174384510Y-69254685D02*
X174270225Y-69368971D01*
X174270225Y-69368971D02*
X174213082Y-69483257D01*
X174213082Y-69483257D02*
X174155939Y-69711828D01*
X174155939Y-69711828D02*
X174155939Y-69883257D01*
X174155939Y-69883257D02*
X174213082Y-70111828D01*
X174213082Y-70111828D02*
X174270225Y-70226114D01*
X174270225Y-70226114D02*
X174384510Y-70340400D01*
X174384510Y-70340400D02*
X174555939Y-70397542D01*
X174555939Y-70397542D02*
X174670225Y-70397542D01*
X174670225Y-70397542D02*
X174841653Y-70340400D01*
X174841653Y-70340400D02*
X174898796Y-70283257D01*
X174898796Y-70283257D02*
X174898796Y-69883257D01*
X174898796Y-69883257D02*
X174670225Y-69883257D01*
X175413082Y-70397542D02*
X175413082Y-69197542D01*
X175413082Y-69197542D02*
X176098796Y-70397542D01*
X176098796Y-70397542D02*
X176098796Y-69197542D01*
X176670225Y-70397542D02*
X176670225Y-69197542D01*
X176670225Y-69197542D02*
X176955939Y-69197542D01*
X176955939Y-69197542D02*
X177127368Y-69254685D01*
X177127368Y-69254685D02*
X177241653Y-69368971D01*
X177241653Y-69368971D02*
X177298796Y-69483257D01*
X177298796Y-69483257D02*
X177355939Y-69711828D01*
X177355939Y-69711828D02*
X177355939Y-69883257D01*
X177355939Y-69883257D02*
X177298796Y-70111828D01*
X177298796Y-70111828D02*
X177241653Y-70226114D01*
X177241653Y-70226114D02*
X177127368Y-70340400D01*
X177127368Y-70340400D02*
X176955939Y-70397542D01*
X176955939Y-70397542D02*
X176670225Y-70397542D01*
X178613082Y-69197542D02*
X179013082Y-70397542D01*
X179013082Y-70397542D02*
X179413082Y-69197542D01*
X180498796Y-70283257D02*
X180441653Y-70340400D01*
X180441653Y-70340400D02*
X180270225Y-70397542D01*
X180270225Y-70397542D02*
X180155939Y-70397542D01*
X180155939Y-70397542D02*
X179984510Y-70340400D01*
X179984510Y-70340400D02*
X179870225Y-70226114D01*
X179870225Y-70226114D02*
X179813082Y-70111828D01*
X179813082Y-70111828D02*
X179755939Y-69883257D01*
X179755939Y-69883257D02*
X179755939Y-69711828D01*
X179755939Y-69711828D02*
X179813082Y-69483257D01*
X179813082Y-69483257D02*
X179870225Y-69368971D01*
X179870225Y-69368971D02*
X179984510Y-69254685D01*
X179984510Y-69254685D02*
X180155939Y-69197542D01*
X180155939Y-69197542D02*
X180270225Y-69197542D01*
X180270225Y-69197542D02*
X180441653Y-69254685D01*
X180441653Y-69254685D02*
X180498796Y-69311828D01*
X181698796Y-70283257D02*
X181641653Y-70340400D01*
X181641653Y-70340400D02*
X181470225Y-70397542D01*
X181470225Y-70397542D02*
X181355939Y-70397542D01*
X181355939Y-70397542D02*
X181184510Y-70340400D01*
X181184510Y-70340400D02*
X181070225Y-70226114D01*
X181070225Y-70226114D02*
X181013082Y-70111828D01*
X181013082Y-70111828D02*
X180955939Y-69883257D01*
X180955939Y-69883257D02*
X180955939Y-69711828D01*
X180955939Y-69711828D02*
X181013082Y-69483257D01*
X181013082Y-69483257D02*
X181070225Y-69368971D01*
X181070225Y-69368971D02*
X181184510Y-69254685D01*
X181184510Y-69254685D02*
X181355939Y-69197542D01*
X181355939Y-69197542D02*
X181470225Y-69197542D01*
X181470225Y-69197542D02*
X181641653Y-69254685D01*
X181641653Y-69254685D02*
X181698796Y-69311828D01*
X151414510Y-39220996D02*
X151414510Y-37720996D01*
X151414510Y-37720996D02*
X151914510Y-38792425D01*
X151914510Y-38792425D02*
X152414510Y-37720996D01*
X152414510Y-37720996D02*
X152414510Y-39220996D01*
X153771654Y-39149568D02*
X153628796Y-39220996D01*
X153628796Y-39220996D02*
X153343082Y-39220996D01*
X153343082Y-39220996D02*
X153200225Y-39149568D01*
X153200225Y-39149568D02*
X153128796Y-39078139D01*
X153128796Y-39078139D02*
X153057368Y-38935282D01*
X153057368Y-38935282D02*
X153057368Y-38506710D01*
X153057368Y-38506710D02*
X153128796Y-38363853D01*
X153128796Y-38363853D02*
X153200225Y-38292425D01*
X153200225Y-38292425D02*
X153343082Y-38220996D01*
X153343082Y-38220996D02*
X153628796Y-38220996D01*
X153628796Y-38220996D02*
X153771654Y-38292425D01*
X155200225Y-37792425D02*
X155057368Y-37720996D01*
X155057368Y-37720996D02*
X154843082Y-37720996D01*
X154843082Y-37720996D02*
X154628796Y-37792425D01*
X154628796Y-37792425D02*
X154485939Y-37935282D01*
X154485939Y-37935282D02*
X154414510Y-38078139D01*
X154414510Y-38078139D02*
X154343082Y-38363853D01*
X154343082Y-38363853D02*
X154343082Y-38578139D01*
X154343082Y-38578139D02*
X154414510Y-38863853D01*
X154414510Y-38863853D02*
X154485939Y-39006710D01*
X154485939Y-39006710D02*
X154628796Y-39149568D01*
X154628796Y-39149568D02*
X154843082Y-39220996D01*
X154843082Y-39220996D02*
X154985939Y-39220996D01*
X154985939Y-39220996D02*
X155200225Y-39149568D01*
X155200225Y-39149568D02*
X155271653Y-39078139D01*
X155271653Y-39078139D02*
X155271653Y-38578139D01*
X155271653Y-38578139D02*
X154985939Y-38578139D01*
X155914510Y-39220996D02*
X155914510Y-38220996D01*
X155914510Y-37720996D02*
X155843082Y-37792425D01*
X155843082Y-37792425D02*
X155914510Y-37863853D01*
X155914510Y-37863853D02*
X155985939Y-37792425D01*
X155985939Y-37792425D02*
X155914510Y-37720996D01*
X155914510Y-37720996D02*
X155914510Y-37863853D01*
X156843082Y-39220996D02*
X156700225Y-39149568D01*
X156700225Y-39149568D02*
X156628796Y-39006710D01*
X156628796Y-39006710D02*
X156628796Y-37720996D01*
X157628796Y-39220996D02*
X157485939Y-39149568D01*
X157485939Y-39149568D02*
X157414510Y-39006710D01*
X157414510Y-39006710D02*
X157414510Y-37720996D01*
X160200224Y-39220996D02*
X159700224Y-38506710D01*
X159343081Y-39220996D02*
X159343081Y-37720996D01*
X159343081Y-37720996D02*
X159914510Y-37720996D01*
X159914510Y-37720996D02*
X160057367Y-37792425D01*
X160057367Y-37792425D02*
X160128796Y-37863853D01*
X160128796Y-37863853D02*
X160200224Y-38006710D01*
X160200224Y-38006710D02*
X160200224Y-38220996D01*
X160200224Y-38220996D02*
X160128796Y-38363853D01*
X160128796Y-38363853D02*
X160057367Y-38435282D01*
X160057367Y-38435282D02*
X159914510Y-38506710D01*
X159914510Y-38506710D02*
X159343081Y-38506710D01*
X161057367Y-39220996D02*
X160914510Y-39149568D01*
X160914510Y-39149568D02*
X160843081Y-39078139D01*
X160843081Y-39078139D02*
X160771653Y-38935282D01*
X160771653Y-38935282D02*
X160771653Y-38506710D01*
X160771653Y-38506710D02*
X160843081Y-38363853D01*
X160843081Y-38363853D02*
X160914510Y-38292425D01*
X160914510Y-38292425D02*
X161057367Y-38220996D01*
X161057367Y-38220996D02*
X161271653Y-38220996D01*
X161271653Y-38220996D02*
X161414510Y-38292425D01*
X161414510Y-38292425D02*
X161485939Y-38363853D01*
X161485939Y-38363853D02*
X161557367Y-38506710D01*
X161557367Y-38506710D02*
X161557367Y-38935282D01*
X161557367Y-38935282D02*
X161485939Y-39078139D01*
X161485939Y-39078139D02*
X161414510Y-39149568D01*
X161414510Y-39149568D02*
X161271653Y-39220996D01*
X161271653Y-39220996D02*
X161057367Y-39220996D01*
X162200224Y-39220996D02*
X162200224Y-37720996D01*
X162200224Y-38292425D02*
X162343082Y-38220996D01*
X162343082Y-38220996D02*
X162628796Y-38220996D01*
X162628796Y-38220996D02*
X162771653Y-38292425D01*
X162771653Y-38292425D02*
X162843082Y-38363853D01*
X162843082Y-38363853D02*
X162914510Y-38506710D01*
X162914510Y-38506710D02*
X162914510Y-38935282D01*
X162914510Y-38935282D02*
X162843082Y-39078139D01*
X162843082Y-39078139D02*
X162771653Y-39149568D01*
X162771653Y-39149568D02*
X162628796Y-39220996D01*
X162628796Y-39220996D02*
X162343082Y-39220996D01*
X162343082Y-39220996D02*
X162200224Y-39149568D01*
X163771653Y-39220996D02*
X163628796Y-39149568D01*
X163628796Y-39149568D02*
X163557367Y-39078139D01*
X163557367Y-39078139D02*
X163485939Y-38935282D01*
X163485939Y-38935282D02*
X163485939Y-38506710D01*
X163485939Y-38506710D02*
X163557367Y-38363853D01*
X163557367Y-38363853D02*
X163628796Y-38292425D01*
X163628796Y-38292425D02*
X163771653Y-38220996D01*
X163771653Y-38220996D02*
X163985939Y-38220996D01*
X163985939Y-38220996D02*
X164128796Y-38292425D01*
X164128796Y-38292425D02*
X164200225Y-38363853D01*
X164200225Y-38363853D02*
X164271653Y-38506710D01*
X164271653Y-38506710D02*
X164271653Y-38935282D01*
X164271653Y-38935282D02*
X164200225Y-39078139D01*
X164200225Y-39078139D02*
X164128796Y-39149568D01*
X164128796Y-39149568D02*
X163985939Y-39220996D01*
X163985939Y-39220996D02*
X163771653Y-39220996D01*
X164700225Y-38220996D02*
X165271653Y-38220996D01*
X164914510Y-37720996D02*
X164914510Y-39006710D01*
X164914510Y-39006710D02*
X164985939Y-39149568D01*
X164985939Y-39149568D02*
X165128796Y-39220996D01*
X165128796Y-39220996D02*
X165271653Y-39220996D01*
X165771653Y-39220996D02*
X165771653Y-38220996D01*
X165771653Y-37720996D02*
X165700225Y-37792425D01*
X165700225Y-37792425D02*
X165771653Y-37863853D01*
X165771653Y-37863853D02*
X165843082Y-37792425D01*
X165843082Y-37792425D02*
X165771653Y-37720996D01*
X165771653Y-37720996D02*
X165771653Y-37863853D01*
X167128797Y-39149568D02*
X166985939Y-39220996D01*
X166985939Y-39220996D02*
X166700225Y-39220996D01*
X166700225Y-39220996D02*
X166557368Y-39149568D01*
X166557368Y-39149568D02*
X166485939Y-39078139D01*
X166485939Y-39078139D02*
X166414511Y-38935282D01*
X166414511Y-38935282D02*
X166414511Y-38506710D01*
X166414511Y-38506710D02*
X166485939Y-38363853D01*
X166485939Y-38363853D02*
X166557368Y-38292425D01*
X166557368Y-38292425D02*
X166700225Y-38220996D01*
X166700225Y-38220996D02*
X166985939Y-38220996D01*
X166985939Y-38220996D02*
X167128797Y-38292425D01*
X167700225Y-39149568D02*
X167843082Y-39220996D01*
X167843082Y-39220996D02*
X168128796Y-39220996D01*
X168128796Y-39220996D02*
X168271653Y-39149568D01*
X168271653Y-39149568D02*
X168343082Y-39006710D01*
X168343082Y-39006710D02*
X168343082Y-38935282D01*
X168343082Y-38935282D02*
X168271653Y-38792425D01*
X168271653Y-38792425D02*
X168128796Y-38720996D01*
X168128796Y-38720996D02*
X167914511Y-38720996D01*
X167914511Y-38720996D02*
X167771653Y-38649568D01*
X167771653Y-38649568D02*
X167700225Y-38506710D01*
X167700225Y-38506710D02*
X167700225Y-38435282D01*
X167700225Y-38435282D02*
X167771653Y-38292425D01*
X167771653Y-38292425D02*
X167914511Y-38220996D01*
X167914511Y-38220996D02*
X168128796Y-38220996D01*
X168128796Y-38220996D02*
X168271653Y-38292425D01*
X170557368Y-39792425D02*
X170485939Y-39720996D01*
X170485939Y-39720996D02*
X170343082Y-39506710D01*
X170343082Y-39506710D02*
X170271654Y-39363853D01*
X170271654Y-39363853D02*
X170200225Y-39149568D01*
X170200225Y-39149568D02*
X170128796Y-38792425D01*
X170128796Y-38792425D02*
X170128796Y-38506710D01*
X170128796Y-38506710D02*
X170200225Y-38149568D01*
X170200225Y-38149568D02*
X170271654Y-37935282D01*
X170271654Y-37935282D02*
X170343082Y-37792425D01*
X170343082Y-37792425D02*
X170485939Y-37578139D01*
X170485939Y-37578139D02*
X170557368Y-37506710D01*
X171057368Y-37863853D02*
X171128796Y-37792425D01*
X171128796Y-37792425D02*
X171271654Y-37720996D01*
X171271654Y-37720996D02*
X171628796Y-37720996D01*
X171628796Y-37720996D02*
X171771654Y-37792425D01*
X171771654Y-37792425D02*
X171843082Y-37863853D01*
X171843082Y-37863853D02*
X171914511Y-38006710D01*
X171914511Y-38006710D02*
X171914511Y-38149568D01*
X171914511Y-38149568D02*
X171843082Y-38363853D01*
X171843082Y-38363853D02*
X170985939Y-39220996D01*
X170985939Y-39220996D02*
X171914511Y-39220996D01*
X172843082Y-37720996D02*
X172985939Y-37720996D01*
X172985939Y-37720996D02*
X173128796Y-37792425D01*
X173128796Y-37792425D02*
X173200225Y-37863853D01*
X173200225Y-37863853D02*
X173271653Y-38006710D01*
X173271653Y-38006710D02*
X173343082Y-38292425D01*
X173343082Y-38292425D02*
X173343082Y-38649568D01*
X173343082Y-38649568D02*
X173271653Y-38935282D01*
X173271653Y-38935282D02*
X173200225Y-39078139D01*
X173200225Y-39078139D02*
X173128796Y-39149568D01*
X173128796Y-39149568D02*
X172985939Y-39220996D01*
X172985939Y-39220996D02*
X172843082Y-39220996D01*
X172843082Y-39220996D02*
X172700225Y-39149568D01*
X172700225Y-39149568D02*
X172628796Y-39078139D01*
X172628796Y-39078139D02*
X172557367Y-38935282D01*
X172557367Y-38935282D02*
X172485939Y-38649568D01*
X172485939Y-38649568D02*
X172485939Y-38292425D01*
X172485939Y-38292425D02*
X172557367Y-38006710D01*
X172557367Y-38006710D02*
X172628796Y-37863853D01*
X172628796Y-37863853D02*
X172700225Y-37792425D01*
X172700225Y-37792425D02*
X172843082Y-37720996D01*
X173914510Y-37863853D02*
X173985938Y-37792425D01*
X173985938Y-37792425D02*
X174128796Y-37720996D01*
X174128796Y-37720996D02*
X174485938Y-37720996D01*
X174485938Y-37720996D02*
X174628796Y-37792425D01*
X174628796Y-37792425D02*
X174700224Y-37863853D01*
X174700224Y-37863853D02*
X174771653Y-38006710D01*
X174771653Y-38006710D02*
X174771653Y-38149568D01*
X174771653Y-38149568D02*
X174700224Y-38363853D01*
X174700224Y-38363853D02*
X173843081Y-39220996D01*
X173843081Y-39220996D02*
X174771653Y-39220996D01*
X176057367Y-37720996D02*
X175771652Y-37720996D01*
X175771652Y-37720996D02*
X175628795Y-37792425D01*
X175628795Y-37792425D02*
X175557367Y-37863853D01*
X175557367Y-37863853D02*
X175414509Y-38078139D01*
X175414509Y-38078139D02*
X175343081Y-38363853D01*
X175343081Y-38363853D02*
X175343081Y-38935282D01*
X175343081Y-38935282D02*
X175414509Y-39078139D01*
X175414509Y-39078139D02*
X175485938Y-39149568D01*
X175485938Y-39149568D02*
X175628795Y-39220996D01*
X175628795Y-39220996D02*
X175914509Y-39220996D01*
X175914509Y-39220996D02*
X176057367Y-39149568D01*
X176057367Y-39149568D02*
X176128795Y-39078139D01*
X176128795Y-39078139D02*
X176200224Y-38935282D01*
X176200224Y-38935282D02*
X176200224Y-38578139D01*
X176200224Y-38578139D02*
X176128795Y-38435282D01*
X176128795Y-38435282D02*
X176057367Y-38363853D01*
X176057367Y-38363853D02*
X175914509Y-38292425D01*
X175914509Y-38292425D02*
X175628795Y-38292425D01*
X175628795Y-38292425D02*
X175485938Y-38363853D01*
X175485938Y-38363853D02*
X175414509Y-38435282D01*
X175414509Y-38435282D02*
X175343081Y-38578139D01*
X176700223Y-39792425D02*
X176771652Y-39720996D01*
X176771652Y-39720996D02*
X176914509Y-39506710D01*
X176914509Y-39506710D02*
X176985938Y-39363853D01*
X176985938Y-39363853D02*
X177057366Y-39149568D01*
X177057366Y-39149568D02*
X177128795Y-38792425D01*
X177128795Y-38792425D02*
X177128795Y-38506710D01*
X177128795Y-38506710D02*
X177057366Y-38149568D01*
X177057366Y-38149568D02*
X176985938Y-37935282D01*
X176985938Y-37935282D02*
X176914509Y-37792425D01*
X176914509Y-37792425D02*
X176771652Y-37578139D01*
X176771652Y-37578139D02*
X176700223Y-37506710D01*
X151414510Y-41635912D02*
X151414510Y-40135912D01*
X151414510Y-40850198D02*
X152271653Y-40850198D01*
X152271653Y-41635912D02*
X152271653Y-40135912D01*
X152843082Y-40635912D02*
X153200225Y-41635912D01*
X153557368Y-40635912D02*
X153200225Y-41635912D01*
X153200225Y-41635912D02*
X153057368Y-41993055D01*
X153057368Y-41993055D02*
X152985939Y-42064484D01*
X152985939Y-42064484D02*
X152843082Y-42135912D01*
X154771654Y-41635912D02*
X154771654Y-40135912D01*
X154771654Y-41564484D02*
X154628796Y-41635912D01*
X154628796Y-41635912D02*
X154343082Y-41635912D01*
X154343082Y-41635912D02*
X154200225Y-41564484D01*
X154200225Y-41564484D02*
X154128796Y-41493055D01*
X154128796Y-41493055D02*
X154057368Y-41350198D01*
X154057368Y-41350198D02*
X154057368Y-40921626D01*
X154057368Y-40921626D02*
X154128796Y-40778769D01*
X154128796Y-40778769D02*
X154200225Y-40707341D01*
X154200225Y-40707341D02*
X154343082Y-40635912D01*
X154343082Y-40635912D02*
X154628796Y-40635912D01*
X154628796Y-40635912D02*
X154771654Y-40707341D01*
X155485939Y-41635912D02*
X155485939Y-40635912D01*
X155485939Y-40921626D02*
X155557368Y-40778769D01*
X155557368Y-40778769D02*
X155628797Y-40707341D01*
X155628797Y-40707341D02*
X155771654Y-40635912D01*
X155771654Y-40635912D02*
X155914511Y-40635912D01*
X156628796Y-41635912D02*
X156485939Y-41564484D01*
X156485939Y-41564484D02*
X156414510Y-41493055D01*
X156414510Y-41493055D02*
X156343082Y-41350198D01*
X156343082Y-41350198D02*
X156343082Y-40921626D01*
X156343082Y-40921626D02*
X156414510Y-40778769D01*
X156414510Y-40778769D02*
X156485939Y-40707341D01*
X156485939Y-40707341D02*
X156628796Y-40635912D01*
X156628796Y-40635912D02*
X156843082Y-40635912D01*
X156843082Y-40635912D02*
X156985939Y-40707341D01*
X156985939Y-40707341D02*
X157057368Y-40778769D01*
X157057368Y-40778769D02*
X157128796Y-40921626D01*
X157128796Y-40921626D02*
X157128796Y-41350198D01*
X157128796Y-41350198D02*
X157057368Y-41493055D01*
X157057368Y-41493055D02*
X156985939Y-41564484D01*
X156985939Y-41564484D02*
X156843082Y-41635912D01*
X156843082Y-41635912D02*
X156628796Y-41635912D01*
X157771653Y-40635912D02*
X157771653Y-42135912D01*
X157771653Y-40707341D02*
X157914511Y-40635912D01*
X157914511Y-40635912D02*
X158200225Y-40635912D01*
X158200225Y-40635912D02*
X158343082Y-40707341D01*
X158343082Y-40707341D02*
X158414511Y-40778769D01*
X158414511Y-40778769D02*
X158485939Y-40921626D01*
X158485939Y-40921626D02*
X158485939Y-41350198D01*
X158485939Y-41350198D02*
X158414511Y-41493055D01*
X158414511Y-41493055D02*
X158343082Y-41564484D01*
X158343082Y-41564484D02*
X158200225Y-41635912D01*
X158200225Y-41635912D02*
X157914511Y-41635912D01*
X157914511Y-41635912D02*
X157771653Y-41564484D01*
X159128796Y-41635912D02*
X159128796Y-40135912D01*
X159771654Y-41635912D02*
X159771654Y-40850198D01*
X159771654Y-40850198D02*
X159700225Y-40707341D01*
X159700225Y-40707341D02*
X159557368Y-40635912D01*
X159557368Y-40635912D02*
X159343082Y-40635912D01*
X159343082Y-40635912D02*
X159200225Y-40707341D01*
X159200225Y-40707341D02*
X159128796Y-40778769D01*
X160700225Y-41635912D02*
X160557368Y-41564484D01*
X160557368Y-41564484D02*
X160485939Y-41493055D01*
X160485939Y-41493055D02*
X160414511Y-41350198D01*
X160414511Y-41350198D02*
X160414511Y-40921626D01*
X160414511Y-40921626D02*
X160485939Y-40778769D01*
X160485939Y-40778769D02*
X160557368Y-40707341D01*
X160557368Y-40707341D02*
X160700225Y-40635912D01*
X160700225Y-40635912D02*
X160914511Y-40635912D01*
X160914511Y-40635912D02*
X161057368Y-40707341D01*
X161057368Y-40707341D02*
X161128797Y-40778769D01*
X161128797Y-40778769D02*
X161200225Y-40921626D01*
X161200225Y-40921626D02*
X161200225Y-41350198D01*
X161200225Y-41350198D02*
X161128797Y-41493055D01*
X161128797Y-41493055D02*
X161057368Y-41564484D01*
X161057368Y-41564484D02*
X160914511Y-41635912D01*
X160914511Y-41635912D02*
X160700225Y-41635912D01*
X161843082Y-40635912D02*
X161843082Y-41635912D01*
X161843082Y-40778769D02*
X161914511Y-40707341D01*
X161914511Y-40707341D02*
X162057368Y-40635912D01*
X162057368Y-40635912D02*
X162271654Y-40635912D01*
X162271654Y-40635912D02*
X162414511Y-40707341D01*
X162414511Y-40707341D02*
X162485940Y-40850198D01*
X162485940Y-40850198D02*
X162485940Y-41635912D01*
X163771654Y-41564484D02*
X163628797Y-41635912D01*
X163628797Y-41635912D02*
X163343083Y-41635912D01*
X163343083Y-41635912D02*
X163200225Y-41564484D01*
X163200225Y-41564484D02*
X163128797Y-41421626D01*
X163128797Y-41421626D02*
X163128797Y-40850198D01*
X163128797Y-40850198D02*
X163200225Y-40707341D01*
X163200225Y-40707341D02*
X163343083Y-40635912D01*
X163343083Y-40635912D02*
X163628797Y-40635912D01*
X163628797Y-40635912D02*
X163771654Y-40707341D01*
X163771654Y-40707341D02*
X163843083Y-40850198D01*
X163843083Y-40850198D02*
X163843083Y-40993055D01*
X163843083Y-40993055D02*
X163128797Y-41135912D01*
X165557368Y-41564484D02*
X165771654Y-41635912D01*
X165771654Y-41635912D02*
X166128796Y-41635912D01*
X166128796Y-41635912D02*
X166271654Y-41564484D01*
X166271654Y-41564484D02*
X166343082Y-41493055D01*
X166343082Y-41493055D02*
X166414511Y-41350198D01*
X166414511Y-41350198D02*
X166414511Y-41207341D01*
X166414511Y-41207341D02*
X166343082Y-41064484D01*
X166343082Y-41064484D02*
X166271654Y-40993055D01*
X166271654Y-40993055D02*
X166128796Y-40921626D01*
X166128796Y-40921626D02*
X165843082Y-40850198D01*
X165843082Y-40850198D02*
X165700225Y-40778769D01*
X165700225Y-40778769D02*
X165628796Y-40707341D01*
X165628796Y-40707341D02*
X165557368Y-40564484D01*
X165557368Y-40564484D02*
X165557368Y-40421626D01*
X165557368Y-40421626D02*
X165628796Y-40278769D01*
X165628796Y-40278769D02*
X165700225Y-40207341D01*
X165700225Y-40207341D02*
X165843082Y-40135912D01*
X165843082Y-40135912D02*
X166200225Y-40135912D01*
X166200225Y-40135912D02*
X166414511Y-40207341D01*
X167057367Y-41635912D02*
X167057367Y-40135912D01*
X167700225Y-41635912D02*
X167700225Y-40850198D01*
X167700225Y-40850198D02*
X167628796Y-40707341D01*
X167628796Y-40707341D02*
X167485939Y-40635912D01*
X167485939Y-40635912D02*
X167271653Y-40635912D01*
X167271653Y-40635912D02*
X167128796Y-40707341D01*
X167128796Y-40707341D02*
X167057367Y-40778769D01*
X168414510Y-41635912D02*
X168414510Y-40635912D01*
X168414510Y-40135912D02*
X168343082Y-40207341D01*
X168343082Y-40207341D02*
X168414510Y-40278769D01*
X168414510Y-40278769D02*
X168485939Y-40207341D01*
X168485939Y-40207341D02*
X168414510Y-40135912D01*
X168414510Y-40135912D02*
X168414510Y-40278769D01*
X169700225Y-41564484D02*
X169557368Y-41635912D01*
X169557368Y-41635912D02*
X169271654Y-41635912D01*
X169271654Y-41635912D02*
X169128796Y-41564484D01*
X169128796Y-41564484D02*
X169057368Y-41421626D01*
X169057368Y-41421626D02*
X169057368Y-40850198D01*
X169057368Y-40850198D02*
X169128796Y-40707341D01*
X169128796Y-40707341D02*
X169271654Y-40635912D01*
X169271654Y-40635912D02*
X169557368Y-40635912D01*
X169557368Y-40635912D02*
X169700225Y-40707341D01*
X169700225Y-40707341D02*
X169771654Y-40850198D01*
X169771654Y-40850198D02*
X169771654Y-40993055D01*
X169771654Y-40993055D02*
X169057368Y-41135912D01*
X170628796Y-41635912D02*
X170485939Y-41564484D01*
X170485939Y-41564484D02*
X170414510Y-41421626D01*
X170414510Y-41421626D02*
X170414510Y-40135912D01*
X171843082Y-41635912D02*
X171843082Y-40135912D01*
X171843082Y-41564484D02*
X171700224Y-41635912D01*
X171700224Y-41635912D02*
X171414510Y-41635912D01*
X171414510Y-41635912D02*
X171271653Y-41564484D01*
X171271653Y-41564484D02*
X171200224Y-41493055D01*
X171200224Y-41493055D02*
X171128796Y-41350198D01*
X171128796Y-41350198D02*
X171128796Y-40921626D01*
X171128796Y-40921626D02*
X171200224Y-40778769D01*
X171200224Y-40778769D02*
X171271653Y-40707341D01*
X171271653Y-40707341D02*
X171414510Y-40635912D01*
X171414510Y-40635912D02*
X171700224Y-40635912D01*
X171700224Y-40635912D02*
X171843082Y-40707341D01*
X173485939Y-40135912D02*
X173985939Y-41635912D01*
X173985939Y-41635912D02*
X174485939Y-40135912D01*
X175771653Y-41635912D02*
X174914510Y-41635912D01*
X175343081Y-41635912D02*
X175343081Y-40135912D01*
X175343081Y-40135912D02*
X175200224Y-40350198D01*
X175200224Y-40350198D02*
X175057367Y-40493055D01*
X175057367Y-40493055D02*
X174914510Y-40564484D01*
X176414509Y-41493055D02*
X176485938Y-41564484D01*
X176485938Y-41564484D02*
X176414509Y-41635912D01*
X176414509Y-41635912D02*
X176343081Y-41564484D01*
X176343081Y-41564484D02*
X176414509Y-41493055D01*
X176414509Y-41493055D02*
X176414509Y-41635912D01*
X177914510Y-41635912D02*
X177057367Y-41635912D01*
X177485938Y-41635912D02*
X177485938Y-40135912D01*
X177485938Y-40135912D02*
X177343081Y-40350198D01*
X177343081Y-40350198D02*
X177200224Y-40493055D01*
X177200224Y-40493055D02*
X177057367Y-40564484D01*
X151414510Y-44050828D02*
X151414510Y-42550828D01*
X152128796Y-43050828D02*
X152128796Y-44050828D01*
X152128796Y-43193685D02*
X152200225Y-43122257D01*
X152200225Y-43122257D02*
X152343082Y-43050828D01*
X152343082Y-43050828D02*
X152557368Y-43050828D01*
X152557368Y-43050828D02*
X152700225Y-43122257D01*
X152700225Y-43122257D02*
X152771654Y-43265114D01*
X152771654Y-43265114D02*
X152771654Y-44050828D01*
X153485939Y-43050828D02*
X153485939Y-44550828D01*
X153485939Y-43122257D02*
X153628797Y-43050828D01*
X153628797Y-43050828D02*
X153914511Y-43050828D01*
X153914511Y-43050828D02*
X154057368Y-43122257D01*
X154057368Y-43122257D02*
X154128797Y-43193685D01*
X154128797Y-43193685D02*
X154200225Y-43336542D01*
X154200225Y-43336542D02*
X154200225Y-43765114D01*
X154200225Y-43765114D02*
X154128797Y-43907971D01*
X154128797Y-43907971D02*
X154057368Y-43979400D01*
X154057368Y-43979400D02*
X153914511Y-44050828D01*
X153914511Y-44050828D02*
X153628797Y-44050828D01*
X153628797Y-44050828D02*
X153485939Y-43979400D01*
X155485940Y-43050828D02*
X155485940Y-44050828D01*
X154843082Y-43050828D02*
X154843082Y-43836542D01*
X154843082Y-43836542D02*
X154914511Y-43979400D01*
X154914511Y-43979400D02*
X155057368Y-44050828D01*
X155057368Y-44050828D02*
X155271654Y-44050828D01*
X155271654Y-44050828D02*
X155414511Y-43979400D01*
X155414511Y-43979400D02*
X155485940Y-43907971D01*
X155985940Y-43050828D02*
X156557368Y-43050828D01*
X156200225Y-42550828D02*
X156200225Y-43836542D01*
X156200225Y-43836542D02*
X156271654Y-43979400D01*
X156271654Y-43979400D02*
X156414511Y-44050828D01*
X156414511Y-44050828D02*
X156557368Y-44050828D01*
X158914511Y-42550828D02*
X158200225Y-42550828D01*
X158200225Y-42550828D02*
X158128797Y-43265114D01*
X158128797Y-43265114D02*
X158200225Y-43193685D01*
X158200225Y-43193685D02*
X158343083Y-43122257D01*
X158343083Y-43122257D02*
X158700225Y-43122257D01*
X158700225Y-43122257D02*
X158843083Y-43193685D01*
X158843083Y-43193685D02*
X158914511Y-43265114D01*
X158914511Y-43265114D02*
X158985940Y-43407971D01*
X158985940Y-43407971D02*
X158985940Y-43765114D01*
X158985940Y-43765114D02*
X158914511Y-43907971D01*
X158914511Y-43907971D02*
X158843083Y-43979400D01*
X158843083Y-43979400D02*
X158700225Y-44050828D01*
X158700225Y-44050828D02*
X158343083Y-44050828D01*
X158343083Y-44050828D02*
X158200225Y-43979400D01*
X158200225Y-43979400D02*
X158128797Y-43907971D01*
X159414511Y-42550828D02*
X159914511Y-44050828D01*
X159914511Y-44050828D02*
X160414511Y-42550828D01*
D12*
X200969580Y-72312857D02*
X201017200Y-72360476D01*
X201017200Y-72360476D02*
X201064819Y-72503333D01*
X201064819Y-72503333D02*
X201064819Y-72598571D01*
X201064819Y-72598571D02*
X201017200Y-72741428D01*
X201017200Y-72741428D02*
X200921961Y-72836666D01*
X200921961Y-72836666D02*
X200826723Y-72884285D01*
X200826723Y-72884285D02*
X200636247Y-72931904D01*
X200636247Y-72931904D02*
X200493390Y-72931904D01*
X200493390Y-72931904D02*
X200302914Y-72884285D01*
X200302914Y-72884285D02*
X200207676Y-72836666D01*
X200207676Y-72836666D02*
X200112438Y-72741428D01*
X200112438Y-72741428D02*
X200064819Y-72598571D01*
X200064819Y-72598571D02*
X200064819Y-72503333D01*
X200064819Y-72503333D02*
X200112438Y-72360476D01*
X200112438Y-72360476D02*
X200160057Y-72312857D01*
X200160057Y-71931904D02*
X200112438Y-71884285D01*
X200112438Y-71884285D02*
X200064819Y-71789047D01*
X200064819Y-71789047D02*
X200064819Y-71550952D01*
X200064819Y-71550952D02*
X200112438Y-71455714D01*
X200112438Y-71455714D02*
X200160057Y-71408095D01*
X200160057Y-71408095D02*
X200255295Y-71360476D01*
X200255295Y-71360476D02*
X200350533Y-71360476D01*
X200350533Y-71360476D02*
X200493390Y-71408095D01*
X200493390Y-71408095D02*
X201064819Y-71979523D01*
X201064819Y-71979523D02*
X201064819Y-71360476D01*
X201064819Y-70408095D02*
X201064819Y-70979523D01*
X201064819Y-70693809D02*
X200064819Y-70693809D01*
X200064819Y-70693809D02*
X200207676Y-70789047D01*
X200207676Y-70789047D02*
X200302914Y-70884285D01*
X200302914Y-70884285D02*
X200350533Y-70979523D01*
X193439580Y-78782857D02*
X193487200Y-78830476D01*
X193487200Y-78830476D02*
X193534819Y-78973333D01*
X193534819Y-78973333D02*
X193534819Y-79068571D01*
X193534819Y-79068571D02*
X193487200Y-79211428D01*
X193487200Y-79211428D02*
X193391961Y-79306666D01*
X193391961Y-79306666D02*
X193296723Y-79354285D01*
X193296723Y-79354285D02*
X193106247Y-79401904D01*
X193106247Y-79401904D02*
X192963390Y-79401904D01*
X192963390Y-79401904D02*
X192772914Y-79354285D01*
X192772914Y-79354285D02*
X192677676Y-79306666D01*
X192677676Y-79306666D02*
X192582438Y-79211428D01*
X192582438Y-79211428D02*
X192534819Y-79068571D01*
X192534819Y-79068571D02*
X192534819Y-78973333D01*
X192534819Y-78973333D02*
X192582438Y-78830476D01*
X192582438Y-78830476D02*
X192630057Y-78782857D01*
X193534819Y-77830476D02*
X193534819Y-78401904D01*
X193534819Y-78116190D02*
X192534819Y-78116190D01*
X192534819Y-78116190D02*
X192677676Y-78211428D01*
X192677676Y-78211428D02*
X192772914Y-78306666D01*
X192772914Y-78306666D02*
X192820533Y-78401904D01*
X192963390Y-77259047D02*
X192915771Y-77354285D01*
X192915771Y-77354285D02*
X192868152Y-77401904D01*
X192868152Y-77401904D02*
X192772914Y-77449523D01*
X192772914Y-77449523D02*
X192725295Y-77449523D01*
X192725295Y-77449523D02*
X192630057Y-77401904D01*
X192630057Y-77401904D02*
X192582438Y-77354285D01*
X192582438Y-77354285D02*
X192534819Y-77259047D01*
X192534819Y-77259047D02*
X192534819Y-77068571D01*
X192534819Y-77068571D02*
X192582438Y-76973333D01*
X192582438Y-76973333D02*
X192630057Y-76925714D01*
X192630057Y-76925714D02*
X192725295Y-76878095D01*
X192725295Y-76878095D02*
X192772914Y-76878095D01*
X192772914Y-76878095D02*
X192868152Y-76925714D01*
X192868152Y-76925714D02*
X192915771Y-76973333D01*
X192915771Y-76973333D02*
X192963390Y-77068571D01*
X192963390Y-77068571D02*
X192963390Y-77259047D01*
X192963390Y-77259047D02*
X193011009Y-77354285D01*
X193011009Y-77354285D02*
X193058628Y-77401904D01*
X193058628Y-77401904D02*
X193153866Y-77449523D01*
X193153866Y-77449523D02*
X193344342Y-77449523D01*
X193344342Y-77449523D02*
X193439580Y-77401904D01*
X193439580Y-77401904D02*
X193487200Y-77354285D01*
X193487200Y-77354285D02*
X193534819Y-77259047D01*
X193534819Y-77259047D02*
X193534819Y-77068571D01*
X193534819Y-77068571D02*
X193487200Y-76973333D01*
X193487200Y-76973333D02*
X193439580Y-76925714D01*
X193439580Y-76925714D02*
X193344342Y-76878095D01*
X193344342Y-76878095D02*
X193153866Y-76878095D01*
X193153866Y-76878095D02*
X193058628Y-76925714D01*
X193058628Y-76925714D02*
X193011009Y-76973333D01*
X193011009Y-76973333D02*
X192963390Y-77068571D01*
X186154819Y-54456666D02*
X185678628Y-54789999D01*
X186154819Y-55028094D02*
X185154819Y-55028094D01*
X185154819Y-55028094D02*
X185154819Y-54647142D01*
X185154819Y-54647142D02*
X185202438Y-54551904D01*
X185202438Y-54551904D02*
X185250057Y-54504285D01*
X185250057Y-54504285D02*
X185345295Y-54456666D01*
X185345295Y-54456666D02*
X185488152Y-54456666D01*
X185488152Y-54456666D02*
X185583390Y-54504285D01*
X185583390Y-54504285D02*
X185631009Y-54551904D01*
X185631009Y-54551904D02*
X185678628Y-54647142D01*
X185678628Y-54647142D02*
X185678628Y-55028094D01*
X185154819Y-53551904D02*
X185154819Y-54028094D01*
X185154819Y-54028094D02*
X185631009Y-54075713D01*
X185631009Y-54075713D02*
X185583390Y-54028094D01*
X185583390Y-54028094D02*
X185535771Y-53932856D01*
X185535771Y-53932856D02*
X185535771Y-53694761D01*
X185535771Y-53694761D02*
X185583390Y-53599523D01*
X185583390Y-53599523D02*
X185631009Y-53551904D01*
X185631009Y-53551904D02*
X185726247Y-53504285D01*
X185726247Y-53504285D02*
X185964342Y-53504285D01*
X185964342Y-53504285D02*
X186059580Y-53551904D01*
X186059580Y-53551904D02*
X186107200Y-53599523D01*
X186107200Y-53599523D02*
X186154819Y-53694761D01*
X186154819Y-53694761D02*
X186154819Y-53932856D01*
X186154819Y-53932856D02*
X186107200Y-54028094D01*
X186107200Y-54028094D02*
X186059580Y-54075713D01*
X173864819Y-67453333D02*
X174579104Y-67453333D01*
X174579104Y-67453333D02*
X174721961Y-67500952D01*
X174721961Y-67500952D02*
X174817200Y-67596190D01*
X174817200Y-67596190D02*
X174864819Y-67739047D01*
X174864819Y-67739047D02*
X174864819Y-67834285D01*
X173864819Y-66548571D02*
X173864819Y-66739047D01*
X173864819Y-66739047D02*
X173912438Y-66834285D01*
X173912438Y-66834285D02*
X173960057Y-66881904D01*
X173960057Y-66881904D02*
X174102914Y-66977142D01*
X174102914Y-66977142D02*
X174293390Y-67024761D01*
X174293390Y-67024761D02*
X174674342Y-67024761D01*
X174674342Y-67024761D02*
X174769580Y-66977142D01*
X174769580Y-66977142D02*
X174817200Y-66929523D01*
X174817200Y-66929523D02*
X174864819Y-66834285D01*
X174864819Y-66834285D02*
X174864819Y-66643809D01*
X174864819Y-66643809D02*
X174817200Y-66548571D01*
X174817200Y-66548571D02*
X174769580Y-66500952D01*
X174769580Y-66500952D02*
X174674342Y-66453333D01*
X174674342Y-66453333D02*
X174436247Y-66453333D01*
X174436247Y-66453333D02*
X174341009Y-66500952D01*
X174341009Y-66500952D02*
X174293390Y-66548571D01*
X174293390Y-66548571D02*
X174245771Y-66643809D01*
X174245771Y-66643809D02*
X174245771Y-66834285D01*
X174245771Y-66834285D02*
X174293390Y-66929523D01*
X174293390Y-66929523D02*
X174341009Y-66977142D01*
X174341009Y-66977142D02*
X174436247Y-67024761D01*
X180659693Y-54078830D02*
X180659693Y-54146174D01*
X180659693Y-54146174D02*
X180592349Y-54280861D01*
X180592349Y-54280861D02*
X180525006Y-54348204D01*
X180525006Y-54348204D02*
X180390319Y-54415548D01*
X180390319Y-54415548D02*
X180255632Y-54415548D01*
X180255632Y-54415548D02*
X180154617Y-54381876D01*
X180154617Y-54381876D02*
X179986258Y-54280861D01*
X179986258Y-54280861D02*
X179885243Y-54179846D01*
X179885243Y-54179846D02*
X179784227Y-54011487D01*
X179784227Y-54011487D02*
X179750556Y-53910472D01*
X179750556Y-53910472D02*
X179750556Y-53775785D01*
X179750556Y-53775785D02*
X179817899Y-53641098D01*
X179817899Y-53641098D02*
X179885243Y-53573754D01*
X179885243Y-53573754D02*
X180019930Y-53506411D01*
X180019930Y-53506411D02*
X180087273Y-53506411D01*
X180255632Y-53203365D02*
X180693365Y-52765632D01*
X180693365Y-52765632D02*
X180727036Y-53270708D01*
X180727036Y-53270708D02*
X180828052Y-53169693D01*
X180828052Y-53169693D02*
X180929067Y-53136021D01*
X180929067Y-53136021D02*
X180996410Y-53136021D01*
X180996410Y-53136021D02*
X181097426Y-53169693D01*
X181097426Y-53169693D02*
X181265784Y-53338052D01*
X181265784Y-53338052D02*
X181299456Y-53439067D01*
X181299456Y-53439067D02*
X181299456Y-53506411D01*
X181299456Y-53506411D02*
X181265784Y-53607426D01*
X181265784Y-53607426D02*
X181063754Y-53809456D01*
X181063754Y-53809456D02*
X180962739Y-53843128D01*
X180962739Y-53843128D02*
X180895395Y-53843128D01*
X181400472Y-52664617D02*
X181299456Y-52698288D01*
X181299456Y-52698288D02*
X181232113Y-52698288D01*
X181232113Y-52698288D02*
X181131098Y-52664617D01*
X181131098Y-52664617D02*
X181097426Y-52630945D01*
X181097426Y-52630945D02*
X181063754Y-52529930D01*
X181063754Y-52529930D02*
X181063754Y-52462586D01*
X181063754Y-52462586D02*
X181097426Y-52361571D01*
X181097426Y-52361571D02*
X181232113Y-52226884D01*
X181232113Y-52226884D02*
X181333128Y-52193212D01*
X181333128Y-52193212D02*
X181400472Y-52193212D01*
X181400472Y-52193212D02*
X181501487Y-52226884D01*
X181501487Y-52226884D02*
X181535159Y-52260556D01*
X181535159Y-52260556D02*
X181568830Y-52361571D01*
X181568830Y-52361571D02*
X181568830Y-52428914D01*
X181568830Y-52428914D02*
X181535159Y-52529930D01*
X181535159Y-52529930D02*
X181400472Y-52664617D01*
X181400472Y-52664617D02*
X181366800Y-52765632D01*
X181366800Y-52765632D02*
X181366800Y-52832975D01*
X181366800Y-52832975D02*
X181400472Y-52933991D01*
X181400472Y-52933991D02*
X181535159Y-53068678D01*
X181535159Y-53068678D02*
X181636174Y-53102349D01*
X181636174Y-53102349D02*
X181703517Y-53102349D01*
X181703517Y-53102349D02*
X181804533Y-53068678D01*
X181804533Y-53068678D02*
X181939220Y-52933991D01*
X181939220Y-52933991D02*
X181972891Y-52832975D01*
X181972891Y-52832975D02*
X181972891Y-52765632D01*
X181972891Y-52765632D02*
X181939220Y-52664617D01*
X181939220Y-52664617D02*
X181804533Y-52529930D01*
X181804533Y-52529930D02*
X181703517Y-52496258D01*
X181703517Y-52496258D02*
X181636174Y-52496258D01*
X181636174Y-52496258D02*
X181535159Y-52529930D01*
X204914819Y-71916666D02*
X204438628Y-72249999D01*
X204914819Y-72488094D02*
X203914819Y-72488094D01*
X203914819Y-72488094D02*
X203914819Y-72107142D01*
X203914819Y-72107142D02*
X203962438Y-72011904D01*
X203962438Y-72011904D02*
X204010057Y-71964285D01*
X204010057Y-71964285D02*
X204105295Y-71916666D01*
X204105295Y-71916666D02*
X204248152Y-71916666D01*
X204248152Y-71916666D02*
X204343390Y-71964285D01*
X204343390Y-71964285D02*
X204391009Y-72011904D01*
X204391009Y-72011904D02*
X204438628Y-72107142D01*
X204438628Y-72107142D02*
X204438628Y-72488094D01*
X204914819Y-71440475D02*
X204914819Y-71249999D01*
X204914819Y-71249999D02*
X204867200Y-71154761D01*
X204867200Y-71154761D02*
X204819580Y-71107142D01*
X204819580Y-71107142D02*
X204676723Y-71011904D01*
X204676723Y-71011904D02*
X204486247Y-70964285D01*
X204486247Y-70964285D02*
X204105295Y-70964285D01*
X204105295Y-70964285D02*
X204010057Y-71011904D01*
X204010057Y-71011904D02*
X203962438Y-71059523D01*
X203962438Y-71059523D02*
X203914819Y-71154761D01*
X203914819Y-71154761D02*
X203914819Y-71345237D01*
X203914819Y-71345237D02*
X203962438Y-71440475D01*
X203962438Y-71440475D02*
X204010057Y-71488094D01*
X204010057Y-71488094D02*
X204105295Y-71535713D01*
X204105295Y-71535713D02*
X204343390Y-71535713D01*
X204343390Y-71535713D02*
X204438628Y-71488094D01*
X204438628Y-71488094D02*
X204486247Y-71440475D01*
X204486247Y-71440475D02*
X204533866Y-71345237D01*
X204533866Y-71345237D02*
X204533866Y-71154761D01*
X204533866Y-71154761D02*
X204486247Y-71059523D01*
X204486247Y-71059523D02*
X204438628Y-71011904D01*
X204438628Y-71011904D02*
X204343390Y-70964285D01*
X199727142Y-74449580D02*
X199679523Y-74497200D01*
X199679523Y-74497200D02*
X199536666Y-74544819D01*
X199536666Y-74544819D02*
X199441428Y-74544819D01*
X199441428Y-74544819D02*
X199298571Y-74497200D01*
X199298571Y-74497200D02*
X199203333Y-74401961D01*
X199203333Y-74401961D02*
X199155714Y-74306723D01*
X199155714Y-74306723D02*
X199108095Y-74116247D01*
X199108095Y-74116247D02*
X199108095Y-73973390D01*
X199108095Y-73973390D02*
X199155714Y-73782914D01*
X199155714Y-73782914D02*
X199203333Y-73687676D01*
X199203333Y-73687676D02*
X199298571Y-73592438D01*
X199298571Y-73592438D02*
X199441428Y-73544819D01*
X199441428Y-73544819D02*
X199536666Y-73544819D01*
X199536666Y-73544819D02*
X199679523Y-73592438D01*
X199679523Y-73592438D02*
X199727142Y-73640057D01*
X200108095Y-73640057D02*
X200155714Y-73592438D01*
X200155714Y-73592438D02*
X200250952Y-73544819D01*
X200250952Y-73544819D02*
X200489047Y-73544819D01*
X200489047Y-73544819D02*
X200584285Y-73592438D01*
X200584285Y-73592438D02*
X200631904Y-73640057D01*
X200631904Y-73640057D02*
X200679523Y-73735295D01*
X200679523Y-73735295D02*
X200679523Y-73830533D01*
X200679523Y-73830533D02*
X200631904Y-73973390D01*
X200631904Y-73973390D02*
X200060476Y-74544819D01*
X200060476Y-74544819D02*
X200679523Y-74544819D01*
X201060476Y-73640057D02*
X201108095Y-73592438D01*
X201108095Y-73592438D02*
X201203333Y-73544819D01*
X201203333Y-73544819D02*
X201441428Y-73544819D01*
X201441428Y-73544819D02*
X201536666Y-73592438D01*
X201536666Y-73592438D02*
X201584285Y-73640057D01*
X201584285Y-73640057D02*
X201631904Y-73735295D01*
X201631904Y-73735295D02*
X201631904Y-73830533D01*
X201631904Y-73830533D02*
X201584285Y-73973390D01*
X201584285Y-73973390D02*
X201012857Y-74544819D01*
X201012857Y-74544819D02*
X201631904Y-74544819D01*
X198894580Y-70592857D02*
X198942200Y-70640476D01*
X198942200Y-70640476D02*
X198989819Y-70783333D01*
X198989819Y-70783333D02*
X198989819Y-70878571D01*
X198989819Y-70878571D02*
X198942200Y-71021428D01*
X198942200Y-71021428D02*
X198846961Y-71116666D01*
X198846961Y-71116666D02*
X198751723Y-71164285D01*
X198751723Y-71164285D02*
X198561247Y-71211904D01*
X198561247Y-71211904D02*
X198418390Y-71211904D01*
X198418390Y-71211904D02*
X198227914Y-71164285D01*
X198227914Y-71164285D02*
X198132676Y-71116666D01*
X198132676Y-71116666D02*
X198037438Y-71021428D01*
X198037438Y-71021428D02*
X197989819Y-70878571D01*
X197989819Y-70878571D02*
X197989819Y-70783333D01*
X197989819Y-70783333D02*
X198037438Y-70640476D01*
X198037438Y-70640476D02*
X198085057Y-70592857D01*
X198085057Y-70211904D02*
X198037438Y-70164285D01*
X198037438Y-70164285D02*
X197989819Y-70069047D01*
X197989819Y-70069047D02*
X197989819Y-69830952D01*
X197989819Y-69830952D02*
X198037438Y-69735714D01*
X198037438Y-69735714D02*
X198085057Y-69688095D01*
X198085057Y-69688095D02*
X198180295Y-69640476D01*
X198180295Y-69640476D02*
X198275533Y-69640476D01*
X198275533Y-69640476D02*
X198418390Y-69688095D01*
X198418390Y-69688095D02*
X198989819Y-70259523D01*
X198989819Y-70259523D02*
X198989819Y-69640476D01*
X197989819Y-68735714D02*
X197989819Y-69211904D01*
X197989819Y-69211904D02*
X198466009Y-69259523D01*
X198466009Y-69259523D02*
X198418390Y-69211904D01*
X198418390Y-69211904D02*
X198370771Y-69116666D01*
X198370771Y-69116666D02*
X198370771Y-68878571D01*
X198370771Y-68878571D02*
X198418390Y-68783333D01*
X198418390Y-68783333D02*
X198466009Y-68735714D01*
X198466009Y-68735714D02*
X198561247Y-68688095D01*
X198561247Y-68688095D02*
X198799342Y-68688095D01*
X198799342Y-68688095D02*
X198894580Y-68735714D01*
X198894580Y-68735714D02*
X198942200Y-68783333D01*
X198942200Y-68783333D02*
X198989819Y-68878571D01*
X198989819Y-68878571D02*
X198989819Y-69116666D01*
X198989819Y-69116666D02*
X198942200Y-69211904D01*
X198942200Y-69211904D02*
X198894580Y-69259523D01*
X159724819Y-63543333D02*
X160439104Y-63543333D01*
X160439104Y-63543333D02*
X160581961Y-63590952D01*
X160581961Y-63590952D02*
X160677200Y-63686190D01*
X160677200Y-63686190D02*
X160724819Y-63829047D01*
X160724819Y-63829047D02*
X160724819Y-63924285D01*
X160724819Y-62543333D02*
X160724819Y-63114761D01*
X160724819Y-62829047D02*
X159724819Y-62829047D01*
X159724819Y-62829047D02*
X159867676Y-62924285D01*
X159867676Y-62924285D02*
X159962914Y-63019523D01*
X159962914Y-63019523D02*
X160010533Y-63114761D01*
X174483333Y-55734819D02*
X174150000Y-55258628D01*
X173911905Y-55734819D02*
X173911905Y-54734819D01*
X173911905Y-54734819D02*
X174292857Y-54734819D01*
X174292857Y-54734819D02*
X174388095Y-54782438D01*
X174388095Y-54782438D02*
X174435714Y-54830057D01*
X174435714Y-54830057D02*
X174483333Y-54925295D01*
X174483333Y-54925295D02*
X174483333Y-55068152D01*
X174483333Y-55068152D02*
X174435714Y-55163390D01*
X174435714Y-55163390D02*
X174388095Y-55211009D01*
X174388095Y-55211009D02*
X174292857Y-55258628D01*
X174292857Y-55258628D02*
X173911905Y-55258628D01*
X174864286Y-54830057D02*
X174911905Y-54782438D01*
X174911905Y-54782438D02*
X175007143Y-54734819D01*
X175007143Y-54734819D02*
X175245238Y-54734819D01*
X175245238Y-54734819D02*
X175340476Y-54782438D01*
X175340476Y-54782438D02*
X175388095Y-54830057D01*
X175388095Y-54830057D02*
X175435714Y-54925295D01*
X175435714Y-54925295D02*
X175435714Y-55020533D01*
X175435714Y-55020533D02*
X175388095Y-55163390D01*
X175388095Y-55163390D02*
X174816667Y-55734819D01*
X174816667Y-55734819D02*
X175435714Y-55734819D01*
X186103333Y-43909580D02*
X186055714Y-43957200D01*
X186055714Y-43957200D02*
X185912857Y-44004819D01*
X185912857Y-44004819D02*
X185817619Y-44004819D01*
X185817619Y-44004819D02*
X185674762Y-43957200D01*
X185674762Y-43957200D02*
X185579524Y-43861961D01*
X185579524Y-43861961D02*
X185531905Y-43766723D01*
X185531905Y-43766723D02*
X185484286Y-43576247D01*
X185484286Y-43576247D02*
X185484286Y-43433390D01*
X185484286Y-43433390D02*
X185531905Y-43242914D01*
X185531905Y-43242914D02*
X185579524Y-43147676D01*
X185579524Y-43147676D02*
X185674762Y-43052438D01*
X185674762Y-43052438D02*
X185817619Y-43004819D01*
X185817619Y-43004819D02*
X185912857Y-43004819D01*
X185912857Y-43004819D02*
X186055714Y-43052438D01*
X186055714Y-43052438D02*
X186103333Y-43100057D01*
X186674762Y-43433390D02*
X186579524Y-43385771D01*
X186579524Y-43385771D02*
X186531905Y-43338152D01*
X186531905Y-43338152D02*
X186484286Y-43242914D01*
X186484286Y-43242914D02*
X186484286Y-43195295D01*
X186484286Y-43195295D02*
X186531905Y-43100057D01*
X186531905Y-43100057D02*
X186579524Y-43052438D01*
X186579524Y-43052438D02*
X186674762Y-43004819D01*
X186674762Y-43004819D02*
X186865238Y-43004819D01*
X186865238Y-43004819D02*
X186960476Y-43052438D01*
X186960476Y-43052438D02*
X187008095Y-43100057D01*
X187008095Y-43100057D02*
X187055714Y-43195295D01*
X187055714Y-43195295D02*
X187055714Y-43242914D01*
X187055714Y-43242914D02*
X187008095Y-43338152D01*
X187008095Y-43338152D02*
X186960476Y-43385771D01*
X186960476Y-43385771D02*
X186865238Y-43433390D01*
X186865238Y-43433390D02*
X186674762Y-43433390D01*
X186674762Y-43433390D02*
X186579524Y-43481009D01*
X186579524Y-43481009D02*
X186531905Y-43528628D01*
X186531905Y-43528628D02*
X186484286Y-43623866D01*
X186484286Y-43623866D02*
X186484286Y-43814342D01*
X186484286Y-43814342D02*
X186531905Y-43909580D01*
X186531905Y-43909580D02*
X186579524Y-43957200D01*
X186579524Y-43957200D02*
X186674762Y-44004819D01*
X186674762Y-44004819D02*
X186865238Y-44004819D01*
X186865238Y-44004819D02*
X186960476Y-43957200D01*
X186960476Y-43957200D02*
X187008095Y-43909580D01*
X187008095Y-43909580D02*
X187055714Y-43814342D01*
X187055714Y-43814342D02*
X187055714Y-43623866D01*
X187055714Y-43623866D02*
X187008095Y-43528628D01*
X187008095Y-43528628D02*
X186960476Y-43481009D01*
X186960476Y-43481009D02*
X186865238Y-43433390D01*
X199637142Y-53109580D02*
X199589523Y-53157200D01*
X199589523Y-53157200D02*
X199446666Y-53204819D01*
X199446666Y-53204819D02*
X199351428Y-53204819D01*
X199351428Y-53204819D02*
X199208571Y-53157200D01*
X199208571Y-53157200D02*
X199113333Y-53061961D01*
X199113333Y-53061961D02*
X199065714Y-52966723D01*
X199065714Y-52966723D02*
X199018095Y-52776247D01*
X199018095Y-52776247D02*
X199018095Y-52633390D01*
X199018095Y-52633390D02*
X199065714Y-52442914D01*
X199065714Y-52442914D02*
X199113333Y-52347676D01*
X199113333Y-52347676D02*
X199208571Y-52252438D01*
X199208571Y-52252438D02*
X199351428Y-52204819D01*
X199351428Y-52204819D02*
X199446666Y-52204819D01*
X199446666Y-52204819D02*
X199589523Y-52252438D01*
X199589523Y-52252438D02*
X199637142Y-52300057D01*
X200589523Y-53204819D02*
X200018095Y-53204819D01*
X200303809Y-53204819D02*
X200303809Y-52204819D01*
X200303809Y-52204819D02*
X200208571Y-52347676D01*
X200208571Y-52347676D02*
X200113333Y-52442914D01*
X200113333Y-52442914D02*
X200018095Y-52490533D01*
X201541904Y-53204819D02*
X200970476Y-53204819D01*
X201256190Y-53204819D02*
X201256190Y-52204819D01*
X201256190Y-52204819D02*
X201160952Y-52347676D01*
X201160952Y-52347676D02*
X201065714Y-52442914D01*
X201065714Y-52442914D02*
X200970476Y-52490533D01*
X180054819Y-42243333D02*
X180769104Y-42243333D01*
X180769104Y-42243333D02*
X180911961Y-42290952D01*
X180911961Y-42290952D02*
X181007200Y-42386190D01*
X181007200Y-42386190D02*
X181054819Y-42529047D01*
X181054819Y-42529047D02*
X181054819Y-42624285D01*
X181054819Y-41767142D02*
X180054819Y-41767142D01*
X180054819Y-41767142D02*
X180054819Y-41386190D01*
X180054819Y-41386190D02*
X180102438Y-41290952D01*
X180102438Y-41290952D02*
X180150057Y-41243333D01*
X180150057Y-41243333D02*
X180245295Y-41195714D01*
X180245295Y-41195714D02*
X180388152Y-41195714D01*
X180388152Y-41195714D02*
X180483390Y-41243333D01*
X180483390Y-41243333D02*
X180531009Y-41290952D01*
X180531009Y-41290952D02*
X180578628Y-41386190D01*
X180578628Y-41386190D02*
X180578628Y-41767142D01*
X180054819Y-40862380D02*
X180054819Y-40243333D01*
X180054819Y-40243333D02*
X180435771Y-40576666D01*
X180435771Y-40576666D02*
X180435771Y-40433809D01*
X180435771Y-40433809D02*
X180483390Y-40338571D01*
X180483390Y-40338571D02*
X180531009Y-40290952D01*
X180531009Y-40290952D02*
X180626247Y-40243333D01*
X180626247Y-40243333D02*
X180864342Y-40243333D01*
X180864342Y-40243333D02*
X180959580Y-40290952D01*
X180959580Y-40290952D02*
X181007200Y-40338571D01*
X181007200Y-40338571D02*
X181054819Y-40433809D01*
X181054819Y-40433809D02*
X181054819Y-40719523D01*
X181054819Y-40719523D02*
X181007200Y-40814761D01*
X181007200Y-40814761D02*
X180959580Y-40862380D01*
X174067142Y-60164819D02*
X173733809Y-59688628D01*
X173495714Y-60164819D02*
X173495714Y-59164819D01*
X173495714Y-59164819D02*
X173876666Y-59164819D01*
X173876666Y-59164819D02*
X173971904Y-59212438D01*
X173971904Y-59212438D02*
X174019523Y-59260057D01*
X174019523Y-59260057D02*
X174067142Y-59355295D01*
X174067142Y-59355295D02*
X174067142Y-59498152D01*
X174067142Y-59498152D02*
X174019523Y-59593390D01*
X174019523Y-59593390D02*
X173971904Y-59641009D01*
X173971904Y-59641009D02*
X173876666Y-59688628D01*
X173876666Y-59688628D02*
X173495714Y-59688628D01*
X175019523Y-60164819D02*
X174448095Y-60164819D01*
X174733809Y-60164819D02*
X174733809Y-59164819D01*
X174733809Y-59164819D02*
X174638571Y-59307676D01*
X174638571Y-59307676D02*
X174543333Y-59402914D01*
X174543333Y-59402914D02*
X174448095Y-59450533D01*
X175971904Y-60164819D02*
X175400476Y-60164819D01*
X175686190Y-60164819D02*
X175686190Y-59164819D01*
X175686190Y-59164819D02*
X175590952Y-59307676D01*
X175590952Y-59307676D02*
X175495714Y-59402914D01*
X175495714Y-59402914D02*
X175400476Y-59450533D01*
X192859580Y-52522857D02*
X192907200Y-52570476D01*
X192907200Y-52570476D02*
X192954819Y-52713333D01*
X192954819Y-52713333D02*
X192954819Y-52808571D01*
X192954819Y-52808571D02*
X192907200Y-52951428D01*
X192907200Y-52951428D02*
X192811961Y-53046666D01*
X192811961Y-53046666D02*
X192716723Y-53094285D01*
X192716723Y-53094285D02*
X192526247Y-53141904D01*
X192526247Y-53141904D02*
X192383390Y-53141904D01*
X192383390Y-53141904D02*
X192192914Y-53094285D01*
X192192914Y-53094285D02*
X192097676Y-53046666D01*
X192097676Y-53046666D02*
X192002438Y-52951428D01*
X192002438Y-52951428D02*
X191954819Y-52808571D01*
X191954819Y-52808571D02*
X191954819Y-52713333D01*
X191954819Y-52713333D02*
X192002438Y-52570476D01*
X192002438Y-52570476D02*
X192050057Y-52522857D01*
X192954819Y-51570476D02*
X192954819Y-52141904D01*
X192954819Y-51856190D02*
X191954819Y-51856190D01*
X191954819Y-51856190D02*
X192097676Y-51951428D01*
X192097676Y-51951428D02*
X192192914Y-52046666D01*
X192192914Y-52046666D02*
X192240533Y-52141904D01*
X192050057Y-51189523D02*
X192002438Y-51141904D01*
X192002438Y-51141904D02*
X191954819Y-51046666D01*
X191954819Y-51046666D02*
X191954819Y-50808571D01*
X191954819Y-50808571D02*
X192002438Y-50713333D01*
X192002438Y-50713333D02*
X192050057Y-50665714D01*
X192050057Y-50665714D02*
X192145295Y-50618095D01*
X192145295Y-50618095D02*
X192240533Y-50618095D01*
X192240533Y-50618095D02*
X192383390Y-50665714D01*
X192383390Y-50665714D02*
X192954819Y-51237142D01*
X192954819Y-51237142D02*
X192954819Y-50618095D01*
X189739580Y-54622857D02*
X189787200Y-54670476D01*
X189787200Y-54670476D02*
X189834819Y-54813333D01*
X189834819Y-54813333D02*
X189834819Y-54908571D01*
X189834819Y-54908571D02*
X189787200Y-55051428D01*
X189787200Y-55051428D02*
X189691961Y-55146666D01*
X189691961Y-55146666D02*
X189596723Y-55194285D01*
X189596723Y-55194285D02*
X189406247Y-55241904D01*
X189406247Y-55241904D02*
X189263390Y-55241904D01*
X189263390Y-55241904D02*
X189072914Y-55194285D01*
X189072914Y-55194285D02*
X188977676Y-55146666D01*
X188977676Y-55146666D02*
X188882438Y-55051428D01*
X188882438Y-55051428D02*
X188834819Y-54908571D01*
X188834819Y-54908571D02*
X188834819Y-54813333D01*
X188834819Y-54813333D02*
X188882438Y-54670476D01*
X188882438Y-54670476D02*
X188930057Y-54622857D01*
X189834819Y-53670476D02*
X189834819Y-54241904D01*
X189834819Y-53956190D02*
X188834819Y-53956190D01*
X188834819Y-53956190D02*
X188977676Y-54051428D01*
X188977676Y-54051428D02*
X189072914Y-54146666D01*
X189072914Y-54146666D02*
X189120533Y-54241904D01*
X188834819Y-53051428D02*
X188834819Y-52956190D01*
X188834819Y-52956190D02*
X188882438Y-52860952D01*
X188882438Y-52860952D02*
X188930057Y-52813333D01*
X188930057Y-52813333D02*
X189025295Y-52765714D01*
X189025295Y-52765714D02*
X189215771Y-52718095D01*
X189215771Y-52718095D02*
X189453866Y-52718095D01*
X189453866Y-52718095D02*
X189644342Y-52765714D01*
X189644342Y-52765714D02*
X189739580Y-52813333D01*
X189739580Y-52813333D02*
X189787200Y-52860952D01*
X189787200Y-52860952D02*
X189834819Y-52956190D01*
X189834819Y-52956190D02*
X189834819Y-53051428D01*
X189834819Y-53051428D02*
X189787200Y-53146666D01*
X189787200Y-53146666D02*
X189739580Y-53194285D01*
X189739580Y-53194285D02*
X189644342Y-53241904D01*
X189644342Y-53241904D02*
X189453866Y-53289523D01*
X189453866Y-53289523D02*
X189215771Y-53289523D01*
X189215771Y-53289523D02*
X189025295Y-53241904D01*
X189025295Y-53241904D02*
X188930057Y-53194285D01*
X188930057Y-53194285D02*
X188882438Y-53146666D01*
X188882438Y-53146666D02*
X188834819Y-53051428D01*
X176607142Y-47519580D02*
X176559523Y-47567200D01*
X176559523Y-47567200D02*
X176416666Y-47614819D01*
X176416666Y-47614819D02*
X176321428Y-47614819D01*
X176321428Y-47614819D02*
X176178571Y-47567200D01*
X176178571Y-47567200D02*
X176083333Y-47471961D01*
X176083333Y-47471961D02*
X176035714Y-47376723D01*
X176035714Y-47376723D02*
X175988095Y-47186247D01*
X175988095Y-47186247D02*
X175988095Y-47043390D01*
X175988095Y-47043390D02*
X176035714Y-46852914D01*
X176035714Y-46852914D02*
X176083333Y-46757676D01*
X176083333Y-46757676D02*
X176178571Y-46662438D01*
X176178571Y-46662438D02*
X176321428Y-46614819D01*
X176321428Y-46614819D02*
X176416666Y-46614819D01*
X176416666Y-46614819D02*
X176559523Y-46662438D01*
X176559523Y-46662438D02*
X176607142Y-46710057D01*
X177464285Y-46948152D02*
X177464285Y-47614819D01*
X177226190Y-46567200D02*
X176988095Y-47281485D01*
X176988095Y-47281485D02*
X177607142Y-47281485D01*
X177940476Y-46710057D02*
X177988095Y-46662438D01*
X177988095Y-46662438D02*
X178083333Y-46614819D01*
X178083333Y-46614819D02*
X178321428Y-46614819D01*
X178321428Y-46614819D02*
X178416666Y-46662438D01*
X178416666Y-46662438D02*
X178464285Y-46710057D01*
X178464285Y-46710057D02*
X178511904Y-46805295D01*
X178511904Y-46805295D02*
X178511904Y-46900533D01*
X178511904Y-46900533D02*
X178464285Y-47043390D01*
X178464285Y-47043390D02*
X177892857Y-47614819D01*
X177892857Y-47614819D02*
X178511904Y-47614819D01*
X181259195Y-56914819D02*
X181259195Y-57724342D01*
X181259195Y-57724342D02*
X181306814Y-57819580D01*
X181306814Y-57819580D02*
X181354433Y-57867200D01*
X181354433Y-57867200D02*
X181449671Y-57914819D01*
X181449671Y-57914819D02*
X181640147Y-57914819D01*
X181640147Y-57914819D02*
X181735385Y-57867200D01*
X181735385Y-57867200D02*
X181783004Y-57819580D01*
X181783004Y-57819580D02*
X181830623Y-57724342D01*
X181830623Y-57724342D02*
X181830623Y-56914819D01*
X182830623Y-57914819D02*
X182259195Y-57914819D01*
X182544909Y-57914819D02*
X182544909Y-56914819D01*
X182544909Y-56914819D02*
X182449671Y-57057676D01*
X182449671Y-57057676D02*
X182354433Y-57152914D01*
X182354433Y-57152914D02*
X182259195Y-57200533D01*
X179531900Y-55914819D02*
X179531900Y-56152914D01*
X179293805Y-56057676D02*
X179531900Y-56152914D01*
X179531900Y-56152914D02*
X179769995Y-56057676D01*
X179389043Y-56343390D02*
X179531900Y-56152914D01*
X179531900Y-56152914D02*
X179674757Y-56343390D01*
X179531900Y-55914819D02*
X179531900Y-56152914D01*
X179293805Y-56057676D02*
X179531900Y-56152914D01*
X179531900Y-56152914D02*
X179769995Y-56057676D01*
X179389043Y-56343390D02*
X179531900Y-56152914D01*
X179531900Y-56152914D02*
X179674757Y-56343390D01*
X190806666Y-36644819D02*
X190806666Y-37359104D01*
X190806666Y-37359104D02*
X190759047Y-37501961D01*
X190759047Y-37501961D02*
X190663809Y-37597200D01*
X190663809Y-37597200D02*
X190520952Y-37644819D01*
X190520952Y-37644819D02*
X190425714Y-37644819D01*
X191282857Y-37644819D02*
X191282857Y-36644819D01*
X191282857Y-36644819D02*
X191663809Y-36644819D01*
X191663809Y-36644819D02*
X191759047Y-36692438D01*
X191759047Y-36692438D02*
X191806666Y-36740057D01*
X191806666Y-36740057D02*
X191854285Y-36835295D01*
X191854285Y-36835295D02*
X191854285Y-36978152D01*
X191854285Y-36978152D02*
X191806666Y-37073390D01*
X191806666Y-37073390D02*
X191759047Y-37121009D01*
X191759047Y-37121009D02*
X191663809Y-37168628D01*
X191663809Y-37168628D02*
X191282857Y-37168628D01*
X192806666Y-37644819D02*
X192235238Y-37644819D01*
X192520952Y-37644819D02*
X192520952Y-36644819D01*
X192520952Y-36644819D02*
X192425714Y-36787676D01*
X192425714Y-36787676D02*
X192330476Y-36882914D01*
X192330476Y-36882914D02*
X192235238Y-36930533D01*
X160897142Y-48479580D02*
X160849523Y-48527200D01*
X160849523Y-48527200D02*
X160706666Y-48574819D01*
X160706666Y-48574819D02*
X160611428Y-48574819D01*
X160611428Y-48574819D02*
X160468571Y-48527200D01*
X160468571Y-48527200D02*
X160373333Y-48431961D01*
X160373333Y-48431961D02*
X160325714Y-48336723D01*
X160325714Y-48336723D02*
X160278095Y-48146247D01*
X160278095Y-48146247D02*
X160278095Y-48003390D01*
X160278095Y-48003390D02*
X160325714Y-47812914D01*
X160325714Y-47812914D02*
X160373333Y-47717676D01*
X160373333Y-47717676D02*
X160468571Y-47622438D01*
X160468571Y-47622438D02*
X160611428Y-47574819D01*
X160611428Y-47574819D02*
X160706666Y-47574819D01*
X160706666Y-47574819D02*
X160849523Y-47622438D01*
X160849523Y-47622438D02*
X160897142Y-47670057D01*
X161754285Y-47908152D02*
X161754285Y-48574819D01*
X161516190Y-47527200D02*
X161278095Y-48241485D01*
X161278095Y-48241485D02*
X161897142Y-48241485D01*
X162468571Y-47574819D02*
X162563809Y-47574819D01*
X162563809Y-47574819D02*
X162659047Y-47622438D01*
X162659047Y-47622438D02*
X162706666Y-47670057D01*
X162706666Y-47670057D02*
X162754285Y-47765295D01*
X162754285Y-47765295D02*
X162801904Y-47955771D01*
X162801904Y-47955771D02*
X162801904Y-48193866D01*
X162801904Y-48193866D02*
X162754285Y-48384342D01*
X162754285Y-48384342D02*
X162706666Y-48479580D01*
X162706666Y-48479580D02*
X162659047Y-48527200D01*
X162659047Y-48527200D02*
X162563809Y-48574819D01*
X162563809Y-48574819D02*
X162468571Y-48574819D01*
X162468571Y-48574819D02*
X162373333Y-48527200D01*
X162373333Y-48527200D02*
X162325714Y-48479580D01*
X162325714Y-48479580D02*
X162278095Y-48384342D01*
X162278095Y-48384342D02*
X162230476Y-48193866D01*
X162230476Y-48193866D02*
X162230476Y-47955771D01*
X162230476Y-47955771D02*
X162278095Y-47765295D01*
X162278095Y-47765295D02*
X162325714Y-47670057D01*
X162325714Y-47670057D02*
X162373333Y-47622438D01*
X162373333Y-47622438D02*
X162468571Y-47574819D01*
X200436666Y-41514819D02*
X200436666Y-42229104D01*
X200436666Y-42229104D02*
X200389047Y-42371961D01*
X200389047Y-42371961D02*
X200293809Y-42467200D01*
X200293809Y-42467200D02*
X200150952Y-42514819D01*
X200150952Y-42514819D02*
X200055714Y-42514819D01*
X201341428Y-41848152D02*
X201341428Y-42514819D01*
X201103333Y-41467200D02*
X200865238Y-42181485D01*
X200865238Y-42181485D02*
X201484285Y-42181485D01*
X166597142Y-54379580D02*
X166549523Y-54427200D01*
X166549523Y-54427200D02*
X166406666Y-54474819D01*
X166406666Y-54474819D02*
X166311428Y-54474819D01*
X166311428Y-54474819D02*
X166168571Y-54427200D01*
X166168571Y-54427200D02*
X166073333Y-54331961D01*
X166073333Y-54331961D02*
X166025714Y-54236723D01*
X166025714Y-54236723D02*
X165978095Y-54046247D01*
X165978095Y-54046247D02*
X165978095Y-53903390D01*
X165978095Y-53903390D02*
X166025714Y-53712914D01*
X166025714Y-53712914D02*
X166073333Y-53617676D01*
X166073333Y-53617676D02*
X166168571Y-53522438D01*
X166168571Y-53522438D02*
X166311428Y-53474819D01*
X166311428Y-53474819D02*
X166406666Y-53474819D01*
X166406666Y-53474819D02*
X166549523Y-53522438D01*
X166549523Y-53522438D02*
X166597142Y-53570057D01*
X166978095Y-53570057D02*
X167025714Y-53522438D01*
X167025714Y-53522438D02*
X167120952Y-53474819D01*
X167120952Y-53474819D02*
X167359047Y-53474819D01*
X167359047Y-53474819D02*
X167454285Y-53522438D01*
X167454285Y-53522438D02*
X167501904Y-53570057D01*
X167501904Y-53570057D02*
X167549523Y-53665295D01*
X167549523Y-53665295D02*
X167549523Y-53760533D01*
X167549523Y-53760533D02*
X167501904Y-53903390D01*
X167501904Y-53903390D02*
X166930476Y-54474819D01*
X166930476Y-54474819D02*
X167549523Y-54474819D01*
X168025714Y-54474819D02*
X168216190Y-54474819D01*
X168216190Y-54474819D02*
X168311428Y-54427200D01*
X168311428Y-54427200D02*
X168359047Y-54379580D01*
X168359047Y-54379580D02*
X168454285Y-54236723D01*
X168454285Y-54236723D02*
X168501904Y-54046247D01*
X168501904Y-54046247D02*
X168501904Y-53665295D01*
X168501904Y-53665295D02*
X168454285Y-53570057D01*
X168454285Y-53570057D02*
X168406666Y-53522438D01*
X168406666Y-53522438D02*
X168311428Y-53474819D01*
X168311428Y-53474819D02*
X168120952Y-53474819D01*
X168120952Y-53474819D02*
X168025714Y-53522438D01*
X168025714Y-53522438D02*
X167978095Y-53570057D01*
X167978095Y-53570057D02*
X167930476Y-53665295D01*
X167930476Y-53665295D02*
X167930476Y-53903390D01*
X167930476Y-53903390D02*
X167978095Y-53998628D01*
X167978095Y-53998628D02*
X168025714Y-54046247D01*
X168025714Y-54046247D02*
X168120952Y-54093866D01*
X168120952Y-54093866D02*
X168311428Y-54093866D01*
X168311428Y-54093866D02*
X168406666Y-54046247D01*
X168406666Y-54046247D02*
X168454285Y-53998628D01*
X168454285Y-53998628D02*
X168501904Y-53903390D01*
X172109580Y-54757856D02*
X172157200Y-54805475D01*
X172157200Y-54805475D02*
X172204819Y-54948332D01*
X172204819Y-54948332D02*
X172204819Y-55043570D01*
X172204819Y-55043570D02*
X172157200Y-55186427D01*
X172157200Y-55186427D02*
X172061961Y-55281665D01*
X172061961Y-55281665D02*
X171966723Y-55329284D01*
X171966723Y-55329284D02*
X171776247Y-55376903D01*
X171776247Y-55376903D02*
X171633390Y-55376903D01*
X171633390Y-55376903D02*
X171442914Y-55329284D01*
X171442914Y-55329284D02*
X171347676Y-55281665D01*
X171347676Y-55281665D02*
X171252438Y-55186427D01*
X171252438Y-55186427D02*
X171204819Y-55043570D01*
X171204819Y-55043570D02*
X171204819Y-54948332D01*
X171204819Y-54948332D02*
X171252438Y-54805475D01*
X171252438Y-54805475D02*
X171300057Y-54757856D01*
X171204819Y-54424522D02*
X171204819Y-53805475D01*
X171204819Y-53805475D02*
X171585771Y-54138808D01*
X171585771Y-54138808D02*
X171585771Y-53995951D01*
X171585771Y-53995951D02*
X171633390Y-53900713D01*
X171633390Y-53900713D02*
X171681009Y-53853094D01*
X171681009Y-53853094D02*
X171776247Y-53805475D01*
X171776247Y-53805475D02*
X172014342Y-53805475D01*
X172014342Y-53805475D02*
X172109580Y-53853094D01*
X172109580Y-53853094D02*
X172157200Y-53900713D01*
X172157200Y-53900713D02*
X172204819Y-53995951D01*
X172204819Y-53995951D02*
X172204819Y-54281665D01*
X172204819Y-54281665D02*
X172157200Y-54376903D01*
X172157200Y-54376903D02*
X172109580Y-54424522D01*
X171204819Y-52948332D02*
X171204819Y-53138808D01*
X171204819Y-53138808D02*
X171252438Y-53234046D01*
X171252438Y-53234046D02*
X171300057Y-53281665D01*
X171300057Y-53281665D02*
X171442914Y-53376903D01*
X171442914Y-53376903D02*
X171633390Y-53424522D01*
X171633390Y-53424522D02*
X172014342Y-53424522D01*
X172014342Y-53424522D02*
X172109580Y-53376903D01*
X172109580Y-53376903D02*
X172157200Y-53329284D01*
X172157200Y-53329284D02*
X172204819Y-53234046D01*
X172204819Y-53234046D02*
X172204819Y-53043570D01*
X172204819Y-53043570D02*
X172157200Y-52948332D01*
X172157200Y-52948332D02*
X172109580Y-52900713D01*
X172109580Y-52900713D02*
X172014342Y-52853094D01*
X172014342Y-52853094D02*
X171776247Y-52853094D01*
X171776247Y-52853094D02*
X171681009Y-52900713D01*
X171681009Y-52900713D02*
X171633390Y-52948332D01*
X171633390Y-52948332D02*
X171585771Y-53043570D01*
X171585771Y-53043570D02*
X171585771Y-53234046D01*
X171585771Y-53234046D02*
X171633390Y-53329284D01*
X171633390Y-53329284D02*
X171681009Y-53376903D01*
X171681009Y-53376903D02*
X171776247Y-53424522D01*
X193669580Y-59299166D02*
X193717200Y-59346785D01*
X193717200Y-59346785D02*
X193764819Y-59489642D01*
X193764819Y-59489642D02*
X193764819Y-59584880D01*
X193764819Y-59584880D02*
X193717200Y-59727737D01*
X193717200Y-59727737D02*
X193621961Y-59822975D01*
X193621961Y-59822975D02*
X193526723Y-59870594D01*
X193526723Y-59870594D02*
X193336247Y-59918213D01*
X193336247Y-59918213D02*
X193193390Y-59918213D01*
X193193390Y-59918213D02*
X193002914Y-59870594D01*
X193002914Y-59870594D02*
X192907676Y-59822975D01*
X192907676Y-59822975D02*
X192812438Y-59727737D01*
X192812438Y-59727737D02*
X192764819Y-59584880D01*
X192764819Y-59584880D02*
X192764819Y-59489642D01*
X192764819Y-59489642D02*
X192812438Y-59346785D01*
X192812438Y-59346785D02*
X192860057Y-59299166D01*
X192860057Y-58918213D02*
X192812438Y-58870594D01*
X192812438Y-58870594D02*
X192764819Y-58775356D01*
X192764819Y-58775356D02*
X192764819Y-58537261D01*
X192764819Y-58537261D02*
X192812438Y-58442023D01*
X192812438Y-58442023D02*
X192860057Y-58394404D01*
X192860057Y-58394404D02*
X192955295Y-58346785D01*
X192955295Y-58346785D02*
X193050533Y-58346785D01*
X193050533Y-58346785D02*
X193193390Y-58394404D01*
X193193390Y-58394404D02*
X193764819Y-58965832D01*
X193764819Y-58965832D02*
X193764819Y-58346785D01*
X182889580Y-64026666D02*
X182937200Y-64074285D01*
X182937200Y-64074285D02*
X182984819Y-64217142D01*
X182984819Y-64217142D02*
X182984819Y-64312380D01*
X182984819Y-64312380D02*
X182937200Y-64455237D01*
X182937200Y-64455237D02*
X182841961Y-64550475D01*
X182841961Y-64550475D02*
X182746723Y-64598094D01*
X182746723Y-64598094D02*
X182556247Y-64645713D01*
X182556247Y-64645713D02*
X182413390Y-64645713D01*
X182413390Y-64645713D02*
X182222914Y-64598094D01*
X182222914Y-64598094D02*
X182127676Y-64550475D01*
X182127676Y-64550475D02*
X182032438Y-64455237D01*
X182032438Y-64455237D02*
X181984819Y-64312380D01*
X181984819Y-64312380D02*
X181984819Y-64217142D01*
X181984819Y-64217142D02*
X182032438Y-64074285D01*
X182032438Y-64074285D02*
X182080057Y-64026666D01*
X182984819Y-63074285D02*
X182984819Y-63645713D01*
X182984819Y-63359999D02*
X181984819Y-63359999D01*
X181984819Y-63359999D02*
X182127676Y-63455237D01*
X182127676Y-63455237D02*
X182222914Y-63550475D01*
X182222914Y-63550475D02*
X182270533Y-63645713D01*
X185087142Y-71449580D02*
X185039523Y-71497200D01*
X185039523Y-71497200D02*
X184896666Y-71544819D01*
X184896666Y-71544819D02*
X184801428Y-71544819D01*
X184801428Y-71544819D02*
X184658571Y-71497200D01*
X184658571Y-71497200D02*
X184563333Y-71401961D01*
X184563333Y-71401961D02*
X184515714Y-71306723D01*
X184515714Y-71306723D02*
X184468095Y-71116247D01*
X184468095Y-71116247D02*
X184468095Y-70973390D01*
X184468095Y-70973390D02*
X184515714Y-70782914D01*
X184515714Y-70782914D02*
X184563333Y-70687676D01*
X184563333Y-70687676D02*
X184658571Y-70592438D01*
X184658571Y-70592438D02*
X184801428Y-70544819D01*
X184801428Y-70544819D02*
X184896666Y-70544819D01*
X184896666Y-70544819D02*
X185039523Y-70592438D01*
X185039523Y-70592438D02*
X185087142Y-70640057D01*
X185944285Y-70878152D02*
X185944285Y-71544819D01*
X185706190Y-70497200D02*
X185468095Y-71211485D01*
X185468095Y-71211485D02*
X186087142Y-71211485D01*
X186896666Y-70878152D02*
X186896666Y-71544819D01*
X186658571Y-70497200D02*
X186420476Y-71211485D01*
X186420476Y-71211485D02*
X187039523Y-71211485D01*
X165719819Y-44993333D02*
X166434104Y-44993333D01*
X166434104Y-44993333D02*
X166576961Y-45040952D01*
X166576961Y-45040952D02*
X166672200Y-45136190D01*
X166672200Y-45136190D02*
X166719819Y-45279047D01*
X166719819Y-45279047D02*
X166719819Y-45374285D01*
X165719819Y-44612380D02*
X165719819Y-43945714D01*
X165719819Y-43945714D02*
X166719819Y-44374285D01*
X195450179Y-48959245D02*
X194640656Y-48959245D01*
X194640656Y-48959245D02*
X194545418Y-49006864D01*
X194545418Y-49006864D02*
X194497799Y-49054483D01*
X194497799Y-49054483D02*
X194450179Y-49149721D01*
X194450179Y-49149721D02*
X194450179Y-49340197D01*
X194450179Y-49340197D02*
X194497799Y-49435435D01*
X194497799Y-49435435D02*
X194545418Y-49483054D01*
X194545418Y-49483054D02*
X194640656Y-49530673D01*
X194640656Y-49530673D02*
X195450179Y-49530673D01*
X195450179Y-50435435D02*
X195450179Y-50244959D01*
X195450179Y-50244959D02*
X195402560Y-50149721D01*
X195402560Y-50149721D02*
X195354941Y-50102102D01*
X195354941Y-50102102D02*
X195212084Y-50006864D01*
X195212084Y-50006864D02*
X195021608Y-49959245D01*
X195021608Y-49959245D02*
X194640656Y-49959245D01*
X194640656Y-49959245D02*
X194545418Y-50006864D01*
X194545418Y-50006864D02*
X194497799Y-50054483D01*
X194497799Y-50054483D02*
X194450179Y-50149721D01*
X194450179Y-50149721D02*
X194450179Y-50340197D01*
X194450179Y-50340197D02*
X194497799Y-50435435D01*
X194497799Y-50435435D02*
X194545418Y-50483054D01*
X194545418Y-50483054D02*
X194640656Y-50530673D01*
X194640656Y-50530673D02*
X194878751Y-50530673D01*
X194878751Y-50530673D02*
X194973989Y-50483054D01*
X194973989Y-50483054D02*
X195021608Y-50435435D01*
X195021608Y-50435435D02*
X195069227Y-50340197D01*
X195069227Y-50340197D02*
X195069227Y-50149721D01*
X195069227Y-50149721D02*
X195021608Y-50054483D01*
X195021608Y-50054483D02*
X194973989Y-50006864D01*
X194973989Y-50006864D02*
X194878751Y-49959245D01*
X196909618Y-47238299D02*
X197147713Y-47238299D01*
X197052475Y-47476394D02*
X197147713Y-47238299D01*
X197147713Y-47238299D02*
X197052475Y-47000204D01*
X197338189Y-47381156D02*
X197147713Y-47238299D01*
X197147713Y-47238299D02*
X197338189Y-47095442D01*
X197999979Y-47238300D02*
X197761884Y-47238300D01*
X197857122Y-47000205D02*
X197761884Y-47238300D01*
X197761884Y-47238300D02*
X197857122Y-47476395D01*
X197571408Y-47095443D02*
X197761884Y-47238300D01*
X197761884Y-47238300D02*
X197571408Y-47381157D01*
X203056666Y-63404819D02*
X203056666Y-64119104D01*
X203056666Y-64119104D02*
X203009047Y-64261961D01*
X203009047Y-64261961D02*
X202913809Y-64357200D01*
X202913809Y-64357200D02*
X202770952Y-64404819D01*
X202770952Y-64404819D02*
X202675714Y-64404819D01*
X204009047Y-63404819D02*
X203532857Y-63404819D01*
X203532857Y-63404819D02*
X203485238Y-63881009D01*
X203485238Y-63881009D02*
X203532857Y-63833390D01*
X203532857Y-63833390D02*
X203628095Y-63785771D01*
X203628095Y-63785771D02*
X203866190Y-63785771D01*
X203866190Y-63785771D02*
X203961428Y-63833390D01*
X203961428Y-63833390D02*
X204009047Y-63881009D01*
X204009047Y-63881009D02*
X204056666Y-63976247D01*
X204056666Y-63976247D02*
X204056666Y-64214342D01*
X204056666Y-64214342D02*
X204009047Y-64309580D01*
X204009047Y-64309580D02*
X203961428Y-64357200D01*
X203961428Y-64357200D02*
X203866190Y-64404819D01*
X203866190Y-64404819D02*
X203628095Y-64404819D01*
X203628095Y-64404819D02*
X203532857Y-64357200D01*
X203532857Y-64357200D02*
X203485238Y-64309580D01*
X190574819Y-75976666D02*
X190098628Y-76309999D01*
X190574819Y-76548094D02*
X189574819Y-76548094D01*
X189574819Y-76548094D02*
X189574819Y-76167142D01*
X189574819Y-76167142D02*
X189622438Y-76071904D01*
X189622438Y-76071904D02*
X189670057Y-76024285D01*
X189670057Y-76024285D02*
X189765295Y-75976666D01*
X189765295Y-75976666D02*
X189908152Y-75976666D01*
X189908152Y-75976666D02*
X190003390Y-76024285D01*
X190003390Y-76024285D02*
X190051009Y-76071904D01*
X190051009Y-76071904D02*
X190098628Y-76167142D01*
X190098628Y-76167142D02*
X190098628Y-76548094D01*
X189574819Y-75119523D02*
X189574819Y-75309999D01*
X189574819Y-75309999D02*
X189622438Y-75405237D01*
X189622438Y-75405237D02*
X189670057Y-75452856D01*
X189670057Y-75452856D02*
X189812914Y-75548094D01*
X189812914Y-75548094D02*
X190003390Y-75595713D01*
X190003390Y-75595713D02*
X190384342Y-75595713D01*
X190384342Y-75595713D02*
X190479580Y-75548094D01*
X190479580Y-75548094D02*
X190527200Y-75500475D01*
X190527200Y-75500475D02*
X190574819Y-75405237D01*
X190574819Y-75405237D02*
X190574819Y-75214761D01*
X190574819Y-75214761D02*
X190527200Y-75119523D01*
X190527200Y-75119523D02*
X190479580Y-75071904D01*
X190479580Y-75071904D02*
X190384342Y-75024285D01*
X190384342Y-75024285D02*
X190146247Y-75024285D01*
X190146247Y-75024285D02*
X190051009Y-75071904D01*
X190051009Y-75071904D02*
X190003390Y-75119523D01*
X190003390Y-75119523D02*
X189955771Y-75214761D01*
X189955771Y-75214761D02*
X189955771Y-75405237D01*
X189955771Y-75405237D02*
X190003390Y-75500475D01*
X190003390Y-75500475D02*
X190051009Y-75548094D01*
X190051009Y-75548094D02*
X190146247Y-75595713D01*
X184566666Y-37694819D02*
X184566666Y-38409104D01*
X184566666Y-38409104D02*
X184519047Y-38551961D01*
X184519047Y-38551961D02*
X184423809Y-38647200D01*
X184423809Y-38647200D02*
X184280952Y-38694819D01*
X184280952Y-38694819D02*
X184185714Y-38694819D01*
X185042857Y-38694819D02*
X185042857Y-37694819D01*
X185042857Y-37694819D02*
X185423809Y-37694819D01*
X185423809Y-37694819D02*
X185519047Y-37742438D01*
X185519047Y-37742438D02*
X185566666Y-37790057D01*
X185566666Y-37790057D02*
X185614285Y-37885295D01*
X185614285Y-37885295D02*
X185614285Y-38028152D01*
X185614285Y-38028152D02*
X185566666Y-38123390D01*
X185566666Y-38123390D02*
X185519047Y-38171009D01*
X185519047Y-38171009D02*
X185423809Y-38218628D01*
X185423809Y-38218628D02*
X185042857Y-38218628D01*
X185995238Y-37790057D02*
X186042857Y-37742438D01*
X186042857Y-37742438D02*
X186138095Y-37694819D01*
X186138095Y-37694819D02*
X186376190Y-37694819D01*
X186376190Y-37694819D02*
X186471428Y-37742438D01*
X186471428Y-37742438D02*
X186519047Y-37790057D01*
X186519047Y-37790057D02*
X186566666Y-37885295D01*
X186566666Y-37885295D02*
X186566666Y-37980533D01*
X186566666Y-37980533D02*
X186519047Y-38123390D01*
X186519047Y-38123390D02*
X185947619Y-38694819D01*
X185947619Y-38694819D02*
X186566666Y-38694819D01*
X155858095Y-48934819D02*
X155858095Y-49744342D01*
X155858095Y-49744342D02*
X155905714Y-49839580D01*
X155905714Y-49839580D02*
X155953333Y-49887200D01*
X155953333Y-49887200D02*
X156048571Y-49934819D01*
X156048571Y-49934819D02*
X156239047Y-49934819D01*
X156239047Y-49934819D02*
X156334285Y-49887200D01*
X156334285Y-49887200D02*
X156381904Y-49839580D01*
X156381904Y-49839580D02*
X156429523Y-49744342D01*
X156429523Y-49744342D02*
X156429523Y-48934819D01*
X156953333Y-49934819D02*
X157143809Y-49934819D01*
X157143809Y-49934819D02*
X157239047Y-49887200D01*
X157239047Y-49887200D02*
X157286666Y-49839580D01*
X157286666Y-49839580D02*
X157381904Y-49696723D01*
X157381904Y-49696723D02*
X157429523Y-49506247D01*
X157429523Y-49506247D02*
X157429523Y-49125295D01*
X157429523Y-49125295D02*
X157381904Y-49030057D01*
X157381904Y-49030057D02*
X157334285Y-48982438D01*
X157334285Y-48982438D02*
X157239047Y-48934819D01*
X157239047Y-48934819D02*
X157048571Y-48934819D01*
X157048571Y-48934819D02*
X156953333Y-48982438D01*
X156953333Y-48982438D02*
X156905714Y-49030057D01*
X156905714Y-49030057D02*
X156858095Y-49125295D01*
X156858095Y-49125295D02*
X156858095Y-49363390D01*
X156858095Y-49363390D02*
X156905714Y-49458628D01*
X156905714Y-49458628D02*
X156953333Y-49506247D01*
X156953333Y-49506247D02*
X157048571Y-49553866D01*
X157048571Y-49553866D02*
X157239047Y-49553866D01*
X157239047Y-49553866D02*
X157334285Y-49506247D01*
X157334285Y-49506247D02*
X157381904Y-49458628D01*
X157381904Y-49458628D02*
X157429523Y-49363390D01*
X154137150Y-46385019D02*
X154137150Y-46623114D01*
X153899055Y-46527876D02*
X154137150Y-46623114D01*
X154137150Y-46623114D02*
X154375245Y-46527876D01*
X153994293Y-46813590D02*
X154137150Y-46623114D01*
X154137150Y-46623114D02*
X154280007Y-46813590D01*
X154137150Y-46385019D02*
X154137150Y-46623114D01*
X153899055Y-46527876D02*
X154137150Y-46623114D01*
X154137150Y-46623114D02*
X154375245Y-46527876D01*
X153994293Y-46813590D02*
X154137150Y-46623114D01*
X154137150Y-46623114D02*
X154280007Y-46813590D01*
X195693896Y-56114820D02*
X195693896Y-56924343D01*
X195693896Y-56924343D02*
X195741515Y-57019581D01*
X195741515Y-57019581D02*
X195789134Y-57067201D01*
X195789134Y-57067201D02*
X195884372Y-57114820D01*
X195884372Y-57114820D02*
X196074848Y-57114820D01*
X196074848Y-57114820D02*
X196170086Y-57067201D01*
X196170086Y-57067201D02*
X196217705Y-57019581D01*
X196217705Y-57019581D02*
X196265324Y-56924343D01*
X196265324Y-56924343D02*
X196265324Y-56114820D01*
X196646277Y-56114820D02*
X197312943Y-56114820D01*
X197312943Y-56114820D02*
X196884372Y-57114820D01*
X194027602Y-53722620D02*
X194027602Y-53960715D01*
X193789507Y-53865477D02*
X194027602Y-53960715D01*
X194027602Y-53960715D02*
X194265697Y-53865477D01*
X193884745Y-54151191D02*
X194027602Y-53960715D01*
X194027602Y-53960715D02*
X194170459Y-54151191D01*
X194027602Y-53722620D02*
X194027602Y-53960715D01*
X193789507Y-53865477D02*
X194027602Y-53960715D01*
X194027602Y-53960715D02*
X194265697Y-53865477D01*
X193884745Y-54151191D02*
X194027602Y-53960715D01*
X194027602Y-53960715D02*
X194170459Y-54151191D01*
X165944819Y-61452857D02*
X165468628Y-61786190D01*
X165944819Y-62024285D02*
X164944819Y-62024285D01*
X164944819Y-62024285D02*
X164944819Y-61643333D01*
X164944819Y-61643333D02*
X164992438Y-61548095D01*
X164992438Y-61548095D02*
X165040057Y-61500476D01*
X165040057Y-61500476D02*
X165135295Y-61452857D01*
X165135295Y-61452857D02*
X165278152Y-61452857D01*
X165278152Y-61452857D02*
X165373390Y-61500476D01*
X165373390Y-61500476D02*
X165421009Y-61548095D01*
X165421009Y-61548095D02*
X165468628Y-61643333D01*
X165468628Y-61643333D02*
X165468628Y-62024285D01*
X165944819Y-60500476D02*
X165944819Y-61071904D01*
X165944819Y-60786190D02*
X164944819Y-60786190D01*
X164944819Y-60786190D02*
X165087676Y-60881428D01*
X165087676Y-60881428D02*
X165182914Y-60976666D01*
X165182914Y-60976666D02*
X165230533Y-61071904D01*
X165278152Y-59643333D02*
X165944819Y-59643333D01*
X164897200Y-59881428D02*
X165611485Y-60119523D01*
X165611485Y-60119523D02*
X165611485Y-59500476D01*
X169409580Y-61002857D02*
X169457200Y-61050476D01*
X169457200Y-61050476D02*
X169504819Y-61193333D01*
X169504819Y-61193333D02*
X169504819Y-61288571D01*
X169504819Y-61288571D02*
X169457200Y-61431428D01*
X169457200Y-61431428D02*
X169361961Y-61526666D01*
X169361961Y-61526666D02*
X169266723Y-61574285D01*
X169266723Y-61574285D02*
X169076247Y-61621904D01*
X169076247Y-61621904D02*
X168933390Y-61621904D01*
X168933390Y-61621904D02*
X168742914Y-61574285D01*
X168742914Y-61574285D02*
X168647676Y-61526666D01*
X168647676Y-61526666D02*
X168552438Y-61431428D01*
X168552438Y-61431428D02*
X168504819Y-61288571D01*
X168504819Y-61288571D02*
X168504819Y-61193333D01*
X168504819Y-61193333D02*
X168552438Y-61050476D01*
X168552438Y-61050476D02*
X168600057Y-61002857D01*
X168504819Y-60669523D02*
X168504819Y-60050476D01*
X168504819Y-60050476D02*
X168885771Y-60383809D01*
X168885771Y-60383809D02*
X168885771Y-60240952D01*
X168885771Y-60240952D02*
X168933390Y-60145714D01*
X168933390Y-60145714D02*
X168981009Y-60098095D01*
X168981009Y-60098095D02*
X169076247Y-60050476D01*
X169076247Y-60050476D02*
X169314342Y-60050476D01*
X169314342Y-60050476D02*
X169409580Y-60098095D01*
X169409580Y-60098095D02*
X169457200Y-60145714D01*
X169457200Y-60145714D02*
X169504819Y-60240952D01*
X169504819Y-60240952D02*
X169504819Y-60526666D01*
X169504819Y-60526666D02*
X169457200Y-60621904D01*
X169457200Y-60621904D02*
X169409580Y-60669523D01*
X168504819Y-59145714D02*
X168504819Y-59621904D01*
X168504819Y-59621904D02*
X168981009Y-59669523D01*
X168981009Y-59669523D02*
X168933390Y-59621904D01*
X168933390Y-59621904D02*
X168885771Y-59526666D01*
X168885771Y-59526666D02*
X168885771Y-59288571D01*
X168885771Y-59288571D02*
X168933390Y-59193333D01*
X168933390Y-59193333D02*
X168981009Y-59145714D01*
X168981009Y-59145714D02*
X169076247Y-59098095D01*
X169076247Y-59098095D02*
X169314342Y-59098095D01*
X169314342Y-59098095D02*
X169409580Y-59145714D01*
X169409580Y-59145714D02*
X169457200Y-59193333D01*
X169457200Y-59193333D02*
X169504819Y-59288571D01*
X169504819Y-59288571D02*
X169504819Y-59526666D01*
X169504819Y-59526666D02*
X169457200Y-59621904D01*
X169457200Y-59621904D02*
X169409580Y-59669523D01*
X190574819Y-73176666D02*
X190098628Y-73509999D01*
X190574819Y-73748094D02*
X189574819Y-73748094D01*
X189574819Y-73748094D02*
X189574819Y-73367142D01*
X189574819Y-73367142D02*
X189622438Y-73271904D01*
X189622438Y-73271904D02*
X189670057Y-73224285D01*
X189670057Y-73224285D02*
X189765295Y-73176666D01*
X189765295Y-73176666D02*
X189908152Y-73176666D01*
X189908152Y-73176666D02*
X190003390Y-73224285D01*
X190003390Y-73224285D02*
X190051009Y-73271904D01*
X190051009Y-73271904D02*
X190098628Y-73367142D01*
X190098628Y-73367142D02*
X190098628Y-73748094D01*
X189574819Y-72843332D02*
X189574819Y-72176666D01*
X189574819Y-72176666D02*
X190574819Y-72605237D01*
X179703754Y-52929457D02*
X179131335Y-52828442D01*
X179299693Y-53333518D02*
X178592587Y-52626411D01*
X178592587Y-52626411D02*
X178861961Y-52357037D01*
X178861961Y-52357037D02*
X178962976Y-52323365D01*
X178962976Y-52323365D02*
X179030319Y-52323365D01*
X179030319Y-52323365D02*
X179131335Y-52357037D01*
X179131335Y-52357037D02*
X179232350Y-52458052D01*
X179232350Y-52458052D02*
X179266022Y-52559068D01*
X179266022Y-52559068D02*
X179266022Y-52626411D01*
X179266022Y-52626411D02*
X179232350Y-52727426D01*
X179232350Y-52727426D02*
X178962976Y-52996800D01*
X179232350Y-51986648D02*
X179670083Y-51548915D01*
X179670083Y-51548915D02*
X179703754Y-52053991D01*
X179703754Y-52053991D02*
X179804770Y-51952976D01*
X179804770Y-51952976D02*
X179905785Y-51919304D01*
X179905785Y-51919304D02*
X179973128Y-51919304D01*
X179973128Y-51919304D02*
X180074144Y-51952976D01*
X180074144Y-51952976D02*
X180242502Y-52121335D01*
X180242502Y-52121335D02*
X180276174Y-52222350D01*
X180276174Y-52222350D02*
X180276174Y-52289694D01*
X180276174Y-52289694D02*
X180242502Y-52390709D01*
X180242502Y-52390709D02*
X180040472Y-52592739D01*
X180040472Y-52592739D02*
X179939457Y-52626411D01*
X179939457Y-52626411D02*
X179872113Y-52626411D01*
X199249580Y-49766666D02*
X199297200Y-49814285D01*
X199297200Y-49814285D02*
X199344819Y-49957142D01*
X199344819Y-49957142D02*
X199344819Y-50052380D01*
X199344819Y-50052380D02*
X199297200Y-50195237D01*
X199297200Y-50195237D02*
X199201961Y-50290475D01*
X199201961Y-50290475D02*
X199106723Y-50338094D01*
X199106723Y-50338094D02*
X198916247Y-50385713D01*
X198916247Y-50385713D02*
X198773390Y-50385713D01*
X198773390Y-50385713D02*
X198582914Y-50338094D01*
X198582914Y-50338094D02*
X198487676Y-50290475D01*
X198487676Y-50290475D02*
X198392438Y-50195237D01*
X198392438Y-50195237D02*
X198344819Y-50052380D01*
X198344819Y-50052380D02*
X198344819Y-49957142D01*
X198344819Y-49957142D02*
X198392438Y-49814285D01*
X198392438Y-49814285D02*
X198440057Y-49766666D01*
X198344819Y-49433332D02*
X198344819Y-48766666D01*
X198344819Y-48766666D02*
X199344819Y-49195237D01*
X158399580Y-53639124D02*
X158447200Y-53686743D01*
X158447200Y-53686743D02*
X158494819Y-53829600D01*
X158494819Y-53829600D02*
X158494819Y-53924838D01*
X158494819Y-53924838D02*
X158447200Y-54067695D01*
X158447200Y-54067695D02*
X158351961Y-54162933D01*
X158351961Y-54162933D02*
X158256723Y-54210552D01*
X158256723Y-54210552D02*
X158066247Y-54258171D01*
X158066247Y-54258171D02*
X157923390Y-54258171D01*
X157923390Y-54258171D02*
X157732914Y-54210552D01*
X157732914Y-54210552D02*
X157637676Y-54162933D01*
X157637676Y-54162933D02*
X157542438Y-54067695D01*
X157542438Y-54067695D02*
X157494819Y-53924838D01*
X157494819Y-53924838D02*
X157494819Y-53829600D01*
X157494819Y-53829600D02*
X157542438Y-53686743D01*
X157542438Y-53686743D02*
X157590057Y-53639124D01*
X157494819Y-53305790D02*
X157494819Y-52686743D01*
X157494819Y-52686743D02*
X157875771Y-53020076D01*
X157875771Y-53020076D02*
X157875771Y-52877219D01*
X157875771Y-52877219D02*
X157923390Y-52781981D01*
X157923390Y-52781981D02*
X157971009Y-52734362D01*
X157971009Y-52734362D02*
X158066247Y-52686743D01*
X158066247Y-52686743D02*
X158304342Y-52686743D01*
X158304342Y-52686743D02*
X158399580Y-52734362D01*
X158399580Y-52734362D02*
X158447200Y-52781981D01*
X158447200Y-52781981D02*
X158494819Y-52877219D01*
X158494819Y-52877219D02*
X158494819Y-53162933D01*
X158494819Y-53162933D02*
X158447200Y-53258171D01*
X158447200Y-53258171D02*
X158399580Y-53305790D01*
X157828152Y-51829600D02*
X158494819Y-51829600D01*
X157447200Y-52067695D02*
X158161485Y-52305790D01*
X158161485Y-52305790D02*
X158161485Y-51686743D01*
X191767142Y-76229580D02*
X191719523Y-76277200D01*
X191719523Y-76277200D02*
X191576666Y-76324819D01*
X191576666Y-76324819D02*
X191481428Y-76324819D01*
X191481428Y-76324819D02*
X191338571Y-76277200D01*
X191338571Y-76277200D02*
X191243333Y-76181961D01*
X191243333Y-76181961D02*
X191195714Y-76086723D01*
X191195714Y-76086723D02*
X191148095Y-75896247D01*
X191148095Y-75896247D02*
X191148095Y-75753390D01*
X191148095Y-75753390D02*
X191195714Y-75562914D01*
X191195714Y-75562914D02*
X191243333Y-75467676D01*
X191243333Y-75467676D02*
X191338571Y-75372438D01*
X191338571Y-75372438D02*
X191481428Y-75324819D01*
X191481428Y-75324819D02*
X191576666Y-75324819D01*
X191576666Y-75324819D02*
X191719523Y-75372438D01*
X191719523Y-75372438D02*
X191767142Y-75420057D01*
X192148095Y-75420057D02*
X192195714Y-75372438D01*
X192195714Y-75372438D02*
X192290952Y-75324819D01*
X192290952Y-75324819D02*
X192529047Y-75324819D01*
X192529047Y-75324819D02*
X192624285Y-75372438D01*
X192624285Y-75372438D02*
X192671904Y-75420057D01*
X192671904Y-75420057D02*
X192719523Y-75515295D01*
X192719523Y-75515295D02*
X192719523Y-75610533D01*
X192719523Y-75610533D02*
X192671904Y-75753390D01*
X192671904Y-75753390D02*
X192100476Y-76324819D01*
X192100476Y-76324819D02*
X192719523Y-76324819D01*
X193052857Y-75324819D02*
X193719523Y-75324819D01*
X193719523Y-75324819D02*
X193290952Y-76324819D01*
X162869580Y-62472857D02*
X162917200Y-62520476D01*
X162917200Y-62520476D02*
X162964819Y-62663333D01*
X162964819Y-62663333D02*
X162964819Y-62758571D01*
X162964819Y-62758571D02*
X162917200Y-62901428D01*
X162917200Y-62901428D02*
X162821961Y-62996666D01*
X162821961Y-62996666D02*
X162726723Y-63044285D01*
X162726723Y-63044285D02*
X162536247Y-63091904D01*
X162536247Y-63091904D02*
X162393390Y-63091904D01*
X162393390Y-63091904D02*
X162202914Y-63044285D01*
X162202914Y-63044285D02*
X162107676Y-62996666D01*
X162107676Y-62996666D02*
X162012438Y-62901428D01*
X162012438Y-62901428D02*
X161964819Y-62758571D01*
X161964819Y-62758571D02*
X161964819Y-62663333D01*
X161964819Y-62663333D02*
X162012438Y-62520476D01*
X162012438Y-62520476D02*
X162060057Y-62472857D01*
X162060057Y-62091904D02*
X162012438Y-62044285D01*
X162012438Y-62044285D02*
X161964819Y-61949047D01*
X161964819Y-61949047D02*
X161964819Y-61710952D01*
X161964819Y-61710952D02*
X162012438Y-61615714D01*
X162012438Y-61615714D02*
X162060057Y-61568095D01*
X162060057Y-61568095D02*
X162155295Y-61520476D01*
X162155295Y-61520476D02*
X162250533Y-61520476D01*
X162250533Y-61520476D02*
X162393390Y-61568095D01*
X162393390Y-61568095D02*
X162964819Y-62139523D01*
X162964819Y-62139523D02*
X162964819Y-61520476D01*
X162393390Y-60949047D02*
X162345771Y-61044285D01*
X162345771Y-61044285D02*
X162298152Y-61091904D01*
X162298152Y-61091904D02*
X162202914Y-61139523D01*
X162202914Y-61139523D02*
X162155295Y-61139523D01*
X162155295Y-61139523D02*
X162060057Y-61091904D01*
X162060057Y-61091904D02*
X162012438Y-61044285D01*
X162012438Y-61044285D02*
X161964819Y-60949047D01*
X161964819Y-60949047D02*
X161964819Y-60758571D01*
X161964819Y-60758571D02*
X162012438Y-60663333D01*
X162012438Y-60663333D02*
X162060057Y-60615714D01*
X162060057Y-60615714D02*
X162155295Y-60568095D01*
X162155295Y-60568095D02*
X162202914Y-60568095D01*
X162202914Y-60568095D02*
X162298152Y-60615714D01*
X162298152Y-60615714D02*
X162345771Y-60663333D01*
X162345771Y-60663333D02*
X162393390Y-60758571D01*
X162393390Y-60758571D02*
X162393390Y-60949047D01*
X162393390Y-60949047D02*
X162441009Y-61044285D01*
X162441009Y-61044285D02*
X162488628Y-61091904D01*
X162488628Y-61091904D02*
X162583866Y-61139523D01*
X162583866Y-61139523D02*
X162774342Y-61139523D01*
X162774342Y-61139523D02*
X162869580Y-61091904D01*
X162869580Y-61091904D02*
X162917200Y-61044285D01*
X162917200Y-61044285D02*
X162964819Y-60949047D01*
X162964819Y-60949047D02*
X162964819Y-60758571D01*
X162964819Y-60758571D02*
X162917200Y-60663333D01*
X162917200Y-60663333D02*
X162869580Y-60615714D01*
X162869580Y-60615714D02*
X162774342Y-60568095D01*
X162774342Y-60568095D02*
X162583866Y-60568095D01*
X162583866Y-60568095D02*
X162488628Y-60615714D01*
X162488628Y-60615714D02*
X162441009Y-60663333D01*
X162441009Y-60663333D02*
X162393390Y-60758571D01*
X201079580Y-39130399D02*
X201127200Y-39178018D01*
X201127200Y-39178018D02*
X201174819Y-39320875D01*
X201174819Y-39320875D02*
X201174819Y-39416113D01*
X201174819Y-39416113D02*
X201127200Y-39558970D01*
X201127200Y-39558970D02*
X201031961Y-39654208D01*
X201031961Y-39654208D02*
X200936723Y-39701827D01*
X200936723Y-39701827D02*
X200746247Y-39749446D01*
X200746247Y-39749446D02*
X200603390Y-39749446D01*
X200603390Y-39749446D02*
X200412914Y-39701827D01*
X200412914Y-39701827D02*
X200317676Y-39654208D01*
X200317676Y-39654208D02*
X200222438Y-39558970D01*
X200222438Y-39558970D02*
X200174819Y-39416113D01*
X200174819Y-39416113D02*
X200174819Y-39320875D01*
X200174819Y-39320875D02*
X200222438Y-39178018D01*
X200222438Y-39178018D02*
X200270057Y-39130399D01*
X200174819Y-38273256D02*
X200174819Y-38463732D01*
X200174819Y-38463732D02*
X200222438Y-38558970D01*
X200222438Y-38558970D02*
X200270057Y-38606589D01*
X200270057Y-38606589D02*
X200412914Y-38701827D01*
X200412914Y-38701827D02*
X200603390Y-38749446D01*
X200603390Y-38749446D02*
X200984342Y-38749446D01*
X200984342Y-38749446D02*
X201079580Y-38701827D01*
X201079580Y-38701827D02*
X201127200Y-38654208D01*
X201127200Y-38654208D02*
X201174819Y-38558970D01*
X201174819Y-38558970D02*
X201174819Y-38368494D01*
X201174819Y-38368494D02*
X201127200Y-38273256D01*
X201127200Y-38273256D02*
X201079580Y-38225637D01*
X201079580Y-38225637D02*
X200984342Y-38178018D01*
X200984342Y-38178018D02*
X200746247Y-38178018D01*
X200746247Y-38178018D02*
X200651009Y-38225637D01*
X200651009Y-38225637D02*
X200603390Y-38273256D01*
X200603390Y-38273256D02*
X200555771Y-38368494D01*
X200555771Y-38368494D02*
X200555771Y-38558970D01*
X200555771Y-38558970D02*
X200603390Y-38654208D01*
X200603390Y-38654208D02*
X200651009Y-38701827D01*
X200651009Y-38701827D02*
X200746247Y-38749446D01*
X187967142Y-59889580D02*
X187919523Y-59937200D01*
X187919523Y-59937200D02*
X187776666Y-59984819D01*
X187776666Y-59984819D02*
X187681428Y-59984819D01*
X187681428Y-59984819D02*
X187538571Y-59937200D01*
X187538571Y-59937200D02*
X187443333Y-59841961D01*
X187443333Y-59841961D02*
X187395714Y-59746723D01*
X187395714Y-59746723D02*
X187348095Y-59556247D01*
X187348095Y-59556247D02*
X187348095Y-59413390D01*
X187348095Y-59413390D02*
X187395714Y-59222914D01*
X187395714Y-59222914D02*
X187443333Y-59127676D01*
X187443333Y-59127676D02*
X187538571Y-59032438D01*
X187538571Y-59032438D02*
X187681428Y-58984819D01*
X187681428Y-58984819D02*
X187776666Y-58984819D01*
X187776666Y-58984819D02*
X187919523Y-59032438D01*
X187919523Y-59032438D02*
X187967142Y-59080057D01*
X188919523Y-59984819D02*
X188348095Y-59984819D01*
X188633809Y-59984819D02*
X188633809Y-58984819D01*
X188633809Y-58984819D02*
X188538571Y-59127676D01*
X188538571Y-59127676D02*
X188443333Y-59222914D01*
X188443333Y-59222914D02*
X188348095Y-59270533D01*
X189252857Y-58984819D02*
X189871904Y-58984819D01*
X189871904Y-58984819D02*
X189538571Y-59365771D01*
X189538571Y-59365771D02*
X189681428Y-59365771D01*
X189681428Y-59365771D02*
X189776666Y-59413390D01*
X189776666Y-59413390D02*
X189824285Y-59461009D01*
X189824285Y-59461009D02*
X189871904Y-59556247D01*
X189871904Y-59556247D02*
X189871904Y-59794342D01*
X189871904Y-59794342D02*
X189824285Y-59889580D01*
X189824285Y-59889580D02*
X189776666Y-59937200D01*
X189776666Y-59937200D02*
X189681428Y-59984819D01*
X189681428Y-59984819D02*
X189395714Y-59984819D01*
X189395714Y-59984819D02*
X189300476Y-59937200D01*
X189300476Y-59937200D02*
X189252857Y-59889580D01*
X156131905Y-59834819D02*
X156131905Y-60644342D01*
X156131905Y-60644342D02*
X156179524Y-60739580D01*
X156179524Y-60739580D02*
X156227143Y-60787200D01*
X156227143Y-60787200D02*
X156322381Y-60834819D01*
X156322381Y-60834819D02*
X156512857Y-60834819D01*
X156512857Y-60834819D02*
X156608095Y-60787200D01*
X156608095Y-60787200D02*
X156655714Y-60739580D01*
X156655714Y-60739580D02*
X156703333Y-60644342D01*
X156703333Y-60644342D02*
X156703333Y-59834819D01*
X157703333Y-60834819D02*
X157131905Y-60834819D01*
X157417619Y-60834819D02*
X157417619Y-59834819D01*
X157417619Y-59834819D02*
X157322381Y-59977676D01*
X157322381Y-59977676D02*
X157227143Y-60072914D01*
X157227143Y-60072914D02*
X157131905Y-60120533D01*
X158322381Y-59834819D02*
X158417619Y-59834819D01*
X158417619Y-59834819D02*
X158512857Y-59882438D01*
X158512857Y-59882438D02*
X158560476Y-59930057D01*
X158560476Y-59930057D02*
X158608095Y-60025295D01*
X158608095Y-60025295D02*
X158655714Y-60215771D01*
X158655714Y-60215771D02*
X158655714Y-60453866D01*
X158655714Y-60453866D02*
X158608095Y-60644342D01*
X158608095Y-60644342D02*
X158560476Y-60739580D01*
X158560476Y-60739580D02*
X158512857Y-60787200D01*
X158512857Y-60787200D02*
X158417619Y-60834819D01*
X158417619Y-60834819D02*
X158322381Y-60834819D01*
X158322381Y-60834819D02*
X158227143Y-60787200D01*
X158227143Y-60787200D02*
X158179524Y-60739580D01*
X158179524Y-60739580D02*
X158131905Y-60644342D01*
X158131905Y-60644342D02*
X158084286Y-60453866D01*
X158084286Y-60453866D02*
X158084286Y-60215771D01*
X158084286Y-60215771D02*
X158131905Y-60025295D01*
X158131905Y-60025295D02*
X158179524Y-59930057D01*
X158179524Y-59930057D02*
X158227143Y-59882438D01*
X158227143Y-59882438D02*
X158322381Y-59834819D01*
X195051904Y-43015180D02*
X195051904Y-42205657D01*
X195051904Y-42205657D02*
X195004285Y-42110419D01*
X195004285Y-42110419D02*
X194956666Y-42062800D01*
X194956666Y-42062800D02*
X194861428Y-42015180D01*
X194861428Y-42015180D02*
X194670952Y-42015180D01*
X194670952Y-42015180D02*
X194575714Y-42062800D01*
X194575714Y-42062800D02*
X194528095Y-42110419D01*
X194528095Y-42110419D02*
X194480476Y-42205657D01*
X194480476Y-42205657D02*
X194480476Y-43015180D01*
X194099523Y-43015180D02*
X193480476Y-43015180D01*
X193480476Y-43015180D02*
X193813809Y-42634228D01*
X193813809Y-42634228D02*
X193670952Y-42634228D01*
X193670952Y-42634228D02*
X193575714Y-42586609D01*
X193575714Y-42586609D02*
X193528095Y-42538990D01*
X193528095Y-42538990D02*
X193480476Y-42443752D01*
X193480476Y-42443752D02*
X193480476Y-42205657D01*
X193480476Y-42205657D02*
X193528095Y-42110419D01*
X193528095Y-42110419D02*
X193575714Y-42062800D01*
X193575714Y-42062800D02*
X193670952Y-42015180D01*
X193670952Y-42015180D02*
X193956666Y-42015180D01*
X193956666Y-42015180D02*
X194051904Y-42062800D01*
X194051904Y-42062800D02*
X194099523Y-42110419D01*
X197268150Y-43711619D02*
X197268150Y-43949714D01*
X197030055Y-43854476D02*
X197268150Y-43949714D01*
X197268150Y-43949714D02*
X197506245Y-43854476D01*
X197125293Y-44140190D02*
X197268150Y-43949714D01*
X197268150Y-43949714D02*
X197411007Y-44140190D01*
X197268149Y-44801980D02*
X197268149Y-44563885D01*
X197506244Y-44659123D02*
X197268149Y-44563885D01*
X197268149Y-44563885D02*
X197030054Y-44659123D01*
X197411006Y-44373409D02*
X197268149Y-44563885D01*
X197268149Y-44563885D02*
X197125292Y-44373409D01*
X188547142Y-61819580D02*
X188499523Y-61867200D01*
X188499523Y-61867200D02*
X188356666Y-61914819D01*
X188356666Y-61914819D02*
X188261428Y-61914819D01*
X188261428Y-61914819D02*
X188118571Y-61867200D01*
X188118571Y-61867200D02*
X188023333Y-61771961D01*
X188023333Y-61771961D02*
X187975714Y-61676723D01*
X187975714Y-61676723D02*
X187928095Y-61486247D01*
X187928095Y-61486247D02*
X187928095Y-61343390D01*
X187928095Y-61343390D02*
X187975714Y-61152914D01*
X187975714Y-61152914D02*
X188023333Y-61057676D01*
X188023333Y-61057676D02*
X188118571Y-60962438D01*
X188118571Y-60962438D02*
X188261428Y-60914819D01*
X188261428Y-60914819D02*
X188356666Y-60914819D01*
X188356666Y-60914819D02*
X188499523Y-60962438D01*
X188499523Y-60962438D02*
X188547142Y-61010057D01*
X189404285Y-61248152D02*
X189404285Y-61914819D01*
X189166190Y-60867200D02*
X188928095Y-61581485D01*
X188928095Y-61581485D02*
X189547142Y-61581485D01*
X190404285Y-60914819D02*
X189928095Y-60914819D01*
X189928095Y-60914819D02*
X189880476Y-61391009D01*
X189880476Y-61391009D02*
X189928095Y-61343390D01*
X189928095Y-61343390D02*
X190023333Y-61295771D01*
X190023333Y-61295771D02*
X190261428Y-61295771D01*
X190261428Y-61295771D02*
X190356666Y-61343390D01*
X190356666Y-61343390D02*
X190404285Y-61391009D01*
X190404285Y-61391009D02*
X190451904Y-61486247D01*
X190451904Y-61486247D02*
X190451904Y-61724342D01*
X190451904Y-61724342D02*
X190404285Y-61819580D01*
X190404285Y-61819580D02*
X190356666Y-61867200D01*
X190356666Y-61867200D02*
X190261428Y-61914819D01*
X190261428Y-61914819D02*
X190023333Y-61914819D01*
X190023333Y-61914819D02*
X189928095Y-61867200D01*
X189928095Y-61867200D02*
X189880476Y-61819580D01*
X166637142Y-53069580D02*
X166589523Y-53117200D01*
X166589523Y-53117200D02*
X166446666Y-53164819D01*
X166446666Y-53164819D02*
X166351428Y-53164819D01*
X166351428Y-53164819D02*
X166208571Y-53117200D01*
X166208571Y-53117200D02*
X166113333Y-53021961D01*
X166113333Y-53021961D02*
X166065714Y-52926723D01*
X166065714Y-52926723D02*
X166018095Y-52736247D01*
X166018095Y-52736247D02*
X166018095Y-52593390D01*
X166018095Y-52593390D02*
X166065714Y-52402914D01*
X166065714Y-52402914D02*
X166113333Y-52307676D01*
X166113333Y-52307676D02*
X166208571Y-52212438D01*
X166208571Y-52212438D02*
X166351428Y-52164819D01*
X166351428Y-52164819D02*
X166446666Y-52164819D01*
X166446666Y-52164819D02*
X166589523Y-52212438D01*
X166589523Y-52212438D02*
X166637142Y-52260057D01*
X166970476Y-52164819D02*
X167589523Y-52164819D01*
X167589523Y-52164819D02*
X167256190Y-52545771D01*
X167256190Y-52545771D02*
X167399047Y-52545771D01*
X167399047Y-52545771D02*
X167494285Y-52593390D01*
X167494285Y-52593390D02*
X167541904Y-52641009D01*
X167541904Y-52641009D02*
X167589523Y-52736247D01*
X167589523Y-52736247D02*
X167589523Y-52974342D01*
X167589523Y-52974342D02*
X167541904Y-53069580D01*
X167541904Y-53069580D02*
X167494285Y-53117200D01*
X167494285Y-53117200D02*
X167399047Y-53164819D01*
X167399047Y-53164819D02*
X167113333Y-53164819D01*
X167113333Y-53164819D02*
X167018095Y-53117200D01*
X167018095Y-53117200D02*
X166970476Y-53069580D01*
X168208571Y-52164819D02*
X168303809Y-52164819D01*
X168303809Y-52164819D02*
X168399047Y-52212438D01*
X168399047Y-52212438D02*
X168446666Y-52260057D01*
X168446666Y-52260057D02*
X168494285Y-52355295D01*
X168494285Y-52355295D02*
X168541904Y-52545771D01*
X168541904Y-52545771D02*
X168541904Y-52783866D01*
X168541904Y-52783866D02*
X168494285Y-52974342D01*
X168494285Y-52974342D02*
X168446666Y-53069580D01*
X168446666Y-53069580D02*
X168399047Y-53117200D01*
X168399047Y-53117200D02*
X168303809Y-53164819D01*
X168303809Y-53164819D02*
X168208571Y-53164819D01*
X168208571Y-53164819D02*
X168113333Y-53117200D01*
X168113333Y-53117200D02*
X168065714Y-53069580D01*
X168065714Y-53069580D02*
X168018095Y-52974342D01*
X168018095Y-52974342D02*
X167970476Y-52783866D01*
X167970476Y-52783866D02*
X167970476Y-52545771D01*
X167970476Y-52545771D02*
X168018095Y-52355295D01*
X168018095Y-52355295D02*
X168065714Y-52260057D01*
X168065714Y-52260057D02*
X168113333Y-52212438D01*
X168113333Y-52212438D02*
X168208571Y-52164819D01*
X195563095Y-74124819D02*
X195563095Y-74934342D01*
X195563095Y-74934342D02*
X195610714Y-75029580D01*
X195610714Y-75029580D02*
X195658333Y-75077200D01*
X195658333Y-75077200D02*
X195753571Y-75124819D01*
X195753571Y-75124819D02*
X195944047Y-75124819D01*
X195944047Y-75124819D02*
X196039285Y-75077200D01*
X196039285Y-75077200D02*
X196086904Y-75029580D01*
X196086904Y-75029580D02*
X196134523Y-74934342D01*
X196134523Y-74934342D02*
X196134523Y-74124819D01*
X196753571Y-74553390D02*
X196658333Y-74505771D01*
X196658333Y-74505771D02*
X196610714Y-74458152D01*
X196610714Y-74458152D02*
X196563095Y-74362914D01*
X196563095Y-74362914D02*
X196563095Y-74315295D01*
X196563095Y-74315295D02*
X196610714Y-74220057D01*
X196610714Y-74220057D02*
X196658333Y-74172438D01*
X196658333Y-74172438D02*
X196753571Y-74124819D01*
X196753571Y-74124819D02*
X196944047Y-74124819D01*
X196944047Y-74124819D02*
X197039285Y-74172438D01*
X197039285Y-74172438D02*
X197086904Y-74220057D01*
X197086904Y-74220057D02*
X197134523Y-74315295D01*
X197134523Y-74315295D02*
X197134523Y-74362914D01*
X197134523Y-74362914D02*
X197086904Y-74458152D01*
X197086904Y-74458152D02*
X197039285Y-74505771D01*
X197039285Y-74505771D02*
X196944047Y-74553390D01*
X196944047Y-74553390D02*
X196753571Y-74553390D01*
X196753571Y-74553390D02*
X196658333Y-74601009D01*
X196658333Y-74601009D02*
X196610714Y-74648628D01*
X196610714Y-74648628D02*
X196563095Y-74743866D01*
X196563095Y-74743866D02*
X196563095Y-74934342D01*
X196563095Y-74934342D02*
X196610714Y-75029580D01*
X196610714Y-75029580D02*
X196658333Y-75077200D01*
X196658333Y-75077200D02*
X196753571Y-75124819D01*
X196753571Y-75124819D02*
X196944047Y-75124819D01*
X196944047Y-75124819D02*
X197039285Y-75077200D01*
X197039285Y-75077200D02*
X197086904Y-75029580D01*
X197086904Y-75029580D02*
X197134523Y-74934342D01*
X197134523Y-74934342D02*
X197134523Y-74743866D01*
X197134523Y-74743866D02*
X197086904Y-74648628D01*
X197086904Y-74648628D02*
X197039285Y-74601009D01*
X197039285Y-74601009D02*
X196944047Y-74553390D01*
X165200550Y-73428420D02*
X165200550Y-73666515D01*
X164962455Y-73571277D02*
X165200550Y-73666515D01*
X165200550Y-73666515D02*
X165438645Y-73571277D01*
X165057693Y-73856991D02*
X165200550Y-73666515D01*
X165200550Y-73666515D02*
X165343407Y-73856991D01*
X165200549Y-74518781D02*
X165200549Y-74280686D01*
X165438644Y-74375924D02*
X165200549Y-74280686D01*
X165200549Y-74280686D02*
X164962454Y-74375924D01*
X165343406Y-74090210D02*
X165200549Y-74280686D01*
X165200549Y-74280686D02*
X165057692Y-74090210D01*
X198408095Y-45754819D02*
X198979523Y-45754819D01*
X198693809Y-46754819D02*
X198693809Y-45754819D01*
X199312857Y-46754819D02*
X199312857Y-45754819D01*
X199312857Y-45754819D02*
X199693809Y-45754819D01*
X199693809Y-45754819D02*
X199789047Y-45802438D01*
X199789047Y-45802438D02*
X199836666Y-45850057D01*
X199836666Y-45850057D02*
X199884285Y-45945295D01*
X199884285Y-45945295D02*
X199884285Y-46088152D01*
X199884285Y-46088152D02*
X199836666Y-46183390D01*
X199836666Y-46183390D02*
X199789047Y-46231009D01*
X199789047Y-46231009D02*
X199693809Y-46278628D01*
X199693809Y-46278628D02*
X199312857Y-46278628D01*
X200265238Y-45850057D02*
X200312857Y-45802438D01*
X200312857Y-45802438D02*
X200408095Y-45754819D01*
X200408095Y-45754819D02*
X200646190Y-45754819D01*
X200646190Y-45754819D02*
X200741428Y-45802438D01*
X200741428Y-45802438D02*
X200789047Y-45850057D01*
X200789047Y-45850057D02*
X200836666Y-45945295D01*
X200836666Y-45945295D02*
X200836666Y-46040533D01*
X200836666Y-46040533D02*
X200789047Y-46183390D01*
X200789047Y-46183390D02*
X200217619Y-46754819D01*
X200217619Y-46754819D02*
X200836666Y-46754819D01*
X203114819Y-75622857D02*
X202638628Y-75956190D01*
X203114819Y-76194285D02*
X202114819Y-76194285D01*
X202114819Y-76194285D02*
X202114819Y-75813333D01*
X202114819Y-75813333D02*
X202162438Y-75718095D01*
X202162438Y-75718095D02*
X202210057Y-75670476D01*
X202210057Y-75670476D02*
X202305295Y-75622857D01*
X202305295Y-75622857D02*
X202448152Y-75622857D01*
X202448152Y-75622857D02*
X202543390Y-75670476D01*
X202543390Y-75670476D02*
X202591009Y-75718095D01*
X202591009Y-75718095D02*
X202638628Y-75813333D01*
X202638628Y-75813333D02*
X202638628Y-76194285D01*
X203114819Y-74670476D02*
X203114819Y-75241904D01*
X203114819Y-74956190D02*
X202114819Y-74956190D01*
X202114819Y-74956190D02*
X202257676Y-75051428D01*
X202257676Y-75051428D02*
X202352914Y-75146666D01*
X202352914Y-75146666D02*
X202400533Y-75241904D01*
X202114819Y-74051428D02*
X202114819Y-73956190D01*
X202114819Y-73956190D02*
X202162438Y-73860952D01*
X202162438Y-73860952D02*
X202210057Y-73813333D01*
X202210057Y-73813333D02*
X202305295Y-73765714D01*
X202305295Y-73765714D02*
X202495771Y-73718095D01*
X202495771Y-73718095D02*
X202733866Y-73718095D01*
X202733866Y-73718095D02*
X202924342Y-73765714D01*
X202924342Y-73765714D02*
X203019580Y-73813333D01*
X203019580Y-73813333D02*
X203067200Y-73860952D01*
X203067200Y-73860952D02*
X203114819Y-73956190D01*
X203114819Y-73956190D02*
X203114819Y-74051428D01*
X203114819Y-74051428D02*
X203067200Y-74146666D01*
X203067200Y-74146666D02*
X203019580Y-74194285D01*
X203019580Y-74194285D02*
X202924342Y-74241904D01*
X202924342Y-74241904D02*
X202733866Y-74289523D01*
X202733866Y-74289523D02*
X202495771Y-74289523D01*
X202495771Y-74289523D02*
X202305295Y-74241904D01*
X202305295Y-74241904D02*
X202210057Y-74194285D01*
X202210057Y-74194285D02*
X202162438Y-74146666D01*
X202162438Y-74146666D02*
X202114819Y-74051428D01*
X187733333Y-56014819D02*
X187400000Y-55538628D01*
X187161905Y-56014819D02*
X187161905Y-55014819D01*
X187161905Y-55014819D02*
X187542857Y-55014819D01*
X187542857Y-55014819D02*
X187638095Y-55062438D01*
X187638095Y-55062438D02*
X187685714Y-55110057D01*
X187685714Y-55110057D02*
X187733333Y-55205295D01*
X187733333Y-55205295D02*
X187733333Y-55348152D01*
X187733333Y-55348152D02*
X187685714Y-55443390D01*
X187685714Y-55443390D02*
X187638095Y-55491009D01*
X187638095Y-55491009D02*
X187542857Y-55538628D01*
X187542857Y-55538628D02*
X187161905Y-55538628D01*
X188304762Y-55443390D02*
X188209524Y-55395771D01*
X188209524Y-55395771D02*
X188161905Y-55348152D01*
X188161905Y-55348152D02*
X188114286Y-55252914D01*
X188114286Y-55252914D02*
X188114286Y-55205295D01*
X188114286Y-55205295D02*
X188161905Y-55110057D01*
X188161905Y-55110057D02*
X188209524Y-55062438D01*
X188209524Y-55062438D02*
X188304762Y-55014819D01*
X188304762Y-55014819D02*
X188495238Y-55014819D01*
X188495238Y-55014819D02*
X188590476Y-55062438D01*
X188590476Y-55062438D02*
X188638095Y-55110057D01*
X188638095Y-55110057D02*
X188685714Y-55205295D01*
X188685714Y-55205295D02*
X188685714Y-55252914D01*
X188685714Y-55252914D02*
X188638095Y-55348152D01*
X188638095Y-55348152D02*
X188590476Y-55395771D01*
X188590476Y-55395771D02*
X188495238Y-55443390D01*
X188495238Y-55443390D02*
X188304762Y-55443390D01*
X188304762Y-55443390D02*
X188209524Y-55491009D01*
X188209524Y-55491009D02*
X188161905Y-55538628D01*
X188161905Y-55538628D02*
X188114286Y-55633866D01*
X188114286Y-55633866D02*
X188114286Y-55824342D01*
X188114286Y-55824342D02*
X188161905Y-55919580D01*
X188161905Y-55919580D02*
X188209524Y-55967200D01*
X188209524Y-55967200D02*
X188304762Y-56014819D01*
X188304762Y-56014819D02*
X188495238Y-56014819D01*
X188495238Y-56014819D02*
X188590476Y-55967200D01*
X188590476Y-55967200D02*
X188638095Y-55919580D01*
X188638095Y-55919580D02*
X188685714Y-55824342D01*
X188685714Y-55824342D02*
X188685714Y-55633866D01*
X188685714Y-55633866D02*
X188638095Y-55538628D01*
X188638095Y-55538628D02*
X188590476Y-55491009D01*
X188590476Y-55491009D02*
X188495238Y-55443390D01*
X177304819Y-44603333D02*
X178019104Y-44603333D01*
X178019104Y-44603333D02*
X178161961Y-44650952D01*
X178161961Y-44650952D02*
X178257200Y-44746190D01*
X178257200Y-44746190D02*
X178304819Y-44889047D01*
X178304819Y-44889047D02*
X178304819Y-44984285D01*
X178304819Y-44127142D02*
X177304819Y-44127142D01*
X177304819Y-44127142D02*
X177304819Y-43746190D01*
X177304819Y-43746190D02*
X177352438Y-43650952D01*
X177352438Y-43650952D02*
X177400057Y-43603333D01*
X177400057Y-43603333D02*
X177495295Y-43555714D01*
X177495295Y-43555714D02*
X177638152Y-43555714D01*
X177638152Y-43555714D02*
X177733390Y-43603333D01*
X177733390Y-43603333D02*
X177781009Y-43650952D01*
X177781009Y-43650952D02*
X177828628Y-43746190D01*
X177828628Y-43746190D02*
X177828628Y-44127142D01*
X177638152Y-42698571D02*
X178304819Y-42698571D01*
X177257200Y-42936666D02*
X177971485Y-43174761D01*
X177971485Y-43174761D02*
X177971485Y-42555714D01*
X189118095Y-49276819D02*
X189689523Y-49276819D01*
X189403809Y-50276819D02*
X189403809Y-49276819D01*
X190022857Y-50276819D02*
X190022857Y-49276819D01*
X190022857Y-49276819D02*
X190403809Y-49276819D01*
X190403809Y-49276819D02*
X190499047Y-49324438D01*
X190499047Y-49324438D02*
X190546666Y-49372057D01*
X190546666Y-49372057D02*
X190594285Y-49467295D01*
X190594285Y-49467295D02*
X190594285Y-49610152D01*
X190594285Y-49610152D02*
X190546666Y-49705390D01*
X190546666Y-49705390D02*
X190499047Y-49753009D01*
X190499047Y-49753009D02*
X190403809Y-49800628D01*
X190403809Y-49800628D02*
X190022857Y-49800628D01*
X190927619Y-49276819D02*
X191546666Y-49276819D01*
X191546666Y-49276819D02*
X191213333Y-49657771D01*
X191213333Y-49657771D02*
X191356190Y-49657771D01*
X191356190Y-49657771D02*
X191451428Y-49705390D01*
X191451428Y-49705390D02*
X191499047Y-49753009D01*
X191499047Y-49753009D02*
X191546666Y-49848247D01*
X191546666Y-49848247D02*
X191546666Y-50086342D01*
X191546666Y-50086342D02*
X191499047Y-50181580D01*
X191499047Y-50181580D02*
X191451428Y-50229200D01*
X191451428Y-50229200D02*
X191356190Y-50276819D01*
X191356190Y-50276819D02*
X191070476Y-50276819D01*
X191070476Y-50276819D02*
X190975238Y-50229200D01*
X190975238Y-50229200D02*
X190927619Y-50181580D01*
X185013945Y-49778719D02*
X185013945Y-50588242D01*
X185013945Y-50588242D02*
X185061564Y-50683480D01*
X185061564Y-50683480D02*
X185109183Y-50731100D01*
X185109183Y-50731100D02*
X185204421Y-50778719D01*
X185204421Y-50778719D02*
X185394897Y-50778719D01*
X185394897Y-50778719D02*
X185490135Y-50731100D01*
X185490135Y-50731100D02*
X185537754Y-50683480D01*
X185537754Y-50683480D02*
X185585373Y-50588242D01*
X185585373Y-50588242D02*
X185585373Y-49778719D01*
X186490135Y-50112052D02*
X186490135Y-50778719D01*
X186252040Y-49731100D02*
X186013945Y-50445385D01*
X186013945Y-50445385D02*
X186632992Y-50445385D01*
X188754000Y-50756619D02*
X188754000Y-50994714D01*
X188515905Y-50899476D02*
X188754000Y-50994714D01*
X188754000Y-50994714D02*
X188992095Y-50899476D01*
X188611143Y-51185190D02*
X188754000Y-50994714D01*
X188754000Y-50994714D02*
X188896857Y-51185190D01*
X188753999Y-51846980D02*
X188753999Y-51608885D01*
X188992094Y-51704123D02*
X188753999Y-51608885D01*
X188753999Y-51608885D02*
X188515904Y-51704123D01*
X188896856Y-51418409D02*
X188753999Y-51608885D01*
X188753999Y-51608885D02*
X188611142Y-51418409D01*
X167744819Y-59982857D02*
X167268628Y-60316190D01*
X167744819Y-60554285D02*
X166744819Y-60554285D01*
X166744819Y-60554285D02*
X166744819Y-60173333D01*
X166744819Y-60173333D02*
X166792438Y-60078095D01*
X166792438Y-60078095D02*
X166840057Y-60030476D01*
X166840057Y-60030476D02*
X166935295Y-59982857D01*
X166935295Y-59982857D02*
X167078152Y-59982857D01*
X167078152Y-59982857D02*
X167173390Y-60030476D01*
X167173390Y-60030476D02*
X167221009Y-60078095D01*
X167221009Y-60078095D02*
X167268628Y-60173333D01*
X167268628Y-60173333D02*
X167268628Y-60554285D01*
X167744819Y-59030476D02*
X167744819Y-59601904D01*
X167744819Y-59316190D02*
X166744819Y-59316190D01*
X166744819Y-59316190D02*
X166887676Y-59411428D01*
X166887676Y-59411428D02*
X166982914Y-59506666D01*
X166982914Y-59506666D02*
X167030533Y-59601904D01*
X166744819Y-58125714D02*
X166744819Y-58601904D01*
X166744819Y-58601904D02*
X167221009Y-58649523D01*
X167221009Y-58649523D02*
X167173390Y-58601904D01*
X167173390Y-58601904D02*
X167125771Y-58506666D01*
X167125771Y-58506666D02*
X167125771Y-58268571D01*
X167125771Y-58268571D02*
X167173390Y-58173333D01*
X167173390Y-58173333D02*
X167221009Y-58125714D01*
X167221009Y-58125714D02*
X167316247Y-58078095D01*
X167316247Y-58078095D02*
X167554342Y-58078095D01*
X167554342Y-58078095D02*
X167649580Y-58125714D01*
X167649580Y-58125714D02*
X167697200Y-58173333D01*
X167697200Y-58173333D02*
X167744819Y-58268571D01*
X167744819Y-58268571D02*
X167744819Y-58506666D01*
X167744819Y-58506666D02*
X167697200Y-58601904D01*
X167697200Y-58601904D02*
X167649580Y-58649523D01*
X191767142Y-74449580D02*
X191719523Y-74497200D01*
X191719523Y-74497200D02*
X191576666Y-74544819D01*
X191576666Y-74544819D02*
X191481428Y-74544819D01*
X191481428Y-74544819D02*
X191338571Y-74497200D01*
X191338571Y-74497200D02*
X191243333Y-74401961D01*
X191243333Y-74401961D02*
X191195714Y-74306723D01*
X191195714Y-74306723D02*
X191148095Y-74116247D01*
X191148095Y-74116247D02*
X191148095Y-73973390D01*
X191148095Y-73973390D02*
X191195714Y-73782914D01*
X191195714Y-73782914D02*
X191243333Y-73687676D01*
X191243333Y-73687676D02*
X191338571Y-73592438D01*
X191338571Y-73592438D02*
X191481428Y-73544819D01*
X191481428Y-73544819D02*
X191576666Y-73544819D01*
X191576666Y-73544819D02*
X191719523Y-73592438D01*
X191719523Y-73592438D02*
X191767142Y-73640057D01*
X192148095Y-73640057D02*
X192195714Y-73592438D01*
X192195714Y-73592438D02*
X192290952Y-73544819D01*
X192290952Y-73544819D02*
X192529047Y-73544819D01*
X192529047Y-73544819D02*
X192624285Y-73592438D01*
X192624285Y-73592438D02*
X192671904Y-73640057D01*
X192671904Y-73640057D02*
X192719523Y-73735295D01*
X192719523Y-73735295D02*
X192719523Y-73830533D01*
X192719523Y-73830533D02*
X192671904Y-73973390D01*
X192671904Y-73973390D02*
X192100476Y-74544819D01*
X192100476Y-74544819D02*
X192719523Y-74544819D01*
X193338571Y-73544819D02*
X193433809Y-73544819D01*
X193433809Y-73544819D02*
X193529047Y-73592438D01*
X193529047Y-73592438D02*
X193576666Y-73640057D01*
X193576666Y-73640057D02*
X193624285Y-73735295D01*
X193624285Y-73735295D02*
X193671904Y-73925771D01*
X193671904Y-73925771D02*
X193671904Y-74163866D01*
X193671904Y-74163866D02*
X193624285Y-74354342D01*
X193624285Y-74354342D02*
X193576666Y-74449580D01*
X193576666Y-74449580D02*
X193529047Y-74497200D01*
X193529047Y-74497200D02*
X193433809Y-74544819D01*
X193433809Y-74544819D02*
X193338571Y-74544819D01*
X193338571Y-74544819D02*
X193243333Y-74497200D01*
X193243333Y-74497200D02*
X193195714Y-74449580D01*
X193195714Y-74449580D02*
X193148095Y-74354342D01*
X193148095Y-74354342D02*
X193100476Y-74163866D01*
X193100476Y-74163866D02*
X193100476Y-73925771D01*
X193100476Y-73925771D02*
X193148095Y-73735295D01*
X193148095Y-73735295D02*
X193195714Y-73640057D01*
X193195714Y-73640057D02*
X193243333Y-73592438D01*
X193243333Y-73592438D02*
X193338571Y-73544819D01*
X178871169Y-62569693D02*
X178803825Y-62569693D01*
X178803825Y-62569693D02*
X178669138Y-62502349D01*
X178669138Y-62502349D02*
X178601795Y-62435006D01*
X178601795Y-62435006D02*
X178534451Y-62300319D01*
X178534451Y-62300319D02*
X178534451Y-62165632D01*
X178534451Y-62165632D02*
X178568123Y-62064617D01*
X178568123Y-62064617D02*
X178669138Y-61896258D01*
X178669138Y-61896258D02*
X178770153Y-61795243D01*
X178770153Y-61795243D02*
X178938512Y-61694227D01*
X178938512Y-61694227D02*
X179039527Y-61660556D01*
X179039527Y-61660556D02*
X179174214Y-61660556D01*
X179174214Y-61660556D02*
X179308901Y-61727899D01*
X179308901Y-61727899D02*
X179376245Y-61795243D01*
X179376245Y-61795243D02*
X179443588Y-61929930D01*
X179443588Y-61929930D02*
X179443588Y-61997273D01*
X179746634Y-62165632D02*
X180184367Y-62603365D01*
X180184367Y-62603365D02*
X179679291Y-62637036D01*
X179679291Y-62637036D02*
X179780306Y-62738052D01*
X179780306Y-62738052D02*
X179813978Y-62839067D01*
X179813978Y-62839067D02*
X179813978Y-62906410D01*
X179813978Y-62906410D02*
X179780306Y-63007426D01*
X179780306Y-63007426D02*
X179611947Y-63175784D01*
X179611947Y-63175784D02*
X179510932Y-63209456D01*
X179510932Y-63209456D02*
X179443588Y-63209456D01*
X179443588Y-63209456D02*
X179342573Y-63175784D01*
X179342573Y-63175784D02*
X179140543Y-62973754D01*
X179140543Y-62973754D02*
X179106871Y-62872739D01*
X179106871Y-62872739D02*
X179106871Y-62805395D01*
X179813978Y-63647189D02*
X179948665Y-63781876D01*
X179948665Y-63781876D02*
X180049680Y-63815548D01*
X180049680Y-63815548D02*
X180117024Y-63815548D01*
X180117024Y-63815548D02*
X180285382Y-63781876D01*
X180285382Y-63781876D02*
X180453741Y-63680861D01*
X180453741Y-63680861D02*
X180723115Y-63411487D01*
X180723115Y-63411487D02*
X180756787Y-63310472D01*
X180756787Y-63310472D02*
X180756787Y-63243128D01*
X180756787Y-63243128D02*
X180723115Y-63142113D01*
X180723115Y-63142113D02*
X180588428Y-63007426D01*
X180588428Y-63007426D02*
X180487413Y-62973754D01*
X180487413Y-62973754D02*
X180420069Y-62973754D01*
X180420069Y-62973754D02*
X180319054Y-63007426D01*
X180319054Y-63007426D02*
X180150695Y-63175785D01*
X180150695Y-63175785D02*
X180117024Y-63276800D01*
X180117024Y-63276800D02*
X180117024Y-63344143D01*
X180117024Y-63344143D02*
X180150695Y-63445159D01*
X180150695Y-63445159D02*
X180285382Y-63579846D01*
X180285382Y-63579846D02*
X180386398Y-63613517D01*
X180386398Y-63613517D02*
X180453741Y-63613517D01*
X180453741Y-63613517D02*
X180554756Y-63579846D01*
X172143980Y-61457856D02*
X172191600Y-61505475D01*
X172191600Y-61505475D02*
X172239219Y-61648332D01*
X172239219Y-61648332D02*
X172239219Y-61743570D01*
X172239219Y-61743570D02*
X172191600Y-61886427D01*
X172191600Y-61886427D02*
X172096361Y-61981665D01*
X172096361Y-61981665D02*
X172001123Y-62029284D01*
X172001123Y-62029284D02*
X171810647Y-62076903D01*
X171810647Y-62076903D02*
X171667790Y-62076903D01*
X171667790Y-62076903D02*
X171477314Y-62029284D01*
X171477314Y-62029284D02*
X171382076Y-61981665D01*
X171382076Y-61981665D02*
X171286838Y-61886427D01*
X171286838Y-61886427D02*
X171239219Y-61743570D01*
X171239219Y-61743570D02*
X171239219Y-61648332D01*
X171239219Y-61648332D02*
X171286838Y-61505475D01*
X171286838Y-61505475D02*
X171334457Y-61457856D01*
X171239219Y-61124522D02*
X171239219Y-60505475D01*
X171239219Y-60505475D02*
X171620171Y-60838808D01*
X171620171Y-60838808D02*
X171620171Y-60695951D01*
X171620171Y-60695951D02*
X171667790Y-60600713D01*
X171667790Y-60600713D02*
X171715409Y-60553094D01*
X171715409Y-60553094D02*
X171810647Y-60505475D01*
X171810647Y-60505475D02*
X172048742Y-60505475D01*
X172048742Y-60505475D02*
X172143980Y-60553094D01*
X172143980Y-60553094D02*
X172191600Y-60600713D01*
X172191600Y-60600713D02*
X172239219Y-60695951D01*
X172239219Y-60695951D02*
X172239219Y-60981665D01*
X172239219Y-60981665D02*
X172191600Y-61076903D01*
X172191600Y-61076903D02*
X172143980Y-61124522D01*
X171239219Y-60172141D02*
X171239219Y-59505475D01*
X171239219Y-59505475D02*
X172239219Y-59934046D01*
X177563333Y-49889580D02*
X177515714Y-49937200D01*
X177515714Y-49937200D02*
X177372857Y-49984819D01*
X177372857Y-49984819D02*
X177277619Y-49984819D01*
X177277619Y-49984819D02*
X177134762Y-49937200D01*
X177134762Y-49937200D02*
X177039524Y-49841961D01*
X177039524Y-49841961D02*
X176991905Y-49746723D01*
X176991905Y-49746723D02*
X176944286Y-49556247D01*
X176944286Y-49556247D02*
X176944286Y-49413390D01*
X176944286Y-49413390D02*
X176991905Y-49222914D01*
X176991905Y-49222914D02*
X177039524Y-49127676D01*
X177039524Y-49127676D02*
X177134762Y-49032438D01*
X177134762Y-49032438D02*
X177277619Y-48984819D01*
X177277619Y-48984819D02*
X177372857Y-48984819D01*
X177372857Y-48984819D02*
X177515714Y-49032438D01*
X177515714Y-49032438D02*
X177563333Y-49080057D01*
X178468095Y-48984819D02*
X177991905Y-48984819D01*
X177991905Y-48984819D02*
X177944286Y-49461009D01*
X177944286Y-49461009D02*
X177991905Y-49413390D01*
X177991905Y-49413390D02*
X178087143Y-49365771D01*
X178087143Y-49365771D02*
X178325238Y-49365771D01*
X178325238Y-49365771D02*
X178420476Y-49413390D01*
X178420476Y-49413390D02*
X178468095Y-49461009D01*
X178468095Y-49461009D02*
X178515714Y-49556247D01*
X178515714Y-49556247D02*
X178515714Y-49794342D01*
X178515714Y-49794342D02*
X178468095Y-49889580D01*
X178468095Y-49889580D02*
X178420476Y-49937200D01*
X178420476Y-49937200D02*
X178325238Y-49984819D01*
X178325238Y-49984819D02*
X178087143Y-49984819D01*
X178087143Y-49984819D02*
X177991905Y-49937200D01*
X177991905Y-49937200D02*
X177944286Y-49889580D01*
X195602142Y-70809580D02*
X195554523Y-70857200D01*
X195554523Y-70857200D02*
X195411666Y-70904819D01*
X195411666Y-70904819D02*
X195316428Y-70904819D01*
X195316428Y-70904819D02*
X195173571Y-70857200D01*
X195173571Y-70857200D02*
X195078333Y-70761961D01*
X195078333Y-70761961D02*
X195030714Y-70666723D01*
X195030714Y-70666723D02*
X194983095Y-70476247D01*
X194983095Y-70476247D02*
X194983095Y-70333390D01*
X194983095Y-70333390D02*
X195030714Y-70142914D01*
X195030714Y-70142914D02*
X195078333Y-70047676D01*
X195078333Y-70047676D02*
X195173571Y-69952438D01*
X195173571Y-69952438D02*
X195316428Y-69904819D01*
X195316428Y-69904819D02*
X195411666Y-69904819D01*
X195411666Y-69904819D02*
X195554523Y-69952438D01*
X195554523Y-69952438D02*
X195602142Y-70000057D01*
X195983095Y-70000057D02*
X196030714Y-69952438D01*
X196030714Y-69952438D02*
X196125952Y-69904819D01*
X196125952Y-69904819D02*
X196364047Y-69904819D01*
X196364047Y-69904819D02*
X196459285Y-69952438D01*
X196459285Y-69952438D02*
X196506904Y-70000057D01*
X196506904Y-70000057D02*
X196554523Y-70095295D01*
X196554523Y-70095295D02*
X196554523Y-70190533D01*
X196554523Y-70190533D02*
X196506904Y-70333390D01*
X196506904Y-70333390D02*
X195935476Y-70904819D01*
X195935476Y-70904819D02*
X196554523Y-70904819D01*
X197411666Y-69904819D02*
X197221190Y-69904819D01*
X197221190Y-69904819D02*
X197125952Y-69952438D01*
X197125952Y-69952438D02*
X197078333Y-70000057D01*
X197078333Y-70000057D02*
X196983095Y-70142914D01*
X196983095Y-70142914D02*
X196935476Y-70333390D01*
X196935476Y-70333390D02*
X196935476Y-70714342D01*
X196935476Y-70714342D02*
X196983095Y-70809580D01*
X196983095Y-70809580D02*
X197030714Y-70857200D01*
X197030714Y-70857200D02*
X197125952Y-70904819D01*
X197125952Y-70904819D02*
X197316428Y-70904819D01*
X197316428Y-70904819D02*
X197411666Y-70857200D01*
X197411666Y-70857200D02*
X197459285Y-70809580D01*
X197459285Y-70809580D02*
X197506904Y-70714342D01*
X197506904Y-70714342D02*
X197506904Y-70476247D01*
X197506904Y-70476247D02*
X197459285Y-70381009D01*
X197459285Y-70381009D02*
X197411666Y-70333390D01*
X197411666Y-70333390D02*
X197316428Y-70285771D01*
X197316428Y-70285771D02*
X197125952Y-70285771D01*
X197125952Y-70285771D02*
X197030714Y-70333390D01*
X197030714Y-70333390D02*
X196983095Y-70381009D01*
X196983095Y-70381009D02*
X196935476Y-70476247D01*
X180100543Y-61373754D02*
X180201558Y-60801335D01*
X179696482Y-60969693D02*
X180403589Y-60262587D01*
X180403589Y-60262587D02*
X180672963Y-60531961D01*
X180672963Y-60531961D02*
X180706635Y-60632976D01*
X180706635Y-60632976D02*
X180706635Y-60700319D01*
X180706635Y-60700319D02*
X180672963Y-60801335D01*
X180672963Y-60801335D02*
X180571948Y-60902350D01*
X180571948Y-60902350D02*
X180470932Y-60936022D01*
X180470932Y-60936022D02*
X180403589Y-60936022D01*
X180403589Y-60936022D02*
X180302574Y-60902350D01*
X180302574Y-60902350D02*
X180033200Y-60632976D01*
X181178039Y-61508441D02*
X180706635Y-61979846D01*
X181279054Y-61070709D02*
X180605619Y-61407426D01*
X180605619Y-61407426D02*
X181043352Y-61845159D01*
X185267142Y-41859580D02*
X185219523Y-41907200D01*
X185219523Y-41907200D02*
X185076666Y-41954819D01*
X185076666Y-41954819D02*
X184981428Y-41954819D01*
X184981428Y-41954819D02*
X184838571Y-41907200D01*
X184838571Y-41907200D02*
X184743333Y-41811961D01*
X184743333Y-41811961D02*
X184695714Y-41716723D01*
X184695714Y-41716723D02*
X184648095Y-41526247D01*
X184648095Y-41526247D02*
X184648095Y-41383390D01*
X184648095Y-41383390D02*
X184695714Y-41192914D01*
X184695714Y-41192914D02*
X184743333Y-41097676D01*
X184743333Y-41097676D02*
X184838571Y-41002438D01*
X184838571Y-41002438D02*
X184981428Y-40954819D01*
X184981428Y-40954819D02*
X185076666Y-40954819D01*
X185076666Y-40954819D02*
X185219523Y-41002438D01*
X185219523Y-41002438D02*
X185267142Y-41050057D01*
X186124285Y-41288152D02*
X186124285Y-41954819D01*
X185886190Y-40907200D02*
X185648095Y-41621485D01*
X185648095Y-41621485D02*
X186267142Y-41621485D01*
X187171904Y-41954819D02*
X186600476Y-41954819D01*
X186886190Y-41954819D02*
X186886190Y-40954819D01*
X186886190Y-40954819D02*
X186790952Y-41097676D01*
X186790952Y-41097676D02*
X186695714Y-41192914D01*
X186695714Y-41192914D02*
X186600476Y-41240533D01*
X200119580Y-78852857D02*
X200167200Y-78900476D01*
X200167200Y-78900476D02*
X200214819Y-79043333D01*
X200214819Y-79043333D02*
X200214819Y-79138571D01*
X200214819Y-79138571D02*
X200167200Y-79281428D01*
X200167200Y-79281428D02*
X200071961Y-79376666D01*
X200071961Y-79376666D02*
X199976723Y-79424285D01*
X199976723Y-79424285D02*
X199786247Y-79471904D01*
X199786247Y-79471904D02*
X199643390Y-79471904D01*
X199643390Y-79471904D02*
X199452914Y-79424285D01*
X199452914Y-79424285D02*
X199357676Y-79376666D01*
X199357676Y-79376666D02*
X199262438Y-79281428D01*
X199262438Y-79281428D02*
X199214819Y-79138571D01*
X199214819Y-79138571D02*
X199214819Y-79043333D01*
X199214819Y-79043333D02*
X199262438Y-78900476D01*
X199262438Y-78900476D02*
X199310057Y-78852857D01*
X199310057Y-78471904D02*
X199262438Y-78424285D01*
X199262438Y-78424285D02*
X199214819Y-78329047D01*
X199214819Y-78329047D02*
X199214819Y-78090952D01*
X199214819Y-78090952D02*
X199262438Y-77995714D01*
X199262438Y-77995714D02*
X199310057Y-77948095D01*
X199310057Y-77948095D02*
X199405295Y-77900476D01*
X199405295Y-77900476D02*
X199500533Y-77900476D01*
X199500533Y-77900476D02*
X199643390Y-77948095D01*
X199643390Y-77948095D02*
X200214819Y-78519523D01*
X200214819Y-78519523D02*
X200214819Y-77900476D01*
X199214819Y-77567142D02*
X199214819Y-76948095D01*
X199214819Y-76948095D02*
X199595771Y-77281428D01*
X199595771Y-77281428D02*
X199595771Y-77138571D01*
X199595771Y-77138571D02*
X199643390Y-77043333D01*
X199643390Y-77043333D02*
X199691009Y-76995714D01*
X199691009Y-76995714D02*
X199786247Y-76948095D01*
X199786247Y-76948095D02*
X200024342Y-76948095D01*
X200024342Y-76948095D02*
X200119580Y-76995714D01*
X200119580Y-76995714D02*
X200167200Y-77043333D01*
X200167200Y-77043333D02*
X200214819Y-77138571D01*
X200214819Y-77138571D02*
X200214819Y-77424285D01*
X200214819Y-77424285D02*
X200167200Y-77519523D01*
X200167200Y-77519523D02*
X200119580Y-77567142D01*
X161827142Y-51279580D02*
X161779523Y-51327200D01*
X161779523Y-51327200D02*
X161636666Y-51374819D01*
X161636666Y-51374819D02*
X161541428Y-51374819D01*
X161541428Y-51374819D02*
X161398571Y-51327200D01*
X161398571Y-51327200D02*
X161303333Y-51231961D01*
X161303333Y-51231961D02*
X161255714Y-51136723D01*
X161255714Y-51136723D02*
X161208095Y-50946247D01*
X161208095Y-50946247D02*
X161208095Y-50803390D01*
X161208095Y-50803390D02*
X161255714Y-50612914D01*
X161255714Y-50612914D02*
X161303333Y-50517676D01*
X161303333Y-50517676D02*
X161398571Y-50422438D01*
X161398571Y-50422438D02*
X161541428Y-50374819D01*
X161541428Y-50374819D02*
X161636666Y-50374819D01*
X161636666Y-50374819D02*
X161779523Y-50422438D01*
X161779523Y-50422438D02*
X161827142Y-50470057D01*
X162160476Y-50374819D02*
X162779523Y-50374819D01*
X162779523Y-50374819D02*
X162446190Y-50755771D01*
X162446190Y-50755771D02*
X162589047Y-50755771D01*
X162589047Y-50755771D02*
X162684285Y-50803390D01*
X162684285Y-50803390D02*
X162731904Y-50851009D01*
X162731904Y-50851009D02*
X162779523Y-50946247D01*
X162779523Y-50946247D02*
X162779523Y-51184342D01*
X162779523Y-51184342D02*
X162731904Y-51279580D01*
X162731904Y-51279580D02*
X162684285Y-51327200D01*
X162684285Y-51327200D02*
X162589047Y-51374819D01*
X162589047Y-51374819D02*
X162303333Y-51374819D01*
X162303333Y-51374819D02*
X162208095Y-51327200D01*
X162208095Y-51327200D02*
X162160476Y-51279580D01*
X163731904Y-51374819D02*
X163160476Y-51374819D01*
X163446190Y-51374819D02*
X163446190Y-50374819D01*
X163446190Y-50374819D02*
X163350952Y-50517676D01*
X163350952Y-50517676D02*
X163255714Y-50612914D01*
X163255714Y-50612914D02*
X163160476Y-50660533D01*
X184599820Y-66260754D02*
X185409343Y-66260754D01*
X185409343Y-66260754D02*
X185504581Y-66213135D01*
X185504581Y-66213135D02*
X185552201Y-66165516D01*
X185552201Y-66165516D02*
X185599820Y-66070278D01*
X185599820Y-66070278D02*
X185599820Y-65879802D01*
X185599820Y-65879802D02*
X185552201Y-65784564D01*
X185552201Y-65784564D02*
X185504581Y-65736945D01*
X185504581Y-65736945D02*
X185409343Y-65689326D01*
X185409343Y-65689326D02*
X184599820Y-65689326D01*
X184599820Y-64736945D02*
X184599820Y-65213135D01*
X184599820Y-65213135D02*
X185076010Y-65260754D01*
X185076010Y-65260754D02*
X185028391Y-65213135D01*
X185028391Y-65213135D02*
X184980772Y-65117897D01*
X184980772Y-65117897D02*
X184980772Y-64879802D01*
X184980772Y-64879802D02*
X185028391Y-64784564D01*
X185028391Y-64784564D02*
X185076010Y-64736945D01*
X185076010Y-64736945D02*
X185171248Y-64689326D01*
X185171248Y-64689326D02*
X185409343Y-64689326D01*
X185409343Y-64689326D02*
X185504581Y-64736945D01*
X185504581Y-64736945D02*
X185552201Y-64784564D01*
X185552201Y-64784564D02*
X185599820Y-64879802D01*
X185599820Y-64879802D02*
X185599820Y-65117897D01*
X185599820Y-65117897D02*
X185552201Y-65213135D01*
X185552201Y-65213135D02*
X185504581Y-65260754D01*
X182050020Y-67981699D02*
X182288115Y-67981699D01*
X182192877Y-68219794D02*
X182288115Y-67981699D01*
X182288115Y-67981699D02*
X182192877Y-67743604D01*
X182478591Y-68124556D02*
X182288115Y-67981699D01*
X182288115Y-67981699D02*
X182478591Y-67838842D01*
X182050020Y-67981699D02*
X182288115Y-67981699D01*
X182192877Y-68219794D02*
X182288115Y-67981699D01*
X182288115Y-67981699D02*
X182192877Y-67743604D01*
X182478591Y-68124556D02*
X182288115Y-67981699D01*
X182288115Y-67981699D02*
X182478591Y-67838842D01*
X151249580Y-48492857D02*
X151297200Y-48540476D01*
X151297200Y-48540476D02*
X151344819Y-48683333D01*
X151344819Y-48683333D02*
X151344819Y-48778571D01*
X151344819Y-48778571D02*
X151297200Y-48921428D01*
X151297200Y-48921428D02*
X151201961Y-49016666D01*
X151201961Y-49016666D02*
X151106723Y-49064285D01*
X151106723Y-49064285D02*
X150916247Y-49111904D01*
X150916247Y-49111904D02*
X150773390Y-49111904D01*
X150773390Y-49111904D02*
X150582914Y-49064285D01*
X150582914Y-49064285D02*
X150487676Y-49016666D01*
X150487676Y-49016666D02*
X150392438Y-48921428D01*
X150392438Y-48921428D02*
X150344819Y-48778571D01*
X150344819Y-48778571D02*
X150344819Y-48683333D01*
X150344819Y-48683333D02*
X150392438Y-48540476D01*
X150392438Y-48540476D02*
X150440057Y-48492857D01*
X150678152Y-47635714D02*
X151344819Y-47635714D01*
X150297200Y-47873809D02*
X151011485Y-48111904D01*
X151011485Y-48111904D02*
X151011485Y-47492857D01*
X150344819Y-47207142D02*
X150344819Y-46588095D01*
X150344819Y-46588095D02*
X150725771Y-46921428D01*
X150725771Y-46921428D02*
X150725771Y-46778571D01*
X150725771Y-46778571D02*
X150773390Y-46683333D01*
X150773390Y-46683333D02*
X150821009Y-46635714D01*
X150821009Y-46635714D02*
X150916247Y-46588095D01*
X150916247Y-46588095D02*
X151154342Y-46588095D01*
X151154342Y-46588095D02*
X151249580Y-46635714D01*
X151249580Y-46635714D02*
X151297200Y-46683333D01*
X151297200Y-46683333D02*
X151344819Y-46778571D01*
X151344819Y-46778571D02*
X151344819Y-47064285D01*
X151344819Y-47064285D02*
X151297200Y-47159523D01*
X151297200Y-47159523D02*
X151249580Y-47207142D01*
X197153333Y-53029580D02*
X197105714Y-53077200D01*
X197105714Y-53077200D02*
X196962857Y-53124819D01*
X196962857Y-53124819D02*
X196867619Y-53124819D01*
X196867619Y-53124819D02*
X196724762Y-53077200D01*
X196724762Y-53077200D02*
X196629524Y-52981961D01*
X196629524Y-52981961D02*
X196581905Y-52886723D01*
X196581905Y-52886723D02*
X196534286Y-52696247D01*
X196534286Y-52696247D02*
X196534286Y-52553390D01*
X196534286Y-52553390D02*
X196581905Y-52362914D01*
X196581905Y-52362914D02*
X196629524Y-52267676D01*
X196629524Y-52267676D02*
X196724762Y-52172438D01*
X196724762Y-52172438D02*
X196867619Y-52124819D01*
X196867619Y-52124819D02*
X196962857Y-52124819D01*
X196962857Y-52124819D02*
X197105714Y-52172438D01*
X197105714Y-52172438D02*
X197153333Y-52220057D01*
X197629524Y-53124819D02*
X197820000Y-53124819D01*
X197820000Y-53124819D02*
X197915238Y-53077200D01*
X197915238Y-53077200D02*
X197962857Y-53029580D01*
X197962857Y-53029580D02*
X198058095Y-52886723D01*
X198058095Y-52886723D02*
X198105714Y-52696247D01*
X198105714Y-52696247D02*
X198105714Y-52315295D01*
X198105714Y-52315295D02*
X198058095Y-52220057D01*
X198058095Y-52220057D02*
X198010476Y-52172438D01*
X198010476Y-52172438D02*
X197915238Y-52124819D01*
X197915238Y-52124819D02*
X197724762Y-52124819D01*
X197724762Y-52124819D02*
X197629524Y-52172438D01*
X197629524Y-52172438D02*
X197581905Y-52220057D01*
X197581905Y-52220057D02*
X197534286Y-52315295D01*
X197534286Y-52315295D02*
X197534286Y-52553390D01*
X197534286Y-52553390D02*
X197581905Y-52648628D01*
X197581905Y-52648628D02*
X197629524Y-52696247D01*
X197629524Y-52696247D02*
X197724762Y-52743866D01*
X197724762Y-52743866D02*
X197915238Y-52743866D01*
X197915238Y-52743866D02*
X198010476Y-52696247D01*
X198010476Y-52696247D02*
X198058095Y-52648628D01*
X198058095Y-52648628D02*
X198105714Y-52553390D01*
X199727142Y-76229580D02*
X199679523Y-76277200D01*
X199679523Y-76277200D02*
X199536666Y-76324819D01*
X199536666Y-76324819D02*
X199441428Y-76324819D01*
X199441428Y-76324819D02*
X199298571Y-76277200D01*
X199298571Y-76277200D02*
X199203333Y-76181961D01*
X199203333Y-76181961D02*
X199155714Y-76086723D01*
X199155714Y-76086723D02*
X199108095Y-75896247D01*
X199108095Y-75896247D02*
X199108095Y-75753390D01*
X199108095Y-75753390D02*
X199155714Y-75562914D01*
X199155714Y-75562914D02*
X199203333Y-75467676D01*
X199203333Y-75467676D02*
X199298571Y-75372438D01*
X199298571Y-75372438D02*
X199441428Y-75324819D01*
X199441428Y-75324819D02*
X199536666Y-75324819D01*
X199536666Y-75324819D02*
X199679523Y-75372438D01*
X199679523Y-75372438D02*
X199727142Y-75420057D01*
X200060476Y-75324819D02*
X200679523Y-75324819D01*
X200679523Y-75324819D02*
X200346190Y-75705771D01*
X200346190Y-75705771D02*
X200489047Y-75705771D01*
X200489047Y-75705771D02*
X200584285Y-75753390D01*
X200584285Y-75753390D02*
X200631904Y-75801009D01*
X200631904Y-75801009D02*
X200679523Y-75896247D01*
X200679523Y-75896247D02*
X200679523Y-76134342D01*
X200679523Y-76134342D02*
X200631904Y-76229580D01*
X200631904Y-76229580D02*
X200584285Y-76277200D01*
X200584285Y-76277200D02*
X200489047Y-76324819D01*
X200489047Y-76324819D02*
X200203333Y-76324819D01*
X200203333Y-76324819D02*
X200108095Y-76277200D01*
X200108095Y-76277200D02*
X200060476Y-76229580D01*
X201060476Y-75420057D02*
X201108095Y-75372438D01*
X201108095Y-75372438D02*
X201203333Y-75324819D01*
X201203333Y-75324819D02*
X201441428Y-75324819D01*
X201441428Y-75324819D02*
X201536666Y-75372438D01*
X201536666Y-75372438D02*
X201584285Y-75420057D01*
X201584285Y-75420057D02*
X201631904Y-75515295D01*
X201631904Y-75515295D02*
X201631904Y-75610533D01*
X201631904Y-75610533D02*
X201584285Y-75753390D01*
X201584285Y-75753390D02*
X201012857Y-76324819D01*
X201012857Y-76324819D02*
X201631904Y-76324819D01*
X188699580Y-76452857D02*
X188747200Y-76500476D01*
X188747200Y-76500476D02*
X188794819Y-76643333D01*
X188794819Y-76643333D02*
X188794819Y-76738571D01*
X188794819Y-76738571D02*
X188747200Y-76881428D01*
X188747200Y-76881428D02*
X188651961Y-76976666D01*
X188651961Y-76976666D02*
X188556723Y-77024285D01*
X188556723Y-77024285D02*
X188366247Y-77071904D01*
X188366247Y-77071904D02*
X188223390Y-77071904D01*
X188223390Y-77071904D02*
X188032914Y-77024285D01*
X188032914Y-77024285D02*
X187937676Y-76976666D01*
X187937676Y-76976666D02*
X187842438Y-76881428D01*
X187842438Y-76881428D02*
X187794819Y-76738571D01*
X187794819Y-76738571D02*
X187794819Y-76643333D01*
X187794819Y-76643333D02*
X187842438Y-76500476D01*
X187842438Y-76500476D02*
X187890057Y-76452857D01*
X188794819Y-75500476D02*
X188794819Y-76071904D01*
X188794819Y-75786190D02*
X187794819Y-75786190D01*
X187794819Y-75786190D02*
X187937676Y-75881428D01*
X187937676Y-75881428D02*
X188032914Y-75976666D01*
X188032914Y-75976666D02*
X188080533Y-76071904D01*
X188128152Y-74643333D02*
X188794819Y-74643333D01*
X187747200Y-74881428D02*
X188461485Y-75119523D01*
X188461485Y-75119523D02*
X188461485Y-74500476D01*
X191173333Y-45989580D02*
X191125714Y-46037200D01*
X191125714Y-46037200D02*
X190982857Y-46084819D01*
X190982857Y-46084819D02*
X190887619Y-46084819D01*
X190887619Y-46084819D02*
X190744762Y-46037200D01*
X190744762Y-46037200D02*
X190649524Y-45941961D01*
X190649524Y-45941961D02*
X190601905Y-45846723D01*
X190601905Y-45846723D02*
X190554286Y-45656247D01*
X190554286Y-45656247D02*
X190554286Y-45513390D01*
X190554286Y-45513390D02*
X190601905Y-45322914D01*
X190601905Y-45322914D02*
X190649524Y-45227676D01*
X190649524Y-45227676D02*
X190744762Y-45132438D01*
X190744762Y-45132438D02*
X190887619Y-45084819D01*
X190887619Y-45084819D02*
X190982857Y-45084819D01*
X190982857Y-45084819D02*
X191125714Y-45132438D01*
X191125714Y-45132438D02*
X191173333Y-45180057D01*
X191506667Y-45084819D02*
X192125714Y-45084819D01*
X192125714Y-45084819D02*
X191792381Y-45465771D01*
X191792381Y-45465771D02*
X191935238Y-45465771D01*
X191935238Y-45465771D02*
X192030476Y-45513390D01*
X192030476Y-45513390D02*
X192078095Y-45561009D01*
X192078095Y-45561009D02*
X192125714Y-45656247D01*
X192125714Y-45656247D02*
X192125714Y-45894342D01*
X192125714Y-45894342D02*
X192078095Y-45989580D01*
X192078095Y-45989580D02*
X192030476Y-46037200D01*
X192030476Y-46037200D02*
X191935238Y-46084819D01*
X191935238Y-46084819D02*
X191649524Y-46084819D01*
X191649524Y-46084819D02*
X191554286Y-46037200D01*
X191554286Y-46037200D02*
X191506667Y-45989580D01*
X193249580Y-72442857D02*
X193297200Y-72490476D01*
X193297200Y-72490476D02*
X193344819Y-72633333D01*
X193344819Y-72633333D02*
X193344819Y-72728571D01*
X193344819Y-72728571D02*
X193297200Y-72871428D01*
X193297200Y-72871428D02*
X193201961Y-72966666D01*
X193201961Y-72966666D02*
X193106723Y-73014285D01*
X193106723Y-73014285D02*
X192916247Y-73061904D01*
X192916247Y-73061904D02*
X192773390Y-73061904D01*
X192773390Y-73061904D02*
X192582914Y-73014285D01*
X192582914Y-73014285D02*
X192487676Y-72966666D01*
X192487676Y-72966666D02*
X192392438Y-72871428D01*
X192392438Y-72871428D02*
X192344819Y-72728571D01*
X192344819Y-72728571D02*
X192344819Y-72633333D01*
X192344819Y-72633333D02*
X192392438Y-72490476D01*
X192392438Y-72490476D02*
X192440057Y-72442857D01*
X192440057Y-72061904D02*
X192392438Y-72014285D01*
X192392438Y-72014285D02*
X192344819Y-71919047D01*
X192344819Y-71919047D02*
X192344819Y-71680952D01*
X192344819Y-71680952D02*
X192392438Y-71585714D01*
X192392438Y-71585714D02*
X192440057Y-71538095D01*
X192440057Y-71538095D02*
X192535295Y-71490476D01*
X192535295Y-71490476D02*
X192630533Y-71490476D01*
X192630533Y-71490476D02*
X192773390Y-71538095D01*
X192773390Y-71538095D02*
X193344819Y-72109523D01*
X193344819Y-72109523D02*
X193344819Y-71490476D01*
X192678152Y-70633333D02*
X193344819Y-70633333D01*
X192297200Y-70871428D02*
X193011485Y-71109523D01*
X193011485Y-71109523D02*
X193011485Y-70490476D01*
X202679580Y-72412857D02*
X202727200Y-72460476D01*
X202727200Y-72460476D02*
X202774819Y-72603333D01*
X202774819Y-72603333D02*
X202774819Y-72698571D01*
X202774819Y-72698571D02*
X202727200Y-72841428D01*
X202727200Y-72841428D02*
X202631961Y-72936666D01*
X202631961Y-72936666D02*
X202536723Y-72984285D01*
X202536723Y-72984285D02*
X202346247Y-73031904D01*
X202346247Y-73031904D02*
X202203390Y-73031904D01*
X202203390Y-73031904D02*
X202012914Y-72984285D01*
X202012914Y-72984285D02*
X201917676Y-72936666D01*
X201917676Y-72936666D02*
X201822438Y-72841428D01*
X201822438Y-72841428D02*
X201774819Y-72698571D01*
X201774819Y-72698571D02*
X201774819Y-72603333D01*
X201774819Y-72603333D02*
X201822438Y-72460476D01*
X201822438Y-72460476D02*
X201870057Y-72412857D01*
X202774819Y-71460476D02*
X202774819Y-72031904D01*
X202774819Y-71746190D02*
X201774819Y-71746190D01*
X201774819Y-71746190D02*
X201917676Y-71841428D01*
X201917676Y-71841428D02*
X202012914Y-71936666D01*
X202012914Y-71936666D02*
X202060533Y-72031904D01*
X201774819Y-70555714D02*
X201774819Y-71031904D01*
X201774819Y-71031904D02*
X202251009Y-71079523D01*
X202251009Y-71079523D02*
X202203390Y-71031904D01*
X202203390Y-71031904D02*
X202155771Y-70936666D01*
X202155771Y-70936666D02*
X202155771Y-70698571D01*
X202155771Y-70698571D02*
X202203390Y-70603333D01*
X202203390Y-70603333D02*
X202251009Y-70555714D01*
X202251009Y-70555714D02*
X202346247Y-70508095D01*
X202346247Y-70508095D02*
X202584342Y-70508095D01*
X202584342Y-70508095D02*
X202679580Y-70555714D01*
X202679580Y-70555714D02*
X202727200Y-70603333D01*
X202727200Y-70603333D02*
X202774819Y-70698571D01*
X202774819Y-70698571D02*
X202774819Y-70936666D01*
X202774819Y-70936666D02*
X202727200Y-71031904D01*
X202727200Y-71031904D02*
X202679580Y-71079523D01*
%TO.C,C21*%
D14*
X166390000Y-65658752D02*
X166390000Y-64236248D01*
X168210000Y-65658752D02*
X168210000Y-64236248D01*
%TO.C,C18*%
X157890000Y-74638748D02*
X157890000Y-76061252D01*
X156070000Y-74638748D02*
X156070000Y-76061252D01*
%TO.C,R5*%
X185137500Y-57164724D02*
X185137500Y-56655276D01*
X186182500Y-57164724D02*
X186182500Y-56655276D01*
%TO.C,J6*%
X175410000Y-68500000D02*
X175410000Y-67120000D01*
X176790000Y-68500000D02*
X175410000Y-68500000D01*
X178060000Y-65740000D02*
X180710000Y-65740000D01*
X178060000Y-68500000D02*
X178060000Y-65740000D01*
X178060000Y-68500000D02*
X180710000Y-68500000D01*
X180710000Y-68500000D02*
X180710000Y-65740000D01*
%TO.C,C38*%
X177282802Y-53735949D02*
X177075949Y-53942802D01*
X178004051Y-54457198D02*
X177797198Y-54664051D01*
%TO.C,R9*%
X170917500Y-65775276D02*
X170917500Y-66284724D01*
X171962500Y-65775276D02*
X171962500Y-66284724D01*
%TO.C,C22*%
X167503733Y-68220000D02*
X167796267Y-68220000D01*
X167503733Y-69240000D02*
X167796267Y-69240000D01*
%TO.C,C25*%
X164450000Y-64516267D02*
X164450000Y-64223733D01*
X165470000Y-64516267D02*
X165470000Y-64223733D01*
%TO.C,J1*%
X151430000Y-61830000D02*
X151430000Y-64590000D01*
X156620000Y-61830000D02*
X151430000Y-61830000D01*
X156620000Y-61830000D02*
X156620000Y-64590000D01*
X156620000Y-64590000D02*
X151430000Y-64590000D01*
X157890000Y-61830000D02*
X159270000Y-61830000D01*
X159270000Y-61830000D02*
X159270000Y-63210000D01*
%TO.C,R2*%
X175378024Y-56147499D02*
X174868576Y-56147499D01*
X175378024Y-57192499D02*
X174868576Y-57192499D01*
%TO.C,C8*%
X188926267Y-43120000D02*
X188633733Y-43120000D01*
X188926267Y-44140000D02*
X188633733Y-44140000D01*
%TO.C,C11*%
X199503733Y-53650000D02*
X199796267Y-53650000D01*
X199503733Y-54670000D02*
X199796267Y-54670000D01*
%TO.C,JP3*%
X178790000Y-45170000D02*
X178790000Y-43770000D01*
X179490000Y-43070000D02*
X180090000Y-43070000D01*
X180090000Y-45870000D02*
X179490000Y-45870000D01*
X180790000Y-43770000D02*
X180790000Y-45170000D01*
X178790000Y-43770000D02*
G75*
G02*
X179490000Y-43070000I699999J1D01*
G01*
X179490000Y-45870000D02*
G75*
G02*
X178790000Y-45170000I0J700000D01*
G01*
X180090000Y-43070000D02*
G75*
G02*
X180790000Y-43770000I1J-699999D01*
G01*
X180790000Y-45170000D02*
G75*
G02*
X180090000Y-45870000I-700000J0D01*
G01*
%TO.C,R11*%
X175410524Y-57747499D02*
X174901076Y-57747499D01*
X175410524Y-58792499D02*
X174901076Y-58792499D01*
%TO.C,C12*%
X190040000Y-55103733D02*
X190040000Y-55396267D01*
X191060000Y-55103733D02*
X191060000Y-55396267D01*
%TO.C,C10*%
X192260000Y-55106267D02*
X192260000Y-54813733D01*
X193280000Y-55106267D02*
X193280000Y-54813733D01*
%TO.C,C42*%
X180353767Y-46520000D02*
X180061233Y-46520000D01*
X180353767Y-47540000D02*
X180061233Y-47540000D01*
%TO.C,U1*%
D15*
X180344700Y-55783600D02*
X180344700Y-56250259D01*
X180344700Y-58669741D02*
X180344700Y-59136400D01*
X180344700Y-59136400D02*
X180811359Y-59136400D01*
X180811359Y-55783600D02*
X180344700Y-55783600D01*
X183230841Y-59136400D02*
X183697500Y-59136400D01*
X183697500Y-55783600D02*
X183230841Y-55783600D01*
X183697500Y-56250259D02*
X183697500Y-55783600D01*
X183697500Y-59136400D02*
X183697500Y-58669741D01*
D16*
G36*
X184383300Y-57900500D02*
G01*
X184129300Y-57900500D01*
X184129300Y-57519499D01*
X184383300Y-57519499D01*
X184383300Y-57900500D01*
G37*
%TO.C,JP1*%
D14*
X187360000Y-38200000D02*
X187360000Y-37600000D01*
X188060000Y-36900000D02*
X189460000Y-36900000D01*
X189460000Y-38900000D02*
X188060000Y-38900000D01*
X190160000Y-37600000D02*
X190160000Y-38200000D01*
X187360000Y-37600000D02*
G75*
G02*
X188060000Y-36900000I700000J0D01*
G01*
X188060000Y-38900000D02*
G75*
G02*
X187360000Y-38200000I0J700000D01*
G01*
X189460000Y-36900000D02*
G75*
G02*
X190160000Y-37600000I1J-699999D01*
G01*
X190160000Y-38200000D02*
G75*
G02*
X189460000Y-38900000I-699999J-1D01*
G01*
%TO.C,C40*%
X161282583Y-48974999D02*
X161575117Y-48974999D01*
X161282583Y-49994999D02*
X161575117Y-49994999D01*
%TO.C,J4*%
X201760000Y-42450000D02*
X201760000Y-37260000D01*
X204520000Y-37260000D02*
X201760000Y-37260000D01*
X204520000Y-42450000D02*
X201760000Y-42450000D01*
X204520000Y-42450000D02*
X204520000Y-37260000D01*
X204520000Y-43720000D02*
X204520000Y-45100000D01*
X204520000Y-45100000D02*
X203140000Y-45100000D01*
%TO.C,C29*%
X164108133Y-53794999D02*
X164400667Y-53794999D01*
X164108133Y-54814999D02*
X164400667Y-54814999D01*
%TO.C,C36*%
X169854400Y-54261266D02*
X169854400Y-53968732D01*
X170874400Y-54261266D02*
X170874400Y-53968732D01*
%TO.C,C2*%
X191370000Y-58986233D02*
X191370000Y-59278767D01*
X192390000Y-58986233D02*
X192390000Y-59278767D01*
%TO.C,C1*%
X182020000Y-61173733D02*
X182020000Y-61466267D01*
X183040000Y-61173733D02*
X183040000Y-61466267D01*
%TO.C,C44*%
X185603733Y-69030000D02*
X185896267Y-69030000D01*
X185603733Y-70050000D02*
X185896267Y-70050000D01*
%TO.C,J7*%
X167265000Y-46040000D02*
X167265000Y-44660000D01*
X168645000Y-46040000D02*
X167265000Y-46040000D01*
X169915000Y-43280000D02*
X172565000Y-43280000D01*
X169915000Y-46040000D02*
X169915000Y-43280000D01*
X169915000Y-46040000D02*
X172565000Y-46040000D01*
X172565000Y-46040000D02*
X172565000Y-43280000D01*
%TO.C,U6*%
D15*
X193228599Y-48044750D02*
X193228599Y-51397550D01*
X193228599Y-51397550D02*
X193381360Y-51397550D01*
X193381360Y-48044750D02*
X193228599Y-48044750D01*
X196428638Y-51397550D02*
X196581399Y-51397550D01*
X196581399Y-48044750D02*
X196428638Y-48044750D01*
X196581399Y-51397550D02*
X196581399Y-48044750D01*
%TO.C,J5*%
D14*
X202010000Y-60300000D02*
X202010000Y-50030000D01*
X204770000Y-50030000D02*
X202010000Y-50030000D01*
X204770000Y-60300000D02*
X202010000Y-60300000D01*
X204770000Y-60300000D02*
X204770000Y-50030000D01*
X204770000Y-61570000D02*
X204770000Y-62950000D01*
X204770000Y-62950000D02*
X203390000Y-62950000D01*
%TO.C,R6*%
X153447500Y-71844724D02*
X153447500Y-71335276D01*
X154492500Y-71844724D02*
X154492500Y-71335276D01*
%TO.C,JP2*%
X184000000Y-40150000D02*
X184000000Y-39550000D01*
X184700000Y-38850000D02*
X186100000Y-38850000D01*
X186100000Y-40850000D02*
X184700000Y-40850000D01*
X186800000Y-39550000D02*
X186800000Y-40150000D01*
X184000000Y-39550000D02*
G75*
G02*
X184700000Y-38850000I700000J0D01*
G01*
X184700000Y-40850000D02*
G75*
G02*
X184000000Y-40150000I0J700000D01*
G01*
X186100000Y-38850000D02*
G75*
G02*
X186800000Y-39550000I1J-699999D01*
G01*
X186800000Y-40150000D02*
G75*
G02*
X186100000Y-40850000I-699999J-1D01*
G01*
%TO.C,U9*%
D15*
X154943600Y-47803600D02*
X154943600Y-47956361D01*
X154943600Y-51003639D02*
X154943600Y-51156400D01*
X154943600Y-51156400D02*
X158296400Y-51156400D01*
X158296400Y-47803600D02*
X154943600Y-47803600D01*
X158296400Y-47956361D02*
X158296400Y-47803600D01*
X158296400Y-51156400D02*
X158296400Y-51003639D01*
%TO.C,U7*%
X194828801Y-58287001D02*
X198082801Y-58287001D01*
X198082801Y-55033001D02*
X194828801Y-55033001D01*
D16*
G36*
X199691200Y-55850500D02*
G01*
X199437200Y-55850500D01*
X199437200Y-55469500D01*
X199691200Y-55469500D01*
X199691200Y-55850500D01*
G37*
%TO.C,R14*%
D14*
X163737500Y-57895276D02*
X163737500Y-58404724D01*
X164782500Y-57895276D02*
X164782500Y-58404724D01*
%TO.C,C35*%
X169834400Y-57601266D02*
X169834400Y-57308732D01*
X170854400Y-57601266D02*
X170854400Y-57308732D01*
%TO.C,R12*%
X149867500Y-55805974D02*
X149867500Y-55296526D01*
X150912500Y-55805974D02*
X150912500Y-55296526D01*
%TO.C,R7*%
X153427500Y-68484724D02*
X153427500Y-67975276D01*
X154472500Y-68484724D02*
X154472500Y-67975276D01*
%TO.C,R3*%
X178073720Y-55340653D02*
X178433954Y-54980419D01*
X178812646Y-56079579D02*
X179172880Y-55719345D01*
%TO.C,C7*%
X196950000Y-49453733D02*
X196950000Y-49746267D01*
X197970000Y-49453733D02*
X197970000Y-49746267D01*
%TO.C,C34*%
X161180000Y-53256267D02*
X161180000Y-52963733D01*
X162200000Y-53256267D02*
X162200000Y-52963733D01*
%TO.C,C27*%
X156756267Y-71320000D02*
X156463733Y-71320000D01*
X156756267Y-72340000D02*
X156463733Y-72340000D01*
%TO.C,C28*%
X160570000Y-61683733D02*
X160570000Y-61976267D01*
X161590000Y-61683733D02*
X161590000Y-61976267D01*
%TO.C,R18*%
X152562776Y-56021250D02*
X153072224Y-56021250D01*
X152562776Y-57066250D02*
X153072224Y-57066250D01*
%TO.C,C6*%
X198800000Y-39256267D02*
X198800000Y-38963733D01*
X199820000Y-39256267D02*
X199820000Y-38963733D01*
%TO.C,C47*%
X154740000Y-57217483D02*
X154740000Y-57510017D01*
X155760000Y-57217483D02*
X155760000Y-57510017D01*
%TO.C,C13*%
X185433733Y-58920000D02*
X185726267Y-58920000D01*
X185433733Y-59940000D02*
X185726267Y-59940000D01*
%TO.C,U10*%
D15*
X158648300Y-55268300D02*
X158648300Y-59611700D01*
X158648300Y-59611700D02*
X159110260Y-59611700D01*
X159110260Y-55268300D02*
X158648300Y-55268300D01*
X162529740Y-59611700D02*
X162991700Y-59611700D01*
X162991700Y-55268300D02*
X162529740Y-55268300D01*
X162991700Y-59611700D02*
X162991700Y-55268300D01*
X159671600Y-60340300D02*
G75*
G02*
X159468400Y-60340300I-101600J0D01*
G01*
X159468400Y-60340300D02*
G75*
G02*
X159671600Y-60340300I101600J0D01*
G01*
%TO.C,U3*%
X192169100Y-43278900D02*
X196410900Y-43278900D01*
X196410900Y-38021100D02*
X192169100Y-38021100D01*
%TO.C,C45*%
D14*
X186003733Y-60820000D02*
X186296267Y-60820000D01*
X186003733Y-61840000D02*
X186296267Y-61840000D01*
%TO.C,C30*%
X164108133Y-52234999D02*
X164400667Y-52234999D01*
X164108133Y-53254999D02*
X164400667Y-53254999D01*
%TO.C,U8*%
D15*
X160059634Y-72928200D02*
X164080362Y-72928200D01*
X164080366Y-66171800D02*
X160059638Y-66171800D01*
D16*
G36*
X158260000Y-72665498D02*
G01*
X158006000Y-72665498D01*
X158006000Y-72284498D01*
X158260000Y-72284498D01*
X158260000Y-72665498D01*
G37*
G36*
X166134000Y-66815502D02*
G01*
X165880000Y-66815502D01*
X165880000Y-66434502D01*
X166134000Y-66434502D01*
X166134000Y-66815502D01*
G37*
%TO.C,TP2*%
D14*
X198080000Y-44850000D02*
G75*
G02*
X196180000Y-44850000I-950000J0D01*
G01*
X196180000Y-44850000D02*
G75*
G02*
X198080000Y-44850000I950000J0D01*
G01*
%TO.C,R10*%
X169627500Y-69365276D02*
X169627500Y-69874724D01*
X170672500Y-69365276D02*
X170672500Y-69874724D01*
%TO.C,R8*%
X187855276Y-56497500D02*
X188364724Y-56497500D01*
X187855276Y-57542500D02*
X188364724Y-57542500D01*
%TO.C,JP4*%
X181570000Y-43870000D02*
X181570000Y-42470000D01*
X182270000Y-41770000D02*
X182870000Y-41770000D01*
X182870000Y-44570000D02*
X182270000Y-44570000D01*
X183570000Y-42470000D02*
X183570000Y-43870000D01*
X181570000Y-42470000D02*
G75*
G02*
X182270000Y-41770000I700000J0D01*
G01*
X182270000Y-44570000D02*
G75*
G02*
X181570000Y-43870000I-1J699999D01*
G01*
X182870000Y-41770000D02*
G75*
G02*
X183570000Y-42470000I0J-700000D01*
G01*
X183570000Y-43870000D02*
G75*
G02*
X182870000Y-44570000I-699999J-1D01*
G01*
%TO.C,TP3*%
X191330000Y-51470000D02*
G75*
G02*
X189430000Y-51470000I-950000J0D01*
G01*
X189430000Y-51470000D02*
G75*
G02*
X191330000Y-51470000I950000J0D01*
G01*
%TO.C,U4*%
D15*
X183654950Y-50323900D02*
X187896750Y-50323900D01*
X187896750Y-45066100D02*
X183654950Y-45066100D01*
%TO.C,R15*%
D14*
X165317500Y-57104724D02*
X165317500Y-56595276D01*
X166362500Y-57104724D02*
X166362500Y-56595276D01*
%TO.C,C20*%
X156656267Y-69280000D02*
X156363733Y-69280000D01*
X156656267Y-70300000D02*
X156363733Y-70300000D01*
%TO.C,C39*%
X177282802Y-61064051D02*
X177075949Y-60857198D01*
X178004051Y-60342802D02*
X177797198Y-60135949D01*
%TO.C,C37*%
X169844400Y-60668732D02*
X169844400Y-60961266D01*
X170864400Y-60668732D02*
X170864400Y-60961266D01*
%TO.C,C5*%
X180436267Y-49050000D02*
X180143733Y-49050000D01*
X180436267Y-50070000D02*
X180143733Y-50070000D01*
%TO.C,C33*%
X154203733Y-54413750D02*
X154496267Y-54413750D01*
X154203733Y-55433750D02*
X154496267Y-55433750D01*
%TO.C,C26*%
X161563733Y-64730000D02*
X161856267Y-64730000D01*
X161563733Y-65750000D02*
X161856267Y-65750000D01*
%TO.C,C46*%
X154456267Y-59293750D02*
X154163733Y-59293750D01*
X154456267Y-60313750D02*
X154163733Y-60313750D01*
%TO.C,R4*%
X178153720Y-59569345D02*
X178513954Y-59929579D01*
X178892646Y-58830419D02*
X179252880Y-59190653D01*
%TO.C,J3*%
D17*
X143014400Y-59538749D02*
X143014400Y-54838749D01*
X146314400Y-61488749D02*
G75*
G02*
X146114400Y-61488749I-100000J0D01*
G01*
X146114400Y-61488749D02*
G75*
G02*
X146314400Y-61488749I100000J0D01*
G01*
%TO.C,C41*%
D14*
X188946267Y-40950000D02*
X188653733Y-40950000D01*
X188946267Y-41970000D02*
X188653733Y-41970000D01*
%TO.C,C23*%
X166250000Y-72916267D02*
X166250000Y-72623733D01*
X167270000Y-72916267D02*
X167270000Y-72623733D01*
%TO.C,C31*%
X158940000Y-52703733D02*
X158940000Y-52996267D01*
X159960000Y-52703733D02*
X159960000Y-52996267D01*
%TO.C,U5*%
D15*
X183468601Y-63822450D02*
X183468601Y-67175250D01*
X183468601Y-67175250D02*
X183621362Y-67175250D01*
X183621362Y-63822450D02*
X183468601Y-63822450D01*
X186668640Y-67175250D02*
X186821401Y-67175250D01*
X186821401Y-63822450D02*
X186668640Y-63822450D01*
X186821401Y-67175250D02*
X186821401Y-63822450D01*
%TO.C,C43*%
D14*
X151810000Y-47996267D02*
X151810000Y-47703733D01*
X152830000Y-47996267D02*
X152830000Y-47703733D01*
%TO.C,C9*%
X195283735Y-53210000D02*
X195576269Y-53210000D01*
X195283735Y-54230000D02*
X195576269Y-54230000D01*
%TO.C,C32*%
X167793767Y-69790000D02*
X167501233Y-69790000D01*
X167793767Y-70810000D02*
X167501233Y-70810000D01*
%TO.C,C14*%
X151860000Y-71726267D02*
X151860000Y-71433733D01*
X152880000Y-71726267D02*
X152880000Y-71433733D01*
%TO.C,R16*%
X152562776Y-57511250D02*
X153072224Y-57511250D01*
X152562776Y-58556250D02*
X153072224Y-58556250D01*
%TO.C,C3*%
X191193733Y-46550000D02*
X191486267Y-46550000D01*
X191193733Y-47570000D02*
X191486267Y-47570000D01*
%TO.C,C24*%
X156230000Y-67006267D02*
X156230000Y-66713733D01*
X157250000Y-67006267D02*
X157250000Y-66713733D01*
%TO.C,C15*%
X168720000Y-65873733D02*
X168720000Y-66166267D01*
X169740000Y-65873733D02*
X169740000Y-66166267D01*
%TO.C,R13*%
X149847500Y-58639026D02*
X149847500Y-59148474D01*
X150892500Y-58639026D02*
X150892500Y-59148474D01*
%TD*%
M02*
