M48
; DRILL file KiCad 10.0.5 date 2026-08-03T15:54:41
; FORMAT={-:-/ absolute / metric / decimal}
; #@! TF.CreationDate,2026-08-03T15:54:41-04:00
; #@! TF.GenerationSoftware,Kicad,Pcbnew,10.0.5
; #@! TF.FileFunction,Plated,1,2,PTH
FMAT,2
METRIC
; #@! TA.AperFunction,Plated,PTH,ViaDrill
T1C0.300
; #@! TA.AperFunction,Plated,PTH,ComponentDrill
T2C0.640
; #@! TA.AperFunction,Plated,PTH,ComponentDrill
T3C0.840
; #@! TA.AperFunction,Plated,PTH,ComponentDrill
T4C1.000
%
G90
G05
T1
X150.37Y-59.806
X150.39Y-54.639
X152.32Y-46.987
X153.447Y-59.804
X153.487Y-54.924
X153.95Y-67.317
X154.391Y-50.13
X155.08Y-68.46
X155.09Y-71.84
X155.647Y-69.79
X156.74Y-65.998
X156.98Y-76.912
X158.74Y-69.24
X159.19Y-72.5
X159.193Y-67.925
X159.193Y-69.875
X159.45Y-51.987
X160.25Y-54.42
X160.804Y-57.468
X161.062Y-60.915
X161.08Y-62.692
X161.4Y-72.49
X161.69Y-52.247
X162.07Y-69.55
X162.291Y-49.485
X163.392Y-54.305
X164.68Y-74.34
X164.947Y-69.875
X164.98Y-63.51
X165.117Y-52.745
X165.117Y-54.305
X167.3Y-63.385
X167.3Y-66.51
X168.55Y-68.74
X168.55Y-70.36
X170.17Y-70.54
X170.354Y-61.677
X170.364Y-53.252
X179.345Y-47.03
X179.427Y-49.56
X181.11Y-55.63
X181.66Y-55.22
X182.021Y-57.46
X182.41Y-55.22
X182.53Y-62.182
X182.57Y-42.52
X182.91Y-55.64
X184.75Y-39.85
X185.73Y-47.68
X185.78Y-67.728
X186.46Y-59.41
X186.612Y-69.54
X187.012Y-61.33
X187.917Y-43.63
X187.938Y-41.46
X188.5Y-45.79
X190.55Y-54.34
X191.91Y-60.02
X191.952Y-47.07
X192.77Y-54.097
X193.53Y-58.0
X193.63Y-52.05
X194.16Y-47.542
X194.35Y-40.68
X196.09Y-52.05
X196.293Y-53.72
X197.074Y-38.775
X197.46Y-50.462
X199.31Y-38.247
X200.512Y-54.16
T2
X146.214Y-56.554
X146.214Y-57.824
T3
X144.944Y-55.919
X144.944Y-58.459
X147.484Y-55.919
X147.484Y-58.459
T4
X152.81Y-63.21
X155.35Y-63.21
X157.89Y-63.21
X168.645Y-44.66
X171.185Y-44.66
X176.79Y-67.12
X179.33Y-67.12
X203.14Y-38.64
X203.14Y-41.18
X203.14Y-43.72
X203.39Y-51.41
X203.39Y-53.95
X203.39Y-56.49
X203.39Y-59.03
X203.39Y-61.57
M30
