M48
; DRILL file {KiCad 9.0.1} date 2026-05-20T10:42:28-0400
; FORMAT={-:-/ absolute / metric / decimal}
; #@! TF.CreationDate,2026-05-20T10:42:28-04:00
; #@! TF.GenerationSoftware,Kicad,Pcbnew,9.0.1
; #@! TF.FileFunction,Plated,1,2,PTH
FMAT,2
METRIC
; #@! TA.AperFunction,Plated,PTH,ViaDrill
T1C0.300
; #@! TA.AperFunction,Plated,PTH,ComponentDrill
T2C1.000
; #@! TA.AperFunction,Plated,PTH,ComponentDrill
T3C1.100
; #@! TA.AperFunction,Plated,PTH,ComponentDrill
T4C1.500
%
G90
G05
T1
X162.825Y-79.05
X163.561Y-70.864
X164.975Y-78.95
X168.088Y-76.312
X168.125Y-77.725
X170.112Y-66.05
X170.3Y-64.25
X171.65Y-69.325
X171.925Y-74.675
X175.225Y-67.8
X176.45Y-62.1
X178.775Y-76.1
X179.787Y-71.537
X182.575Y-70.87
X183.787Y-62.537
X185.35Y-75.925
T2
X169.145Y-61.575
X171.685Y-61.575
X174.225Y-61.575
X188.725Y-62.86
X188.725Y-65.4
X188.725Y-67.94
X188.725Y-70.48
X188.725Y-73.02
X188.725Y-75.56
T3
X146.45Y-73.25
T4
X141.425Y-68.225
X141.425Y-78.275
X151.475Y-68.225
X151.475Y-78.275
M30
