%TF.GenerationSoftware,KiCad,Pcbnew,9.0.1*%
%TF.CreationDate,2026-05-20T10:42:03-04:00*%
%TF.ProjectId,ADC,4144432e-6b69-4636-9164-5f7063625858,rev?*%
%TF.SameCoordinates,Original*%
%TF.FileFunction,Copper,L2,Bot*%
%TF.FilePolarity,Positive*%
%FSLAX46Y46*%
G04 Gerber Fmt 4.6, Leading zero omitted, Abs format (unit mm)*
G04 Created by KiCad (PCBNEW 9.0.1) date 2026-05-20 10:42:03*
%MOMM*%
%LPD*%
G01*
G04 APERTURE LIST*
%TA.AperFunction,ComponentPad*%
%ADD10R,1.700000X1.700000*%
%TD*%
%TA.AperFunction,ComponentPad*%
%ADD11C,1.700000*%
%TD*%
%TA.AperFunction,ComponentPad*%
%ADD12R,3.500000X3.500000*%
%TD*%
%TA.AperFunction,ComponentPad*%
%ADD13C,4.000000*%
%TD*%
%TA.AperFunction,ViaPad*%
%ADD14C,0.600000*%
%TD*%
%TA.AperFunction,Conductor*%
%ADD15C,0.700000*%
%TD*%
%TA.AperFunction,Conductor*%
%ADD16C,0.200000*%
%TD*%
G04 APERTURE END LIST*
D10*
%TO.P,J3,1,Pin_1*%
%TO.N,Net-(J3-Pin_1)*%
X188725000Y-62860000D03*
D11*
%TO.P,J3,2,Pin_2*%
%TO.N,Net-(J3-Pin_2)*%
X188725000Y-65400000D03*
%TO.P,J3,3,Pin_3*%
%TO.N,Net-(J3-Pin_3)*%
X188725000Y-67940000D03*
%TO.P,J3,4,Pin_4*%
%TO.N,Net-(J3-Pin_4)*%
X188725000Y-70480000D03*
%TO.P,J3,5,Pin_5*%
%TO.N,Net-(J3-Pin_5)*%
X188725000Y-73020000D03*
%TO.P,J3,6,Pin_6*%
%TO.N,GND*%
X188725000Y-75560000D03*
%TD*%
D12*
%TO.P,J1,1,In*%
%TO.N,Net-(J1-In)*%
X146450000Y-73250000D03*
D13*
%TO.P,J1,2,Ext*%
%TO.N,Net-(J1-Ext)*%
X141425000Y-78275000D03*
X151475000Y-78275000D03*
X141425000Y-68225000D03*
X151475000Y-68225000D03*
%TD*%
D10*
%TO.P,J2,1,Pin_1*%
%TO.N,/Vref_in*%
X174225000Y-61575000D03*
D11*
%TO.P,J2,2,Pin_2*%
%TO.N,GND*%
X171685000Y-61575000D03*
%TO.P,J2,3,Pin_3*%
%TO.N,VCC*%
X169145000Y-61575000D03*
%TD*%
D14*
%TO.N,GND*%
X183787500Y-62537500D03*
X182575000Y-70870000D03*
X163561100Y-70863900D03*
X171650000Y-69325000D03*
X162825000Y-79050000D03*
X164975000Y-78950000D03*
X175225000Y-67800000D03*
X170300000Y-64250000D03*
X170112500Y-66050000D03*
X171925000Y-74675000D03*
X179787500Y-71537500D03*
X178775000Y-76100000D03*
X176450000Y-62100000D03*
X185350000Y-75925000D03*
%TO.N,/REF_ADC*%
X168087500Y-76312500D03*
X168125000Y-77725000D03*
%TD*%
D15*
%TO.N,GND*%
X188725000Y-75560000D02*
X185715000Y-75560000D01*
X185715000Y-75560000D02*
X185350000Y-75925000D01*
D16*
%TO.N,/REF_ADC*%
X168125000Y-77725000D02*
X168125000Y-76350000D01*
%TD*%
%TA.AperFunction,Conductor*%
%TO.N,GND*%
G36*
X192442539Y-58720185D02*
G01*
X192488294Y-58772989D01*
X192499500Y-58824500D01*
X192499500Y-80950500D01*
X192479815Y-81017539D01*
X192427011Y-81063294D01*
X192375500Y-81074500D01*
X137874500Y-81074500D01*
X137807461Y-81054815D01*
X137761706Y-81002011D01*
X137750500Y-80950500D01*
X137750500Y-78134568D01*
X138924500Y-78134568D01*
X138924500Y-78415431D01*
X138955942Y-78694494D01*
X138955945Y-78694512D01*
X139018439Y-78968317D01*
X139018443Y-78968329D01*
X139111200Y-79233411D01*
X139233053Y-79486442D01*
X139233055Y-79486445D01*
X139382477Y-79724248D01*
X139557584Y-79943825D01*
X139756175Y-80142416D01*
X139975752Y-80317523D01*
X140213555Y-80466945D01*
X140466592Y-80588801D01*
X140665680Y-80658465D01*
X140731670Y-80681556D01*
X140731682Y-80681560D01*
X141005491Y-80744055D01*
X141005497Y-80744055D01*
X141005505Y-80744057D01*
X141191547Y-80765018D01*
X141284569Y-80775499D01*
X141284572Y-80775500D01*
X141284575Y-80775500D01*
X141565428Y-80775500D01*
X141565429Y-80775499D01*
X141708055Y-80759429D01*
X141844494Y-80744057D01*
X141844499Y-80744056D01*
X141844509Y-80744055D01*
X142118318Y-80681560D01*
X142383408Y-80588801D01*
X142636445Y-80466945D01*
X142874248Y-80317523D01*
X143093825Y-80142416D01*
X143292416Y-79943825D01*
X143467523Y-79724248D01*
X143616945Y-79486445D01*
X143738801Y-79233408D01*
X143831560Y-78968318D01*
X143894055Y-78694509D01*
X143925500Y-78415425D01*
X143925500Y-78134575D01*
X143925499Y-78134568D01*
X148974500Y-78134568D01*
X148974500Y-78415431D01*
X149005942Y-78694494D01*
X149005945Y-78694512D01*
X149068439Y-78968317D01*
X149068443Y-78968329D01*
X149161200Y-79233411D01*
X149283053Y-79486442D01*
X149283055Y-79486445D01*
X149432477Y-79724248D01*
X149607584Y-79943825D01*
X149806175Y-80142416D01*
X150025752Y-80317523D01*
X150263555Y-80466945D01*
X150516592Y-80588801D01*
X150715680Y-80658465D01*
X150781670Y-80681556D01*
X150781682Y-80681560D01*
X151055491Y-80744055D01*
X151055497Y-80744055D01*
X151055505Y-80744057D01*
X151241547Y-80765018D01*
X151334569Y-80775499D01*
X151334572Y-80775500D01*
X151334575Y-80775500D01*
X151615428Y-80775500D01*
X151615429Y-80775499D01*
X151758055Y-80759429D01*
X151894494Y-80744057D01*
X151894499Y-80744056D01*
X151894509Y-80744055D01*
X152168318Y-80681560D01*
X152433408Y-80588801D01*
X152686445Y-80466945D01*
X152924248Y-80317523D01*
X153143825Y-80142416D01*
X153342416Y-79943825D01*
X153517523Y-79724248D01*
X153666945Y-79486445D01*
X153788801Y-79233408D01*
X153881560Y-78968318D01*
X153944055Y-78694509D01*
X153975500Y-78415425D01*
X153975500Y-78134575D01*
X153965018Y-78041547D01*
X153944057Y-77855505D01*
X153944054Y-77855487D01*
X153896275Y-77646155D01*
X153881560Y-77581682D01*
X153788801Y-77316592D01*
X153666945Y-77063555D01*
X153517523Y-76825752D01*
X153342416Y-76606175D01*
X153143825Y-76407584D01*
X152925723Y-76233653D01*
X167287000Y-76233653D01*
X167287000Y-76391346D01*
X167317761Y-76545989D01*
X167317764Y-76546001D01*
X167378102Y-76691672D01*
X167378109Y-76691685D01*
X167465709Y-76822787D01*
X167465710Y-76822788D01*
X167465711Y-76822789D01*
X167488181Y-76845259D01*
X167502887Y-76872191D01*
X167519477Y-76898005D01*
X167520368Y-76904203D01*
X167521666Y-76906580D01*
X167524500Y-76932940D01*
X167524500Y-77145234D01*
X167504815Y-77212273D01*
X167503602Y-77214125D01*
X167415609Y-77345814D01*
X167415602Y-77345827D01*
X167355264Y-77491498D01*
X167355261Y-77491510D01*
X167324500Y-77646153D01*
X167324500Y-77803846D01*
X167355261Y-77958489D01*
X167355264Y-77958501D01*
X167415602Y-78104172D01*
X167415609Y-78104185D01*
X167503210Y-78235288D01*
X167503213Y-78235292D01*
X167614707Y-78346786D01*
X167614711Y-78346789D01*
X167745814Y-78434390D01*
X167745827Y-78434397D01*
X167891498Y-78494735D01*
X167891503Y-78494737D01*
X168046153Y-78525499D01*
X168046156Y-78525500D01*
X168046158Y-78525500D01*
X168203844Y-78525500D01*
X168203845Y-78525499D01*
X168358497Y-78494737D01*
X168504179Y-78434394D01*
X168635289Y-78346789D01*
X168746789Y-78235289D01*
X168834394Y-78104179D01*
X168894737Y-77958497D01*
X168925500Y-77803842D01*
X168925500Y-77646158D01*
X168925500Y-77646155D01*
X168925499Y-77646153D01*
X168894738Y-77491510D01*
X168894737Y-77491503D01*
X168894735Y-77491498D01*
X168834397Y-77345827D01*
X168834390Y-77345814D01*
X168746398Y-77214125D01*
X168725520Y-77147447D01*
X168725500Y-77145234D01*
X168725500Y-76836142D01*
X168728767Y-76822751D01*
X168727802Y-76812360D01*
X168736377Y-76791558D01*
X168739432Y-76779037D01*
X168742589Y-76772950D01*
X168796894Y-76691679D01*
X168857237Y-76545997D01*
X168888000Y-76391342D01*
X168888000Y-76233658D01*
X168888000Y-76233655D01*
X168887999Y-76233653D01*
X168858043Y-76083055D01*
X168857237Y-76079003D01*
X168857235Y-76078998D01*
X168796897Y-75933327D01*
X168796890Y-75933314D01*
X168709289Y-75802211D01*
X168709286Y-75802207D01*
X168597792Y-75690713D01*
X168597788Y-75690710D01*
X168466685Y-75603109D01*
X168466672Y-75603102D01*
X168370922Y-75563442D01*
X168321001Y-75542764D01*
X168320989Y-75542761D01*
X168166345Y-75512000D01*
X168166342Y-75512000D01*
X168008658Y-75512000D01*
X168008655Y-75512000D01*
X167854010Y-75542761D01*
X167853998Y-75542764D01*
X167708327Y-75603102D01*
X167708314Y-75603109D01*
X167577211Y-75690710D01*
X167577207Y-75690713D01*
X167465713Y-75802207D01*
X167465710Y-75802211D01*
X167378109Y-75933314D01*
X167378102Y-75933327D01*
X167317764Y-76078998D01*
X167317761Y-76079010D01*
X167287000Y-76233653D01*
X152925723Y-76233653D01*
X152924248Y-76232477D01*
X152686445Y-76083055D01*
X152686442Y-76083053D01*
X152433411Y-75961200D01*
X152168329Y-75868443D01*
X152168317Y-75868439D01*
X151894512Y-75805945D01*
X151894494Y-75805942D01*
X151615431Y-75774500D01*
X151615425Y-75774500D01*
X151334575Y-75774500D01*
X151334568Y-75774500D01*
X151055505Y-75805942D01*
X151055487Y-75805945D01*
X150781682Y-75868439D01*
X150781670Y-75868443D01*
X150516588Y-75961200D01*
X150263557Y-76083053D01*
X150025753Y-76232476D01*
X149806175Y-76407583D01*
X149607583Y-76606175D01*
X149432476Y-76825753D01*
X149283053Y-77063557D01*
X149161200Y-77316588D01*
X149068443Y-77581670D01*
X149068439Y-77581682D01*
X149005945Y-77855487D01*
X149005942Y-77855505D01*
X148974500Y-78134568D01*
X143925499Y-78134568D01*
X143915018Y-78041547D01*
X143894057Y-77855505D01*
X143894054Y-77855487D01*
X143846275Y-77646155D01*
X143831560Y-77581682D01*
X143738801Y-77316592D01*
X143616945Y-77063555D01*
X143467523Y-76825752D01*
X143292416Y-76606175D01*
X143093825Y-76407584D01*
X142874248Y-76232477D01*
X142636445Y-76083055D01*
X142636442Y-76083053D01*
X142383411Y-75961200D01*
X142118329Y-75868443D01*
X142118317Y-75868439D01*
X141844512Y-75805945D01*
X141844494Y-75805942D01*
X141565431Y-75774500D01*
X141565425Y-75774500D01*
X141284575Y-75774500D01*
X141284568Y-75774500D01*
X141005505Y-75805942D01*
X141005487Y-75805945D01*
X140731682Y-75868439D01*
X140731670Y-75868443D01*
X140466588Y-75961200D01*
X140213557Y-76083053D01*
X139975753Y-76232476D01*
X139756175Y-76407583D01*
X139557583Y-76606175D01*
X139382476Y-76825753D01*
X139233053Y-77063557D01*
X139111200Y-77316588D01*
X139018443Y-77581670D01*
X139018439Y-77581682D01*
X138955945Y-77855487D01*
X138955942Y-77855505D01*
X138924500Y-78134568D01*
X137750500Y-78134568D01*
X137750500Y-71452135D01*
X144199500Y-71452135D01*
X144199500Y-75047870D01*
X144199501Y-75047876D01*
X144205908Y-75107483D01*
X144256202Y-75242328D01*
X144256206Y-75242335D01*
X144342452Y-75357544D01*
X144342455Y-75357547D01*
X144457664Y-75443793D01*
X144457671Y-75443797D01*
X144592517Y-75494091D01*
X144592516Y-75494091D01*
X144599444Y-75494835D01*
X144652127Y-75500500D01*
X148247872Y-75500499D01*
X148307483Y-75494091D01*
X148442331Y-75443796D01*
X148557546Y-75357546D01*
X148643796Y-75242331D01*
X148694091Y-75107483D01*
X148700500Y-75047873D01*
X148700499Y-71452128D01*
X148694091Y-71392517D01*
X148681885Y-71359792D01*
X148643797Y-71257671D01*
X148643793Y-71257664D01*
X148557547Y-71142455D01*
X148557544Y-71142452D01*
X148442335Y-71056206D01*
X148442328Y-71056202D01*
X148307482Y-71005908D01*
X148307483Y-71005908D01*
X148247883Y-70999501D01*
X148247881Y-70999500D01*
X148247873Y-70999500D01*
X148247864Y-70999500D01*
X144652129Y-70999500D01*
X144652123Y-70999501D01*
X144592516Y-71005908D01*
X144457671Y-71056202D01*
X144457664Y-71056206D01*
X144342455Y-71142452D01*
X144342452Y-71142455D01*
X144256206Y-71257664D01*
X144256202Y-71257671D01*
X144205908Y-71392517D01*
X144199501Y-71452116D01*
X144199501Y-71452123D01*
X144199500Y-71452135D01*
X137750500Y-71452135D01*
X137750500Y-68084568D01*
X138924500Y-68084568D01*
X138924500Y-68365431D01*
X138955942Y-68644494D01*
X138955945Y-68644512D01*
X139018439Y-68918317D01*
X139018443Y-68918329D01*
X139111200Y-69183411D01*
X139233053Y-69436442D01*
X139233055Y-69436445D01*
X139382477Y-69674248D01*
X139557584Y-69893825D01*
X139756175Y-70092416D01*
X139975752Y-70267523D01*
X140213555Y-70416945D01*
X140466592Y-70538801D01*
X140665680Y-70608465D01*
X140731670Y-70631556D01*
X140731682Y-70631560D01*
X141005491Y-70694055D01*
X141005497Y-70694055D01*
X141005505Y-70694057D01*
X141191547Y-70715018D01*
X141284569Y-70725499D01*
X141284572Y-70725500D01*
X141284575Y-70725500D01*
X141565428Y-70725500D01*
X141565429Y-70725499D01*
X141708055Y-70709429D01*
X141844494Y-70694057D01*
X141844499Y-70694056D01*
X141844509Y-70694055D01*
X142118318Y-70631560D01*
X142383408Y-70538801D01*
X142636445Y-70416945D01*
X142874248Y-70267523D01*
X143093825Y-70092416D01*
X143292416Y-69893825D01*
X143467523Y-69674248D01*
X143616945Y-69436445D01*
X143738801Y-69183408D01*
X143831560Y-68918318D01*
X143894055Y-68644509D01*
X143925500Y-68365425D01*
X143925500Y-68084575D01*
X143925499Y-68084568D01*
X148974500Y-68084568D01*
X148974500Y-68365431D01*
X149005942Y-68644494D01*
X149005945Y-68644512D01*
X149068439Y-68918317D01*
X149068443Y-68918329D01*
X149161200Y-69183411D01*
X149283053Y-69436442D01*
X149283055Y-69436445D01*
X149432477Y-69674248D01*
X149607584Y-69893825D01*
X149806175Y-70092416D01*
X150025752Y-70267523D01*
X150263555Y-70416945D01*
X150516592Y-70538801D01*
X150715680Y-70608465D01*
X150781670Y-70631556D01*
X150781682Y-70631560D01*
X151055491Y-70694055D01*
X151055497Y-70694055D01*
X151055505Y-70694057D01*
X151241547Y-70715018D01*
X151334569Y-70725499D01*
X151334572Y-70725500D01*
X151334575Y-70725500D01*
X151615428Y-70725500D01*
X151615429Y-70725499D01*
X151758055Y-70709429D01*
X151894494Y-70694057D01*
X151894499Y-70694056D01*
X151894509Y-70694055D01*
X152168318Y-70631560D01*
X152433408Y-70538801D01*
X152686445Y-70416945D01*
X152924248Y-70267523D01*
X153143825Y-70092416D01*
X153342416Y-69893825D01*
X153517523Y-69674248D01*
X153666945Y-69436445D01*
X153788801Y-69183408D01*
X153881560Y-68918318D01*
X153944055Y-68644509D01*
X153975500Y-68365425D01*
X153975500Y-68084575D01*
X153944055Y-67805491D01*
X153881560Y-67531682D01*
X153788801Y-67266592D01*
X153666945Y-67013555D01*
X153517523Y-66775752D01*
X153342416Y-66556175D01*
X153143825Y-66357584D01*
X152924248Y-66182477D01*
X152686445Y-66033055D01*
X152686442Y-66033053D01*
X152433411Y-65911200D01*
X152168329Y-65818443D01*
X152168317Y-65818439D01*
X151894512Y-65755945D01*
X151894494Y-65755942D01*
X151615431Y-65724500D01*
X151615425Y-65724500D01*
X151334575Y-65724500D01*
X151334568Y-65724500D01*
X151055505Y-65755942D01*
X151055487Y-65755945D01*
X150781682Y-65818439D01*
X150781670Y-65818443D01*
X150516588Y-65911200D01*
X150263557Y-66033053D01*
X150025753Y-66182476D01*
X149806175Y-66357583D01*
X149607583Y-66556175D01*
X149432476Y-66775753D01*
X149283053Y-67013557D01*
X149161200Y-67266588D01*
X149068443Y-67531670D01*
X149068439Y-67531682D01*
X149005945Y-67805487D01*
X149005942Y-67805505D01*
X148974500Y-68084568D01*
X143925499Y-68084568D01*
X143894055Y-67805491D01*
X143831560Y-67531682D01*
X143738801Y-67266592D01*
X143616945Y-67013555D01*
X143467523Y-66775752D01*
X143292416Y-66556175D01*
X143093825Y-66357584D01*
X142874248Y-66182477D01*
X142636445Y-66033055D01*
X142636442Y-66033053D01*
X142383411Y-65911200D01*
X142118329Y-65818443D01*
X142118317Y-65818439D01*
X141844512Y-65755945D01*
X141844494Y-65755942D01*
X141565431Y-65724500D01*
X141565425Y-65724500D01*
X141284575Y-65724500D01*
X141284568Y-65724500D01*
X141005505Y-65755942D01*
X141005487Y-65755945D01*
X140731682Y-65818439D01*
X140731670Y-65818443D01*
X140466588Y-65911200D01*
X140213557Y-66033053D01*
X139975753Y-66182476D01*
X139756175Y-66357583D01*
X139557583Y-66556175D01*
X139382476Y-66775753D01*
X139233053Y-67013557D01*
X139111200Y-67266588D01*
X139018443Y-67531670D01*
X139018439Y-67531682D01*
X138955945Y-67805487D01*
X138955942Y-67805505D01*
X138924500Y-68084568D01*
X137750500Y-68084568D01*
X137750500Y-61468713D01*
X167794500Y-61468713D01*
X167794500Y-61681287D01*
X167827754Y-61891243D01*
X167850788Y-61962135D01*
X167893444Y-62093414D01*
X167989951Y-62282820D01*
X168114890Y-62454786D01*
X168265213Y-62605109D01*
X168437179Y-62730048D01*
X168437181Y-62730049D01*
X168437184Y-62730051D01*
X168626588Y-62826557D01*
X168828757Y-62892246D01*
X169038713Y-62925500D01*
X169038714Y-62925500D01*
X169251286Y-62925500D01*
X169251287Y-62925500D01*
X169461243Y-62892246D01*
X169663412Y-62826557D01*
X169852816Y-62730051D01*
X169939138Y-62667335D01*
X170024786Y-62605109D01*
X170024788Y-62605106D01*
X170024792Y-62605104D01*
X170175104Y-62454792D01*
X170175106Y-62454788D01*
X170175109Y-62454786D01*
X170242515Y-62362007D01*
X170300051Y-62282816D01*
X170304793Y-62273508D01*
X170352763Y-62222711D01*
X170420583Y-62205911D01*
X170486719Y-62228445D01*
X170525763Y-62273500D01*
X170530373Y-62282547D01*
X170569728Y-62336716D01*
X171202036Y-61704407D01*
X171219075Y-61767993D01*
X171284901Y-61882007D01*
X171377993Y-61975099D01*
X171492007Y-62040925D01*
X171555590Y-62057962D01*
X170923282Y-62690269D01*
X170923282Y-62690270D01*
X170977449Y-62729624D01*
X171166782Y-62826095D01*
X171368870Y-62891757D01*
X171578754Y-62925000D01*
X171791246Y-62925000D01*
X172001127Y-62891757D01*
X172001130Y-62891757D01*
X172203217Y-62826095D01*
X172392554Y-62729622D01*
X172446716Y-62690270D01*
X172446717Y-62690270D01*
X171814408Y-62057962D01*
X171877993Y-62040925D01*
X171992007Y-61975099D01*
X172085099Y-61882007D01*
X172150925Y-61767993D01*
X172167962Y-61704408D01*
X172838181Y-62374628D01*
X172871666Y-62435951D01*
X172874500Y-62462300D01*
X172874500Y-62472865D01*
X172874501Y-62472876D01*
X172880908Y-62532483D01*
X172931202Y-62667328D01*
X172931206Y-62667335D01*
X173017452Y-62782544D01*
X173017455Y-62782547D01*
X173132664Y-62868793D01*
X173132671Y-62868797D01*
X173267517Y-62919091D01*
X173267516Y-62919091D01*
X173274444Y-62919835D01*
X173327127Y-62925500D01*
X175122872Y-62925499D01*
X175182483Y-62919091D01*
X175317331Y-62868796D01*
X175432546Y-62782546D01*
X175518796Y-62667331D01*
X175569091Y-62532483D01*
X175575500Y-62472873D01*
X175575499Y-61962135D01*
X187374500Y-61962135D01*
X187374500Y-63757870D01*
X187374501Y-63757876D01*
X187380908Y-63817483D01*
X187431202Y-63952328D01*
X187431206Y-63952335D01*
X187517452Y-64067544D01*
X187517455Y-64067547D01*
X187632664Y-64153793D01*
X187632671Y-64153797D01*
X187764082Y-64202810D01*
X187820016Y-64244681D01*
X187844433Y-64310145D01*
X187829582Y-64378418D01*
X187808431Y-64406673D01*
X187694889Y-64520215D01*
X187569951Y-64692179D01*
X187473444Y-64881585D01*
X187407753Y-65083760D01*
X187374500Y-65293713D01*
X187374500Y-65506287D01*
X187407754Y-65716243D01*
X187471099Y-65911199D01*
X187473444Y-65918414D01*
X187569951Y-66107820D01*
X187694890Y-66279786D01*
X187845213Y-66430109D01*
X188017182Y-66555050D01*
X188025946Y-66559516D01*
X188076742Y-66607491D01*
X188093536Y-66675312D01*
X188070998Y-66741447D01*
X188025946Y-66780484D01*
X188017182Y-66784949D01*
X187845213Y-66909890D01*
X187694890Y-67060213D01*
X187569951Y-67232179D01*
X187473444Y-67421585D01*
X187407753Y-67623760D01*
X187378971Y-67805487D01*
X187374500Y-67833713D01*
X187374500Y-68046287D01*
X187407754Y-68256243D01*
X187443231Y-68365431D01*
X187473444Y-68458414D01*
X187569951Y-68647820D01*
X187694890Y-68819786D01*
X187845213Y-68970109D01*
X188017182Y-69095050D01*
X188025946Y-69099516D01*
X188076742Y-69147491D01*
X188093536Y-69215312D01*
X188070998Y-69281447D01*
X188025946Y-69320484D01*
X188017182Y-69324949D01*
X187845213Y-69449890D01*
X187694890Y-69600213D01*
X187569951Y-69772179D01*
X187473444Y-69961585D01*
X187407753Y-70163760D01*
X187374500Y-70373713D01*
X187374500Y-70586286D01*
X187407753Y-70796239D01*
X187473444Y-70998414D01*
X187569951Y-71187820D01*
X187694890Y-71359786D01*
X187845213Y-71510109D01*
X188017182Y-71635050D01*
X188025946Y-71639516D01*
X188076742Y-71687491D01*
X188093536Y-71755312D01*
X188070998Y-71821447D01*
X188025946Y-71860484D01*
X188017182Y-71864949D01*
X187845213Y-71989890D01*
X187694890Y-72140213D01*
X187569951Y-72312179D01*
X187473444Y-72501585D01*
X187407753Y-72703760D01*
X187374500Y-72913713D01*
X187374500Y-73126286D01*
X187407753Y-73336239D01*
X187473444Y-73538414D01*
X187569951Y-73727820D01*
X187694890Y-73899786D01*
X187845213Y-74050109D01*
X188017179Y-74175048D01*
X188017181Y-74175049D01*
X188017184Y-74175051D01*
X188026493Y-74179794D01*
X188077290Y-74227766D01*
X188094087Y-74295587D01*
X188071552Y-74361722D01*
X188026505Y-74400760D01*
X188017446Y-74405376D01*
X188017440Y-74405380D01*
X187963282Y-74444727D01*
X187963282Y-74444728D01*
X188595591Y-75077037D01*
X188532007Y-75094075D01*
X188417993Y-75159901D01*
X188324901Y-75252993D01*
X188259075Y-75367007D01*
X188242037Y-75430591D01*
X187609728Y-74798282D01*
X187609727Y-74798282D01*
X187570380Y-74852439D01*
X187473904Y-75041782D01*
X187408242Y-75243869D01*
X187408242Y-75243872D01*
X187375000Y-75453753D01*
X187375000Y-75666246D01*
X187408242Y-75876127D01*
X187408242Y-75876130D01*
X187473904Y-76078217D01*
X187570375Y-76267550D01*
X187609728Y-76321716D01*
X188242037Y-75689408D01*
X188259075Y-75752993D01*
X188324901Y-75867007D01*
X188417993Y-75960099D01*
X188532007Y-76025925D01*
X188595590Y-76042962D01*
X187963282Y-76675269D01*
X187963282Y-76675270D01*
X188017449Y-76714624D01*
X188206782Y-76811095D01*
X188408870Y-76876757D01*
X188618754Y-76910000D01*
X188831246Y-76910000D01*
X189041127Y-76876757D01*
X189041130Y-76876757D01*
X189243217Y-76811095D01*
X189432554Y-76714622D01*
X189486716Y-76675270D01*
X189486717Y-76675270D01*
X188854408Y-76042962D01*
X188917993Y-76025925D01*
X189032007Y-75960099D01*
X189125099Y-75867007D01*
X189190925Y-75752993D01*
X189207962Y-75689408D01*
X189840270Y-76321717D01*
X189840270Y-76321716D01*
X189879622Y-76267554D01*
X189976095Y-76078217D01*
X190041757Y-75876130D01*
X190041757Y-75876127D01*
X190075000Y-75666246D01*
X190075000Y-75453753D01*
X190041757Y-75243872D01*
X190041757Y-75243869D01*
X189976095Y-75041782D01*
X189879624Y-74852449D01*
X189840270Y-74798282D01*
X189840269Y-74798282D01*
X189207962Y-75430590D01*
X189190925Y-75367007D01*
X189125099Y-75252993D01*
X189032007Y-75159901D01*
X188917993Y-75094075D01*
X188854409Y-75077037D01*
X189486716Y-74444728D01*
X189432547Y-74405373D01*
X189432547Y-74405372D01*
X189423500Y-74400763D01*
X189372706Y-74352788D01*
X189355912Y-74284966D01*
X189378451Y-74218832D01*
X189423508Y-74179793D01*
X189432816Y-74175051D01*
X189512007Y-74117515D01*
X189604786Y-74050109D01*
X189604788Y-74050106D01*
X189604792Y-74050104D01*
X189755104Y-73899792D01*
X189755106Y-73899788D01*
X189755109Y-73899786D01*
X189880048Y-73727820D01*
X189880047Y-73727820D01*
X189880051Y-73727816D01*
X189976557Y-73538412D01*
X190042246Y-73336243D01*
X190075500Y-73126287D01*
X190075500Y-72913713D01*
X190042246Y-72703757D01*
X189976557Y-72501588D01*
X189880051Y-72312184D01*
X189880049Y-72312181D01*
X189880048Y-72312179D01*
X189755109Y-72140213D01*
X189604786Y-71989890D01*
X189432820Y-71864951D01*
X189432115Y-71864591D01*
X189424054Y-71860485D01*
X189373259Y-71812512D01*
X189356463Y-71744692D01*
X189378999Y-71678556D01*
X189424054Y-71639515D01*
X189432816Y-71635051D01*
X189454789Y-71619086D01*
X189604786Y-71510109D01*
X189604788Y-71510106D01*
X189604792Y-71510104D01*
X189755104Y-71359792D01*
X189755106Y-71359788D01*
X189755109Y-71359786D01*
X189880048Y-71187820D01*
X189880047Y-71187820D01*
X189880051Y-71187816D01*
X189976557Y-70998412D01*
X190042246Y-70796243D01*
X190075500Y-70586287D01*
X190075500Y-70373713D01*
X190042246Y-70163757D01*
X189976557Y-69961588D01*
X189880051Y-69772184D01*
X189880049Y-69772181D01*
X189880048Y-69772179D01*
X189755109Y-69600213D01*
X189604786Y-69449890D01*
X189432820Y-69324951D01*
X189432115Y-69324591D01*
X189424054Y-69320485D01*
X189373259Y-69272512D01*
X189356463Y-69204692D01*
X189378999Y-69138556D01*
X189424054Y-69099515D01*
X189432816Y-69095051D01*
X189454789Y-69079086D01*
X189604786Y-68970109D01*
X189604788Y-68970106D01*
X189604792Y-68970104D01*
X189755104Y-68819792D01*
X189755106Y-68819788D01*
X189755109Y-68819786D01*
X189880048Y-68647820D01*
X189880047Y-68647820D01*
X189880051Y-68647816D01*
X189976557Y-68458412D01*
X190042246Y-68256243D01*
X190075500Y-68046287D01*
X190075500Y-67833713D01*
X190042246Y-67623757D01*
X189976557Y-67421588D01*
X189880051Y-67232184D01*
X189880049Y-67232181D01*
X189880048Y-67232179D01*
X189755109Y-67060213D01*
X189604786Y-66909890D01*
X189432820Y-66784951D01*
X189432115Y-66784591D01*
X189424054Y-66780485D01*
X189373259Y-66732512D01*
X189356463Y-66664692D01*
X189378999Y-66598556D01*
X189424054Y-66559515D01*
X189432816Y-66555051D01*
X189454789Y-66539086D01*
X189604786Y-66430109D01*
X189604788Y-66430106D01*
X189604792Y-66430104D01*
X189755104Y-66279792D01*
X189755106Y-66279788D01*
X189755109Y-66279786D01*
X189880048Y-66107820D01*
X189880047Y-66107820D01*
X189880051Y-66107816D01*
X189976557Y-65918412D01*
X190042246Y-65716243D01*
X190075500Y-65506287D01*
X190075500Y-65293713D01*
X190042246Y-65083757D01*
X189976557Y-64881588D01*
X189880051Y-64692184D01*
X189880049Y-64692181D01*
X189880048Y-64692179D01*
X189755109Y-64520213D01*
X189641569Y-64406673D01*
X189608084Y-64345350D01*
X189613068Y-64275658D01*
X189654940Y-64219725D01*
X189685915Y-64202810D01*
X189817331Y-64153796D01*
X189932546Y-64067546D01*
X190018796Y-63952331D01*
X190069091Y-63817483D01*
X190075500Y-63757873D01*
X190075499Y-61962128D01*
X190069091Y-61902517D01*
X190061441Y-61882007D01*
X190018797Y-61767671D01*
X190018793Y-61767664D01*
X189932547Y-61652455D01*
X189932544Y-61652452D01*
X189817335Y-61566206D01*
X189817328Y-61566202D01*
X189682482Y-61515908D01*
X189682483Y-61515908D01*
X189622883Y-61509501D01*
X189622881Y-61509500D01*
X189622873Y-61509500D01*
X189622864Y-61509500D01*
X187827129Y-61509500D01*
X187827123Y-61509501D01*
X187767516Y-61515908D01*
X187632671Y-61566202D01*
X187632664Y-61566206D01*
X187517455Y-61652452D01*
X187517452Y-61652455D01*
X187431206Y-61767664D01*
X187431202Y-61767671D01*
X187380908Y-61902517D01*
X187374857Y-61958805D01*
X187374501Y-61962123D01*
X187374500Y-61962135D01*
X175575499Y-61962135D01*
X175575499Y-61575000D01*
X175575499Y-60677129D01*
X175575498Y-60677123D01*
X175575497Y-60677116D01*
X175569091Y-60617517D01*
X175518796Y-60482669D01*
X175518795Y-60482668D01*
X175518793Y-60482664D01*
X175432547Y-60367455D01*
X175432544Y-60367452D01*
X175317335Y-60281206D01*
X175317328Y-60281202D01*
X175182482Y-60230908D01*
X175182483Y-60230908D01*
X175122883Y-60224501D01*
X175122881Y-60224500D01*
X175122873Y-60224500D01*
X175122864Y-60224500D01*
X173327129Y-60224500D01*
X173327123Y-60224501D01*
X173267516Y-60230908D01*
X173132671Y-60281202D01*
X173132664Y-60281206D01*
X173017455Y-60367452D01*
X173017452Y-60367455D01*
X172931206Y-60482664D01*
X172931202Y-60482671D01*
X172880908Y-60617517D01*
X172874501Y-60677116D01*
X172874501Y-60677123D01*
X172874500Y-60677135D01*
X172874500Y-60687690D01*
X172854815Y-60754729D01*
X172838181Y-60775371D01*
X172167962Y-61445590D01*
X172150925Y-61382007D01*
X172085099Y-61267993D01*
X171992007Y-61174901D01*
X171877993Y-61109075D01*
X171814409Y-61092037D01*
X172446716Y-60459728D01*
X172392550Y-60420375D01*
X172203217Y-60323904D01*
X172001129Y-60258242D01*
X171791246Y-60225000D01*
X171578754Y-60225000D01*
X171368872Y-60258242D01*
X171368869Y-60258242D01*
X171166782Y-60323904D01*
X170977439Y-60420380D01*
X170923282Y-60459727D01*
X170923282Y-60459728D01*
X171555591Y-61092037D01*
X171492007Y-61109075D01*
X171377993Y-61174901D01*
X171284901Y-61267993D01*
X171219075Y-61382007D01*
X171202037Y-61445591D01*
X170569728Y-60813282D01*
X170569727Y-60813282D01*
X170530380Y-60867440D01*
X170530376Y-60867446D01*
X170525760Y-60876505D01*
X170477781Y-60927297D01*
X170409959Y-60944087D01*
X170343826Y-60921543D01*
X170304794Y-60876493D01*
X170300051Y-60867184D01*
X170300049Y-60867181D01*
X170300048Y-60867179D01*
X170175109Y-60695213D01*
X170024786Y-60544890D01*
X169852820Y-60419951D01*
X169663414Y-60323444D01*
X169663413Y-60323443D01*
X169663412Y-60323443D01*
X169461243Y-60257754D01*
X169461241Y-60257753D01*
X169461240Y-60257753D01*
X169299957Y-60232208D01*
X169251287Y-60224500D01*
X169038713Y-60224500D01*
X168990042Y-60232208D01*
X168828760Y-60257753D01*
X168626585Y-60323444D01*
X168437179Y-60419951D01*
X168265213Y-60544890D01*
X168114890Y-60695213D01*
X167989951Y-60867179D01*
X167893444Y-61056585D01*
X167827753Y-61258760D01*
X167826291Y-61267993D01*
X167794500Y-61468713D01*
X137750500Y-61468713D01*
X137750500Y-58824500D01*
X137770185Y-58757461D01*
X137822989Y-58711706D01*
X137874500Y-58700500D01*
X192375500Y-58700500D01*
X192442539Y-58720185D01*
G37*
%TD.AperFunction*%
%TD*%
M02*
