%TF.GenerationSoftware,KiCad,Pcbnew,9.0.1*%
%TF.CreationDate,2026-05-20T10:42:03-04:00*%
%TF.ProjectId,ADC,4144432e-6b69-4636-9164-5f7063625858,rev?*%
%TF.SameCoordinates,Original*%
%TF.FileFunction,Copper,L1,Top*%
%TF.FilePolarity,Positive*%
%FSLAX46Y46*%
G04 Gerber Fmt 4.6, Leading zero omitted, Abs format (unit mm)*
G04 Created by KiCad (PCBNEW 9.0.1) date 2026-05-20 10:42:03*
%MOMM*%
%LPD*%
G01*
G04 APERTURE LIST*
G04 Aperture macros list*
%AMRoundRect*
0 Rectangle with rounded corners*
0 $1 Rounding radius*
0 $2 $3 $4 $5 $6 $7 $8 $9 X,Y pos of 4 corners*
0 Add a 4 corners polygon primitive as box body*
4,1,4,$2,$3,$4,$5,$6,$7,$8,$9,$2,$3,0*
0 Add four circle primitives for the rounded corners*
1,1,$1+$1,$2,$3*
1,1,$1+$1,$4,$5*
1,1,$1+$1,$6,$7*
1,1,$1+$1,$8,$9*
0 Add four rect primitives between the rounded corners*
20,1,$1+$1,$2,$3,$4,$5,0*
20,1,$1+$1,$4,$5,$6,$7,0*
20,1,$1+$1,$6,$7,$8,$9,0*
20,1,$1+$1,$8,$9,$2,$3,0*%
G04 Aperture macros list end*
%TA.AperFunction,SMDPad,CuDef*%
%ADD10RoundRect,0.237500X-0.237500X0.250000X-0.237500X-0.250000X0.237500X-0.250000X0.237500X0.250000X0*%
%TD*%
%TA.AperFunction,SMDPad,CuDef*%
%ADD11R,0.508000X1.270000*%
%TD*%
%TA.AperFunction,SMDPad,CuDef*%
%ADD12R,0.965200X0.457200*%
%TD*%
%TA.AperFunction,SMDPad,CuDef*%
%ADD13R,0.812800X0.254000*%
%TD*%
%TA.AperFunction,SMDPad,CuDef*%
%ADD14R,0.254000X0.812800*%
%TD*%
%TA.AperFunction,SMDPad,CuDef*%
%ADD15R,1.752600X1.752600*%
%TD*%
%TA.AperFunction,ComponentPad*%
%ADD16R,1.700000X1.700000*%
%TD*%
%TA.AperFunction,ComponentPad*%
%ADD17C,1.700000*%
%TD*%
%TA.AperFunction,ComponentPad*%
%ADD18R,3.500000X3.500000*%
%TD*%
%TA.AperFunction,ComponentPad*%
%ADD19C,4.000000*%
%TD*%
%TA.AperFunction,SMDPad,CuDef*%
%ADD20RoundRect,0.237500X0.300000X0.237500X-0.300000X0.237500X-0.300000X-0.237500X0.300000X-0.237500X0*%
%TD*%
%TA.AperFunction,SMDPad,CuDef*%
%ADD21RoundRect,0.237500X-0.300000X-0.237500X0.300000X-0.237500X0.300000X0.237500X-0.300000X0.237500X0*%
%TD*%
%TA.AperFunction,SMDPad,CuDef*%
%ADD22RoundRect,0.237500X0.237500X-0.250000X0.237500X0.250000X-0.237500X0.250000X-0.237500X-0.250000X0*%
%TD*%
%TA.AperFunction,SMDPad,CuDef*%
%ADD23RoundRect,0.237500X0.237500X-0.300000X0.237500X0.300000X-0.237500X0.300000X-0.237500X-0.300000X0*%
%TD*%
%TA.AperFunction,SMDPad,CuDef*%
%ADD24RoundRect,0.237500X0.250000X0.237500X-0.250000X0.237500X-0.250000X-0.237500X0.250000X-0.237500X0*%
%TD*%
%TA.AperFunction,SMDPad,CuDef*%
%ADD25RoundRect,0.237500X-0.250000X-0.237500X0.250000X-0.237500X0.250000X0.237500X-0.250000X0.237500X0*%
%TD*%
%TA.AperFunction,SMDPad,CuDef*%
%ADD26RoundRect,0.237500X-0.237500X0.300000X-0.237500X-0.300000X0.237500X-0.300000X0.237500X0.300000X0*%
%TD*%
%TA.AperFunction,SMDPad,CuDef*%
%ADD27R,1.106400X0.249200*%
%TD*%
%TA.AperFunction,SMDPad,CuDef*%
%ADD28R,0.508000X1.676400*%
%TD*%
%TA.AperFunction,ViaPad*%
%ADD29C,0.600000*%
%TD*%
%TA.AperFunction,Conductor*%
%ADD30C,0.200000*%
%TD*%
%TA.AperFunction,Conductor*%
%ADD31C,0.700000*%
%TD*%
G04 APERTURE END LIST*
D10*
%TO.P,R4,2*%
%TO.N,Net-(U1-+FB)*%
X160450000Y-74187500D03*
%TO.P,R4,1*%
%TO.N,Net-(U1-+IN)*%
X160450000Y-72362500D03*
%TD*%
D11*
%TO.P,U3,1,VOUT*%
%TO.N,/REF_ADC*%
X176000001Y-68605800D03*
%TO.P,U3,2,-VS*%
%TO.N,GND*%
X175050000Y-68605800D03*
%TO.P,U3,3,+IN*%
%TO.N,Net-(U3-+IN)*%
X174099999Y-68605800D03*
%TO.P,U3,4,-IN*%
%TO.N,/REF_ADC*%
X174099999Y-71044200D03*
%TO.P,U3,5,\u002ADISABLE*%
%TO.N,VCC*%
X175050000Y-71044200D03*
%TO.P,U3,6,+VS*%
X176000001Y-71044200D03*
%TD*%
D12*
%TO.P,U4,1,VOUT*%
%TO.N,Net-(U4--IN)*%
X170743400Y-70275001D03*
%TO.P,U4,2,-VS*%
%TO.N,GND*%
X170743400Y-69325000D03*
%TO.P,U4,3,+IN*%
%TO.N,Net-(U4-+IN)*%
X170743400Y-68374999D03*
%TO.P,U4,4,-IN*%
%TO.N,Net-(U4--IN)*%
X168406600Y-68374999D03*
%TO.P,U4,5,\u002ADISABLE*%
%TO.N,VCC*%
X168406600Y-69325000D03*
%TO.P,U4,6,+VS*%
X168406600Y-70275001D03*
%TD*%
D10*
%TO.P,R9,1*%
%TO.N,Net-(U2-OUT)*%
X175175000Y-65012500D03*
%TO.P,R9,2*%
%TO.N,Net-(U3-+IN)*%
X175175000Y-66837500D03*
%TD*%
D13*
%TO.P,U1,1,-FB*%
%TO.N,Net-(U1--FB)*%
X162113300Y-72444999D03*
%TO.P,U1,2,+IN*%
%TO.N,Net-(U1-+IN)*%
X162113300Y-72945000D03*
%TO.P,U1,3,-IN*%
%TO.N,Net-(U1--IN)*%
X162113300Y-73445000D03*
%TO.P,U1,4,+FB*%
%TO.N,Net-(U1-+FB)*%
X162113300Y-73945001D03*
D14*
%TO.P,U1,5,MODE*%
%TO.N,VCC*%
X162811099Y-74642800D03*
%TO.P,U1,6,+VS*%
X163311100Y-74642800D03*
%TO.P,U1,7,+VS*%
X163811100Y-74642800D03*
%TO.P,U1,8,+VCLAMP*%
X164311101Y-74642800D03*
D13*
%TO.P,U1,9,VOCM*%
%TO.N,/REF_ADC*%
X165008900Y-73945001D03*
%TO.P,U1,10,+OUT*%
%TO.N,Net-(U1-+OUT)*%
X165008900Y-73445000D03*
%TO.P,U1,11,-OUT*%
%TO.N,Net-(U1--OUT)*%
X165008900Y-72945000D03*
%TO.P,U1,12,DISABLE\u002A*%
%TO.N,VCC*%
X165008900Y-72444999D03*
D14*
%TO.P,U1,13,-VCLAMP*%
%TO.N,GND*%
X164311101Y-71747200D03*
%TO.P,U1,14,-VS*%
X163811100Y-71747200D03*
%TO.P,U1,15,-VS*%
X163311100Y-71747200D03*
%TO.P,U1,16,DGND*%
X162811099Y-71747200D03*
D15*
%TO.P,U1,17,-VS*%
X163561100Y-73195000D03*
%TD*%
D16*
%TO.P,J3,1,Pin_1*%
%TO.N,Net-(J3-Pin_1)*%
X188725000Y-62860000D03*
D17*
%TO.P,J3,2,Pin_2*%
%TO.N,Net-(J3-Pin_2)*%
X188725000Y-65400000D03*
%TO.P,J3,3,Pin_3*%
%TO.N,Net-(J3-Pin_3)*%
X188725000Y-67940000D03*
%TO.P,J3,4,Pin_4*%
%TO.N,Net-(J3-Pin_4)*%
X188725000Y-70480000D03*
%TO.P,J3,5,Pin_5*%
%TO.N,Net-(J3-Pin_5)*%
X188725000Y-73020000D03*
%TO.P,J3,6,Pin_6*%
%TO.N,GND*%
X188725000Y-75560000D03*
%TD*%
D18*
%TO.P,J1,1,In*%
%TO.N,Net-(J1-In)*%
X146450000Y-73250000D03*
D19*
%TO.P,J1,2,Ext*%
%TO.N,Net-(J1-Ext)*%
X141425000Y-78275000D03*
X151475000Y-78275000D03*
X141425000Y-68225000D03*
X151475000Y-68225000D03*
%TD*%
D20*
%TO.P,C11,1*%
%TO.N,Net-(J3-Pin_1)*%
X184300000Y-70870000D03*
%TO.P,C11,2*%
%TO.N,GND*%
X182575000Y-70870000D03*
%TD*%
D10*
%TO.P,R10,1*%
%TO.N,Net-(U3-+IN)*%
X172525000Y-68412500D03*
%TO.P,R10,2*%
%TO.N,GND*%
X172525000Y-70237500D03*
%TD*%
D21*
%TO.P,C9,1*%
%TO.N,/Vref_in*%
X180237500Y-60825000D03*
%TO.P,C9,2*%
%TO.N,GND*%
X181962500Y-60825000D03*
%TD*%
D22*
%TO.P,R3,1*%
%TO.N,Net-(U1--IN)*%
X158400000Y-74237500D03*
%TO.P,R3,2*%
%TO.N,Net-(U1--FB)*%
X158400000Y-72412500D03*
%TD*%
D21*
%TO.P,C10,1*%
%TO.N,VCC*%
X175562500Y-76150000D03*
%TO.P,C10,2*%
%TO.N,GND*%
X177287500Y-76150000D03*
%TD*%
D23*
%TO.P,C2,1*%
%TO.N,Net-(U5-IN+)*%
X170175000Y-74637500D03*
%TO.P,C2,2*%
%TO.N,Net-(U5-IN-)*%
X170175000Y-72912500D03*
%TD*%
D24*
%TO.P,R1,1*%
%TO.N,Net-(U1-+IN)*%
X156812500Y-72425000D03*
%TO.P,R1,2*%
%TO.N,Net-(J1-Ext)*%
X154987500Y-72425000D03*
%TD*%
D25*
%TO.P,R8,1*%
%TO.N,Net-(U1--OUT)*%
X166712500Y-72925000D03*
%TO.P,R8,2*%
%TO.N,Net-(U5-IN-)*%
X168537500Y-72925000D03*
%TD*%
D26*
%TO.P,C1,1*%
%TO.N,VCC*%
X162825000Y-76187500D03*
%TO.P,C1,2*%
%TO.N,GND*%
X162825000Y-77912500D03*
%TD*%
D25*
%TO.P,R5,1*%
%TO.N,Net-(U1-+OUT)*%
X166612500Y-74550000D03*
%TO.P,R5,2*%
%TO.N,Net-(U5-IN+)*%
X168437500Y-74550000D03*
%TD*%
D27*
%TO.P,U5,1,REF1*%
%TO.N,/REF_ADC*%
X172950801Y-72674999D03*
%TO.P,U5,2,VDD*%
%TO.N,VCC*%
X172950801Y-73175001D03*
%TO.P,U5,3,IN+*%
%TO.N,Net-(U5-IN+)*%
X172950801Y-73675000D03*
%TO.P,U5,4,IN-*%
%TO.N,Net-(U5-IN-)*%
X172950801Y-74174999D03*
%TO.P,U5,5,GND*%
%TO.N,GND*%
X172950801Y-74675001D03*
%TO.P,U5,6,CNV*%
%TO.N,Net-(J3-Pin_5)*%
X177299199Y-74675001D03*
%TO.P,U5,7,SDO*%
%TO.N,Net-(J3-Pin_4)*%
X177299199Y-74174999D03*
%TO.P,U5,8,SCK*%
%TO.N,Net-(J3-Pin_3)*%
X177299199Y-73675000D03*
%TO.P,U5,9,SDI*%
%TO.N,Net-(J3-Pin_2)*%
X177299199Y-73175001D03*
%TO.P,U5,10,VIO*%
%TO.N,Net-(J3-Pin_1)*%
X177299199Y-72674999D03*
%TD*%
D16*
%TO.P,J2,1,Pin_1*%
%TO.N,/Vref_in*%
X174225000Y-61575000D03*
D17*
%TO.P,J2,2,Pin_2*%
%TO.N,GND*%
X171685000Y-61575000D03*
%TO.P,J2,3,Pin_3*%
%TO.N,VCC*%
X169145000Y-61575000D03*
%TD*%
D24*
%TO.P,R2,1*%
%TO.N,Net-(U1--IN)*%
X156812500Y-74275000D03*
%TO.P,R2,2*%
%TO.N,Net-(J1-In)*%
X154987500Y-74275000D03*
%TD*%
%TO.P,R7,1*%
%TO.N,Net-(U4-+IN)*%
X171687500Y-65375000D03*
%TO.P,R7,2*%
%TO.N,GND*%
X169862500Y-65375000D03*
%TD*%
D26*
%TO.P,C7,1*%
%TO.N,Net-(U2-OUT)*%
X178750000Y-69312500D03*
%TO.P,C7,2*%
%TO.N,GND*%
X178750000Y-71037500D03*
%TD*%
D28*
%TO.P,U2,1,NC*%
%TO.N,unconnected-(U2-NC-Pad1)*%
X181330000Y-62637000D03*
%TO.P,U2,2,IN*%
%TO.N,/Vref_in*%
X180060000Y-62637000D03*
%TO.P,U2,3,NC*%
%TO.N,unconnected-(U2-NC-Pad3)*%
X178790000Y-62637000D03*
%TO.P,U2,4,GND*%
%TO.N,GND*%
X177520000Y-62637000D03*
%TO.P,U2,5,NC*%
%TO.N,unconnected-(U2-NC-Pad5)*%
X177520000Y-67463000D03*
%TO.P,U2,6,OUT*%
%TO.N,Net-(U2-OUT)*%
X178790000Y-67463000D03*
%TO.P,U2,7,NC*%
%TO.N,unconnected-(U2-NC-Pad7)*%
X180060000Y-67463000D03*
%TO.P,U2,8,NC*%
%TO.N,unconnected-(U2-NC-Pad8)*%
X181330000Y-67463000D03*
%TD*%
D26*
%TO.P,C4,1*%
%TO.N,/REF_ADC*%
X164975000Y-76137500D03*
%TO.P,C4,2*%
%TO.N,GND*%
X164975000Y-77862500D03*
%TD*%
D21*
%TO.P,C5,1*%
%TO.N,Net-(U4--IN)*%
X168387500Y-66900000D03*
%TO.P,C5,2*%
%TO.N,GND*%
X170112500Y-66900000D03*
%TD*%
D24*
%TO.P,R6,1*%
%TO.N,Net-(U2-OUT)*%
X173537500Y-66925000D03*
%TO.P,R6,2*%
%TO.N,Net-(U4-+IN)*%
X171712500Y-66925000D03*
%TD*%
D29*
%TO.N,GND*%
X183787500Y-62537500D03*
X182575000Y-70870000D03*
X163561100Y-70863900D03*
X171650000Y-69325000D03*
X162825000Y-79050000D03*
X164975000Y-78950000D03*
X175225000Y-67800000D03*
X170300000Y-64250000D03*
X170112500Y-66050000D03*
X171925000Y-74675000D03*
X179787500Y-71537500D03*
X178775000Y-76100000D03*
X176450000Y-62100000D03*
X185350000Y-75925000D03*
%TO.N,/REF_ADC*%
X168087500Y-76312500D03*
X168125000Y-77725000D03*
%TD*%
D30*
%TO.N,GND*%
X175225000Y-68430800D02*
X175225000Y-67800000D01*
X163561100Y-70863900D02*
X163650200Y-70953000D01*
X171000000Y-61625000D02*
X170925000Y-61625000D01*
X162825000Y-77912500D02*
X162825000Y-79025000D01*
X163561100Y-70863900D02*
X163725000Y-70700000D01*
X171650000Y-69325000D02*
X170743400Y-69325000D01*
X182075000Y-60825000D02*
X183787500Y-62537500D01*
X164311100Y-71039100D02*
X164029800Y-71039100D01*
X178750000Y-71037500D02*
X179287500Y-71037500D01*
X179287500Y-71037500D02*
X179787500Y-71537500D01*
X164029800Y-71039100D02*
X163811100Y-71257800D01*
X164311100Y-71747200D02*
X164311100Y-71039100D01*
X170112500Y-66050000D02*
X170112500Y-65625000D01*
X177520000Y-62637000D02*
X176987000Y-62637000D01*
X163311100Y-71393100D02*
X163311100Y-71216000D01*
X164975000Y-77862500D02*
X164975000Y-78950000D01*
X183787500Y-62537500D02*
X183825000Y-62575000D01*
X178725000Y-76150000D02*
X178775000Y-76100000D01*
X172950801Y-74675001D02*
X171925001Y-74675001D01*
X163650200Y-70953000D02*
X163725000Y-70953000D01*
X162811100Y-71747200D02*
X162811100Y-71039100D01*
X172525000Y-70237500D02*
X172525000Y-70125000D01*
X181962500Y-60825000D02*
X182075000Y-60825000D01*
X163725000Y-70953000D02*
X163811100Y-71039100D01*
D31*
X163561100Y-73195000D02*
X163561100Y-70863900D01*
D30*
X169862500Y-65375000D02*
X169862500Y-64687500D01*
X182555000Y-70850000D02*
X182575000Y-70870000D01*
X179787500Y-71537500D02*
X179825000Y-71575000D01*
X176987000Y-62637000D02*
X176450000Y-62100000D01*
X177287500Y-76150000D02*
X178725000Y-76150000D01*
X163311100Y-71216000D02*
X163311100Y-71039100D01*
X171925000Y-74675000D02*
X171925001Y-74675001D01*
X170112500Y-66900000D02*
X170112500Y-66050000D01*
X172525000Y-70125000D02*
X171725000Y-69325000D01*
X163311100Y-71039100D02*
X162811100Y-71039100D01*
X170112500Y-65625000D02*
X169862500Y-65375000D01*
X163311100Y-71767000D02*
X163311100Y-71747200D01*
X169862500Y-64687500D02*
X170300000Y-64250000D01*
X163488000Y-71039100D02*
X163811100Y-71039100D01*
X175050000Y-68605800D02*
X175225000Y-68430800D01*
X171725000Y-69325000D02*
X171650000Y-69325000D01*
X163811100Y-71257800D02*
X163811100Y-71747200D01*
X163311100Y-71747200D02*
X163311100Y-71393100D01*
X172387500Y-70237500D02*
X172525000Y-70237500D01*
X163311100Y-71216000D02*
X163488000Y-71039100D01*
X163811100Y-71257800D02*
X163811100Y-71039100D01*
%TO.N,VCC*%
X164475000Y-77050000D02*
X164550000Y-76975000D01*
X173800000Y-69750000D02*
X173350000Y-70200000D01*
X165578899Y-71875000D02*
X166806601Y-71875000D01*
X162825000Y-75358900D02*
X162811100Y-75345000D01*
X167653300Y-71028300D02*
X168406600Y-70275001D01*
X169145000Y-63105000D02*
X169145000Y-61575000D01*
X170006599Y-71875000D02*
X170875000Y-71875000D01*
X172650000Y-71875000D02*
X170875000Y-71875000D01*
X163487500Y-76187500D02*
X164175000Y-76875000D01*
X175050000Y-71044200D02*
X175050000Y-70375000D01*
X166975000Y-65275000D02*
X169145000Y-63105000D01*
X172975000Y-71225000D02*
X172975000Y-71550000D01*
X162811099Y-74642800D02*
X163311100Y-74642800D01*
X175229657Y-75404657D02*
X175195343Y-75404657D01*
X166806601Y-71875000D02*
X167653300Y-71028300D01*
X172275001Y-73175001D02*
X172950801Y-73175001D01*
X174737500Y-76975000D02*
X175562500Y-76150000D01*
X162825000Y-76187500D02*
X162825000Y-75358900D01*
X174425000Y-69750000D02*
X173800000Y-69750000D01*
X175050000Y-71044200D02*
X175050000Y-70525000D01*
X164550000Y-76975000D02*
X174737500Y-76975000D01*
X166975000Y-68425000D02*
X166975000Y-65275000D01*
X172950801Y-73175001D02*
X174475000Y-73175001D01*
X174475000Y-73175001D02*
X174550001Y-73175001D01*
X175050000Y-70375000D02*
X174425000Y-69750000D01*
X173350000Y-70850000D02*
X172975000Y-71225000D01*
X175275000Y-73900000D02*
X175275000Y-75359314D01*
X172325000Y-73200000D02*
X172349999Y-73175001D01*
X173350000Y-70200000D02*
X173350000Y-70850000D01*
X175175000Y-73800000D02*
X175275000Y-73900000D01*
X162811100Y-75345000D02*
X162811100Y-74642800D01*
X170875000Y-71875000D02*
X170975000Y-71875000D01*
X172975000Y-71550000D02*
X172650000Y-71875000D01*
X168406600Y-69325000D02*
X167875000Y-69325000D01*
X164300000Y-76875000D02*
X164475000Y-77050000D01*
X176000001Y-71044200D02*
X175050000Y-71044200D01*
X163811100Y-74642800D02*
X163311100Y-74642800D01*
X165008900Y-72444999D02*
X165578899Y-71875000D01*
X170975000Y-71875000D02*
X172275001Y-73175001D01*
X168406600Y-70275001D02*
X170006599Y-71875000D01*
X175562500Y-76150000D02*
X175562500Y-75737500D01*
X163811100Y-74642800D02*
X164311100Y-74642800D01*
X172349999Y-73175001D02*
X172950801Y-73175001D01*
X167875000Y-69325000D02*
X166975000Y-68425000D01*
X175050000Y-73675000D02*
X175175000Y-73800000D01*
X174550001Y-73175001D02*
X175175000Y-73800000D01*
X168406600Y-70275001D02*
X168406600Y-69325000D01*
X175275000Y-75359314D02*
X175229657Y-75404657D01*
X164175000Y-76875000D02*
X164300000Y-76875000D01*
X162825000Y-76187500D02*
X163487500Y-76187500D01*
X175562500Y-75737500D02*
X175229657Y-75404657D01*
%TO.N,Net-(U5-IN+)*%
X170175000Y-74637500D02*
X171587500Y-76050000D01*
X174300000Y-73675000D02*
X172950801Y-73675000D01*
X173950000Y-76050000D02*
X174850000Y-75150000D01*
X174850000Y-74225000D02*
X174300000Y-73675000D01*
X174850000Y-75150000D02*
X174850000Y-74225000D01*
X171587500Y-76050000D02*
X173950000Y-76050000D01*
X168437500Y-74550000D02*
X170087500Y-74550000D01*
X170087500Y-74550000D02*
X170175000Y-74637500D01*
%TO.N,Net-(U5-IN-)*%
X174400000Y-74375000D02*
X174400000Y-74925000D01*
X172950801Y-74174999D02*
X174199999Y-74174999D01*
X174199999Y-74174999D02*
X174400000Y-74375000D01*
X171075000Y-73575000D02*
X170412500Y-72912500D01*
X170412500Y-72912500D02*
X170175000Y-72912500D01*
X171075000Y-74800000D02*
X171075000Y-73575000D01*
X168537500Y-72925000D02*
X170162500Y-72925000D01*
X174425000Y-74950000D02*
X173800000Y-75575000D01*
X170162500Y-72925000D02*
X170175000Y-72912500D01*
X173800000Y-75575000D02*
X171850000Y-75575000D01*
X174400000Y-74925000D02*
X174425000Y-74950000D01*
X171850000Y-75575000D02*
X171075000Y-74800000D01*
%TO.N,/REF_ADC*%
X172950801Y-72674999D02*
X174550000Y-72674999D01*
X172925802Y-72650000D02*
X172950801Y-72674999D01*
X176050001Y-72674999D02*
X174550000Y-72674999D01*
X174674999Y-72674999D02*
X175850000Y-73850000D01*
X167912500Y-76137500D02*
X168087500Y-76312500D01*
X168087500Y-76312500D02*
X168125000Y-76350000D01*
X175575000Y-77725000D02*
X168125000Y-77725000D01*
X165008900Y-73945001D02*
X165008900Y-74391400D01*
X174099999Y-71044200D02*
X172950801Y-72193398D01*
X176000001Y-68605800D02*
X176000001Y-69325001D01*
X164975000Y-76137500D02*
X164737500Y-76137500D01*
X172950801Y-72193398D02*
X172950801Y-72674999D01*
X174550000Y-72674999D02*
X174674999Y-72674999D01*
X164975000Y-76137500D02*
X164975000Y-74425300D01*
X177125000Y-71600000D02*
X176050001Y-72674999D01*
X165008900Y-73945001D02*
X165008900Y-74433900D01*
X175850000Y-74800000D02*
X176400000Y-75350000D01*
X174099999Y-71044200D02*
X174099999Y-70525001D01*
X177125000Y-70450000D02*
X177125000Y-71600000D01*
X176400000Y-75350000D02*
X176400000Y-76900000D01*
X164975000Y-74425300D02*
X165008900Y-74391400D01*
X176400000Y-76900000D02*
X175575000Y-77725000D01*
X164975000Y-76137500D02*
X167912500Y-76137500D01*
X175850000Y-73850000D02*
X175850000Y-74800000D01*
X165087500Y-76025000D02*
X164975000Y-76137500D01*
X176000001Y-69325001D02*
X177125000Y-70450000D01*
%TO.N,Net-(U4--IN)*%
X170100001Y-70275001D02*
X169500000Y-69675000D01*
X169500000Y-68850000D02*
X169024999Y-68374999D01*
X169500000Y-69675000D02*
X169500000Y-68850000D01*
X168406600Y-68374999D02*
X168406600Y-66919100D01*
X169024999Y-68374999D02*
X168406600Y-68374999D01*
X168406600Y-66919100D02*
X168387500Y-66900000D01*
X170743400Y-70275001D02*
X170100001Y-70275001D01*
%TO.N,Net-(J3-Pin_1)*%
X188365000Y-62860000D02*
X188725000Y-62860000D01*
X183224199Y-72744999D02*
X184400000Y-71569198D01*
X184400000Y-66825000D02*
X188365000Y-62860000D01*
X184400000Y-71569198D02*
X184400000Y-66825000D01*
X183154199Y-72674999D02*
X183224199Y-72744999D01*
X177299199Y-72674999D02*
X183154199Y-72674999D01*
%TO.N,Net-(J1-Ext)*%
X151475000Y-68225000D02*
X151475000Y-71150000D01*
X141425000Y-78275000D02*
X141425000Y-68225000D01*
X151475000Y-71150000D02*
X153875000Y-73550000D01*
X154987500Y-72425000D02*
X154987500Y-72587500D01*
X153875000Y-73550000D02*
X154987500Y-72437500D01*
X151475000Y-68225000D02*
X141425000Y-68225000D01*
X151475000Y-78275000D02*
X141425000Y-78275000D01*
X154987500Y-72437500D02*
X154987500Y-72425000D01*
%TO.N,Net-(J1-In)*%
X152875000Y-73250000D02*
X153900000Y-74275000D01*
X154987500Y-74275000D02*
X153900000Y-74275000D01*
X146450000Y-73250000D02*
X152875000Y-73250000D01*
%TO.N,Net-(J3-Pin_4)*%
X177299199Y-74174999D02*
X183154199Y-74174999D01*
X188725000Y-70480000D02*
X184960001Y-74244999D01*
X184960001Y-74244999D02*
X183224199Y-74244999D01*
X183154199Y-74174999D02*
X183224199Y-74244999D01*
%TO.N,Net-(J3-Pin_5)*%
X177369199Y-74745001D02*
X177299199Y-74675001D01*
X186999999Y-74745001D02*
X177369199Y-74745001D01*
X188725000Y-73020000D02*
X186999999Y-74745001D01*
%TO.N,Net-(J3-Pin_3)*%
X184525000Y-73745000D02*
X177369199Y-73745000D01*
X188725000Y-67940000D02*
X188725000Y-68345000D01*
X186300000Y-70770000D02*
X186300000Y-71970000D01*
X177369199Y-73745000D02*
X177299199Y-73675000D01*
X188725000Y-68345000D02*
X186300000Y-70770000D01*
X186300000Y-71970000D02*
X184525000Y-73745000D01*
%TO.N,Net-(J3-Pin_2)*%
X185325000Y-68800000D02*
X185325000Y-71845000D01*
X185325000Y-71845000D02*
X183924999Y-73245001D01*
X188725000Y-65400000D02*
X185325000Y-68800000D01*
X183924999Y-73245001D02*
X177369199Y-73245001D01*
X177369199Y-73245001D02*
X177299199Y-73175001D01*
%TO.N,Net-(U1--IN)*%
X156812500Y-74275000D02*
X156812500Y-73237500D01*
X160975000Y-73250000D02*
X159875000Y-73250000D01*
X159875000Y-73250000D02*
X158887500Y-74237500D01*
X156812500Y-73237500D02*
X157812500Y-74237500D01*
X157812500Y-74237500D02*
X158400000Y-74237500D01*
X158887500Y-74237500D02*
X158400000Y-74237500D01*
X162113300Y-73445000D02*
X161170000Y-73445000D01*
X161170000Y-73445000D02*
X160975000Y-73250000D01*
%TO.N,Net-(U3-+IN)*%
X174099999Y-68605800D02*
X172718300Y-68605800D01*
X175175000Y-66837500D02*
X174099999Y-67912501D01*
X172718300Y-68605800D02*
X172525000Y-68412500D01*
X174099999Y-67912501D02*
X174099999Y-68605800D01*
%TO.N,Net-(U1--FB)*%
X162113300Y-72138300D02*
X162113300Y-72444999D01*
X161325000Y-71350000D02*
X162113300Y-72138300D01*
X158400000Y-72412500D02*
X159462500Y-71350000D01*
X159462500Y-71350000D02*
X161325000Y-71350000D01*
%TO.N,Net-(U1-+FB)*%
X161870801Y-74187500D02*
X162113300Y-73945001D01*
X160450000Y-74187500D02*
X161870801Y-74187500D01*
%TO.N,Net-(U1-+OUT)*%
X165008900Y-73445000D02*
X165507500Y-73445000D01*
X165507500Y-73445000D02*
X166612500Y-74550000D01*
%TO.N,Net-(U4-+IN)*%
X171712500Y-66925000D02*
X171712500Y-65400000D01*
X170743400Y-67894100D02*
X171712500Y-66925000D01*
X171712500Y-65400000D02*
X171687500Y-65375000D01*
X170743400Y-68374999D02*
X170743400Y-67894100D01*
%TO.N,Net-(U2-OUT)*%
X178850000Y-66325000D02*
X178790000Y-66385000D01*
X177537500Y-65012500D02*
X178850000Y-66325000D01*
X175175000Y-65012500D02*
X177537500Y-65012500D01*
X173537500Y-66925000D02*
X173537500Y-66650000D01*
X173537500Y-66650000D02*
X175175000Y-65012500D01*
X178750000Y-69312500D02*
X178750000Y-67503000D01*
X178790000Y-66385000D02*
X178790000Y-67463000D01*
X178750000Y-67503000D02*
X178790000Y-67463000D01*
%TO.N,Net-(U1--OUT)*%
X165028900Y-72925000D02*
X165008900Y-72945000D01*
X166712500Y-72925000D02*
X165028900Y-72925000D01*
%TO.N,Net-(U1-+IN)*%
X159150000Y-73275000D02*
X159025000Y-73400000D01*
X161595000Y-72945000D02*
X161012500Y-72362500D01*
X159150000Y-73250000D02*
X159150000Y-73275000D01*
X157787500Y-73400000D02*
X156812500Y-72425000D01*
X162113300Y-72945000D02*
X161595000Y-72945000D01*
X160450000Y-72362500D02*
X160037500Y-72362500D01*
X159025000Y-73400000D02*
X157787500Y-73400000D01*
X160037500Y-72362500D02*
X159150000Y-73250000D01*
X160450000Y-72362500D02*
X161012500Y-72362500D01*
%TO.N,/Vref_in*%
X180060000Y-61002500D02*
X180237500Y-60825000D01*
X176750000Y-60825000D02*
X180237500Y-60825000D01*
X175800000Y-61575000D02*
X176650000Y-60725000D01*
X176650000Y-60725000D02*
X176750000Y-60825000D01*
X174225000Y-61575000D02*
X175800000Y-61575000D01*
X180060000Y-62637000D02*
X180060000Y-61002500D01*
%TD*%
M02*
