%TF.GenerationSoftware,KiCad,Pcbnew,9.0.1*%
%TF.CreationDate,2026-05-20T10:42:03-04:00*%
%TF.ProjectId,ADC,4144432e-6b69-4636-9164-5f7063625858,rev?*%
%TF.SameCoordinates,Original*%
%TF.FileFunction,Soldermask,Top*%
%TF.FilePolarity,Negative*%
%FSLAX46Y46*%
G04 Gerber Fmt 4.6, Leading zero omitted, Abs format (unit mm)*
G04 Created by KiCad (PCBNEW 9.0.1) date 2026-05-20 10:42:03*
%MOMM*%
%LPD*%
G01*
G04 APERTURE LIST*
G04 Aperture macros list*
%AMRoundRect*
0 Rectangle with rounded corners*
0 $1 Rounding radius*
0 $2 $3 $4 $5 $6 $7 $8 $9 X,Y pos of 4 corners*
0 Add a 4 corners polygon primitive as box body*
4,1,4,$2,$3,$4,$5,$6,$7,$8,$9,$2,$3,0*
0 Add four circle primitives for the rounded corners*
1,1,$1+$1,$2,$3*
1,1,$1+$1,$4,$5*
1,1,$1+$1,$6,$7*
1,1,$1+$1,$8,$9*
0 Add four rect primitives between the rounded corners*
20,1,$1+$1,$2,$3,$4,$5,0*
20,1,$1+$1,$4,$5,$6,$7,0*
20,1,$1+$1,$6,$7,$8,$9,0*
20,1,$1+$1,$8,$9,$2,$3,0*%
G04 Aperture macros list end*
%ADD10RoundRect,0.237500X-0.237500X0.250000X-0.237500X-0.250000X0.237500X-0.250000X0.237500X0.250000X0*%
%ADD11R,0.508000X1.270000*%
%ADD12R,0.965200X0.457200*%
%ADD13R,0.812800X0.254000*%
%ADD14R,0.254000X0.812800*%
%ADD15R,1.752600X1.752600*%
%ADD16R,1.700000X1.700000*%
%ADD17C,1.700000*%
%ADD18R,3.500000X3.500000*%
%ADD19C,4.000000*%
%ADD20RoundRect,0.237500X0.300000X0.237500X-0.300000X0.237500X-0.300000X-0.237500X0.300000X-0.237500X0*%
%ADD21RoundRect,0.237500X-0.300000X-0.237500X0.300000X-0.237500X0.300000X0.237500X-0.300000X0.237500X0*%
%ADD22RoundRect,0.237500X0.237500X-0.250000X0.237500X0.250000X-0.237500X0.250000X-0.237500X-0.250000X0*%
%ADD23RoundRect,0.237500X0.237500X-0.300000X0.237500X0.300000X-0.237500X0.300000X-0.237500X-0.300000X0*%
%ADD24RoundRect,0.237500X0.250000X0.237500X-0.250000X0.237500X-0.250000X-0.237500X0.250000X-0.237500X0*%
%ADD25RoundRect,0.237500X-0.250000X-0.237500X0.250000X-0.237500X0.250000X0.237500X-0.250000X0.237500X0*%
%ADD26RoundRect,0.237500X-0.237500X0.300000X-0.237500X-0.300000X0.237500X-0.300000X0.237500X0.300000X0*%
%ADD27R,1.106400X0.249200*%
%ADD28R,0.508000X1.676400*%
G04 APERTURE END LIST*
D10*
%TO.C,R4*%
X160450000Y-74187500D03*
X160450000Y-72362500D03*
%TD*%
D11*
%TO.C,U3*%
X176000001Y-68605800D03*
X175050000Y-68605800D03*
X174099999Y-68605800D03*
X174099999Y-71044200D03*
X175050000Y-71044200D03*
X176000001Y-71044200D03*
%TD*%
D12*
%TO.C,U4*%
X170743400Y-70275001D03*
X170743400Y-69325000D03*
X170743400Y-68374999D03*
X168406600Y-68374999D03*
X168406600Y-69325000D03*
X168406600Y-70275001D03*
%TD*%
D10*
%TO.C,R9*%
X175175000Y-65012500D03*
X175175000Y-66837500D03*
%TD*%
D13*
%TO.C,U1*%
X162113300Y-72444999D03*
X162113300Y-72945000D03*
X162113300Y-73445000D03*
X162113300Y-73945001D03*
D14*
X162811099Y-74642800D03*
X163311100Y-74642800D03*
X163811100Y-74642800D03*
X164311101Y-74642800D03*
D13*
X165008900Y-73945001D03*
X165008900Y-73445000D03*
X165008900Y-72945000D03*
X165008900Y-72444999D03*
D14*
X164311101Y-71747200D03*
X163811100Y-71747200D03*
X163311100Y-71747200D03*
X162811099Y-71747200D03*
D15*
X163561100Y-73195000D03*
%TD*%
D16*
%TO.C,J3*%
X188725000Y-62860000D03*
D17*
X188725000Y-65400000D03*
X188725000Y-67940000D03*
X188725000Y-70480000D03*
X188725000Y-73020000D03*
X188725000Y-75560000D03*
%TD*%
D18*
%TO.C,J1*%
X146450000Y-73250000D03*
D19*
X141425000Y-78275000D03*
X151475000Y-78275000D03*
X141425000Y-68225000D03*
X151475000Y-68225000D03*
%TD*%
D20*
%TO.C,C11*%
X184300000Y-70870000D03*
X182575000Y-70870000D03*
%TD*%
D10*
%TO.C,R10*%
X172525000Y-68412500D03*
X172525000Y-70237500D03*
%TD*%
D21*
%TO.C,C9*%
X180237500Y-60825000D03*
X181962500Y-60825000D03*
%TD*%
D22*
%TO.C,R3*%
X158400000Y-74237500D03*
X158400000Y-72412500D03*
%TD*%
D21*
%TO.C,C10*%
X175562500Y-76150000D03*
X177287500Y-76150000D03*
%TD*%
D23*
%TO.C,C2*%
X170175000Y-74637500D03*
X170175000Y-72912500D03*
%TD*%
D24*
%TO.C,R1*%
X156812500Y-72425000D03*
X154987500Y-72425000D03*
%TD*%
D25*
%TO.C,R8*%
X166712500Y-72925000D03*
X168537500Y-72925000D03*
%TD*%
D26*
%TO.C,C1*%
X162825000Y-76187500D03*
X162825000Y-77912500D03*
%TD*%
D25*
%TO.C,R5*%
X166612500Y-74550000D03*
X168437500Y-74550000D03*
%TD*%
D27*
%TO.C,U5*%
X172950801Y-72674999D03*
X172950801Y-73175001D03*
X172950801Y-73675000D03*
X172950801Y-74174999D03*
X172950801Y-74675001D03*
X177299199Y-74675001D03*
X177299199Y-74174999D03*
X177299199Y-73675000D03*
X177299199Y-73175001D03*
X177299199Y-72674999D03*
%TD*%
D16*
%TO.C,J2*%
X174225000Y-61575000D03*
D17*
X171685000Y-61575000D03*
X169145000Y-61575000D03*
%TD*%
D24*
%TO.C,R2*%
X156812500Y-74275000D03*
X154987500Y-74275000D03*
%TD*%
%TO.C,R7*%
X171687500Y-65375000D03*
X169862500Y-65375000D03*
%TD*%
D26*
%TO.C,C7*%
X178750000Y-69312500D03*
X178750000Y-71037500D03*
%TD*%
D28*
%TO.C,U2*%
X181330000Y-62637000D03*
X180060000Y-62637000D03*
X178790000Y-62637000D03*
X177520000Y-62637000D03*
X177520000Y-67463000D03*
X178790000Y-67463000D03*
X180060000Y-67463000D03*
X181330000Y-67463000D03*
%TD*%
D26*
%TO.C,C4*%
X164975000Y-76137500D03*
X164975000Y-77862500D03*
%TD*%
D21*
%TO.C,C5*%
X168387500Y-66900000D03*
X170112500Y-66900000D03*
%TD*%
D24*
%TO.C,R6*%
X173537500Y-66925000D03*
X171712500Y-66925000D03*
%TD*%
M02*
