%TF.GenerationSoftware,KiCad,Pcbnew,9.0.1*%
%TF.CreationDate,2026-05-20T10:42:03-04:00*%
%TF.ProjectId,ADC,4144432e-6b69-4636-9164-5f7063625858,rev?*%
%TF.SameCoordinates,Original*%
%TF.FileFunction,Legend,Top*%
%TF.FilePolarity,Positive*%
%FSLAX46Y46*%
G04 Gerber Fmt 4.6, Leading zero omitted, Abs format (unit mm)*
G04 Created by KiCad (PCBNEW 9.0.1) date 2026-05-20 10:42:03*
%MOMM*%
%LPD*%
G01*
G04 APERTURE LIST*
%ADD10C,0.175000*%
%ADD11C,0.150000*%
%ADD12C,0.120000*%
%ADD13C,0.152400*%
%ADD14C,0.000000*%
G04 APERTURE END LIST*
D10*
X168031797Y-59205233D02*
X168265131Y-59905233D01*
X168265131Y-59905233D02*
X168498464Y-59205233D01*
X169131797Y-59838566D02*
X169098464Y-59871900D01*
X169098464Y-59871900D02*
X168998464Y-59905233D01*
X168998464Y-59905233D02*
X168931797Y-59905233D01*
X168931797Y-59905233D02*
X168831797Y-59871900D01*
X168831797Y-59871900D02*
X168765131Y-59805233D01*
X168765131Y-59805233D02*
X168731797Y-59738566D01*
X168731797Y-59738566D02*
X168698464Y-59605233D01*
X168698464Y-59605233D02*
X168698464Y-59505233D01*
X168698464Y-59505233D02*
X168731797Y-59371900D01*
X168731797Y-59371900D02*
X168765131Y-59305233D01*
X168765131Y-59305233D02*
X168831797Y-59238566D01*
X168831797Y-59238566D02*
X168931797Y-59205233D01*
X168931797Y-59205233D02*
X168998464Y-59205233D01*
X168998464Y-59205233D02*
X169098464Y-59238566D01*
X169098464Y-59238566D02*
X169131797Y-59271900D01*
X169831797Y-59838566D02*
X169798464Y-59871900D01*
X169798464Y-59871900D02*
X169698464Y-59905233D01*
X169698464Y-59905233D02*
X169631797Y-59905233D01*
X169631797Y-59905233D02*
X169531797Y-59871900D01*
X169531797Y-59871900D02*
X169465131Y-59805233D01*
X169465131Y-59805233D02*
X169431797Y-59738566D01*
X169431797Y-59738566D02*
X169398464Y-59605233D01*
X169398464Y-59605233D02*
X169398464Y-59505233D01*
X169398464Y-59505233D02*
X169431797Y-59371900D01*
X169431797Y-59371900D02*
X169465131Y-59305233D01*
X169465131Y-59305233D02*
X169531797Y-59238566D01*
X169531797Y-59238566D02*
X169631797Y-59205233D01*
X169631797Y-59205233D02*
X169698464Y-59205233D01*
X169698464Y-59205233D02*
X169798464Y-59238566D01*
X169798464Y-59238566D02*
X169831797Y-59271900D01*
X171031797Y-59238566D02*
X170965130Y-59205233D01*
X170965130Y-59205233D02*
X170865130Y-59205233D01*
X170865130Y-59205233D02*
X170765130Y-59238566D01*
X170765130Y-59238566D02*
X170698464Y-59305233D01*
X170698464Y-59305233D02*
X170665130Y-59371900D01*
X170665130Y-59371900D02*
X170631797Y-59505233D01*
X170631797Y-59505233D02*
X170631797Y-59605233D01*
X170631797Y-59605233D02*
X170665130Y-59738566D01*
X170665130Y-59738566D02*
X170698464Y-59805233D01*
X170698464Y-59805233D02*
X170765130Y-59871900D01*
X170765130Y-59871900D02*
X170865130Y-59905233D01*
X170865130Y-59905233D02*
X170931797Y-59905233D01*
X170931797Y-59905233D02*
X171031797Y-59871900D01*
X171031797Y-59871900D02*
X171065130Y-59838566D01*
X171065130Y-59838566D02*
X171065130Y-59605233D01*
X171065130Y-59605233D02*
X170931797Y-59605233D01*
X171365130Y-59905233D02*
X171365130Y-59205233D01*
X171365130Y-59205233D02*
X171765130Y-59905233D01*
X171765130Y-59905233D02*
X171765130Y-59205233D01*
X172098463Y-59905233D02*
X172098463Y-59205233D01*
X172098463Y-59205233D02*
X172265130Y-59205233D01*
X172265130Y-59205233D02*
X172365130Y-59238566D01*
X172365130Y-59238566D02*
X172431797Y-59305233D01*
X172431797Y-59305233D02*
X172465130Y-59371900D01*
X172465130Y-59371900D02*
X172498463Y-59505233D01*
X172498463Y-59505233D02*
X172498463Y-59605233D01*
X172498463Y-59605233D02*
X172465130Y-59738566D01*
X172465130Y-59738566D02*
X172431797Y-59805233D01*
X172431797Y-59805233D02*
X172365130Y-59871900D01*
X172365130Y-59871900D02*
X172265130Y-59905233D01*
X172265130Y-59905233D02*
X172098463Y-59905233D01*
X173231796Y-59205233D02*
X173465130Y-59905233D01*
X173465130Y-59905233D02*
X173698463Y-59205233D01*
X174331796Y-59905233D02*
X174098463Y-59571900D01*
X173931796Y-59905233D02*
X173931796Y-59205233D01*
X173931796Y-59205233D02*
X174198463Y-59205233D01*
X174198463Y-59205233D02*
X174265130Y-59238566D01*
X174265130Y-59238566D02*
X174298463Y-59271900D01*
X174298463Y-59271900D02*
X174331796Y-59338566D01*
X174331796Y-59338566D02*
X174331796Y-59438566D01*
X174331796Y-59438566D02*
X174298463Y-59505233D01*
X174298463Y-59505233D02*
X174265130Y-59538566D01*
X174265130Y-59538566D02*
X174198463Y-59571900D01*
X174198463Y-59571900D02*
X173931796Y-59571900D01*
X174631796Y-59538566D02*
X174865130Y-59538566D01*
X174965130Y-59905233D02*
X174631796Y-59905233D01*
X174631796Y-59905233D02*
X174631796Y-59205233D01*
X174631796Y-59205233D02*
X174965130Y-59205233D01*
X175498463Y-59538566D02*
X175265129Y-59538566D01*
X175265129Y-59905233D02*
X175265129Y-59205233D01*
X175265129Y-59205233D02*
X175598463Y-59205233D01*
X190963566Y-76176535D02*
X190930233Y-76243202D01*
X190930233Y-76243202D02*
X190930233Y-76343202D01*
X190930233Y-76343202D02*
X190963566Y-76443202D01*
X190963566Y-76443202D02*
X191030233Y-76509869D01*
X191030233Y-76509869D02*
X191096900Y-76543202D01*
X191096900Y-76543202D02*
X191230233Y-76576535D01*
X191230233Y-76576535D02*
X191330233Y-76576535D01*
X191330233Y-76576535D02*
X191463566Y-76543202D01*
X191463566Y-76543202D02*
X191530233Y-76509869D01*
X191530233Y-76509869D02*
X191596900Y-76443202D01*
X191596900Y-76443202D02*
X191630233Y-76343202D01*
X191630233Y-76343202D02*
X191630233Y-76276535D01*
X191630233Y-76276535D02*
X191596900Y-76176535D01*
X191596900Y-76176535D02*
X191563566Y-76143202D01*
X191563566Y-76143202D02*
X191330233Y-76143202D01*
X191330233Y-76143202D02*
X191330233Y-76276535D01*
X191630233Y-75843202D02*
X190930233Y-75843202D01*
X190930233Y-75843202D02*
X191630233Y-75443202D01*
X191630233Y-75443202D02*
X190930233Y-75443202D01*
X191630233Y-75109869D02*
X190930233Y-75109869D01*
X190930233Y-75109869D02*
X190930233Y-74943202D01*
X190930233Y-74943202D02*
X190963566Y-74843202D01*
X190963566Y-74843202D02*
X191030233Y-74776536D01*
X191030233Y-74776536D02*
X191096900Y-74743202D01*
X191096900Y-74743202D02*
X191230233Y-74709869D01*
X191230233Y-74709869D02*
X191330233Y-74709869D01*
X191330233Y-74709869D02*
X191463566Y-74743202D01*
X191463566Y-74743202D02*
X191530233Y-74776536D01*
X191530233Y-74776536D02*
X191596900Y-74843202D01*
X191596900Y-74843202D02*
X191630233Y-74943202D01*
X191630233Y-74943202D02*
X191630233Y-75109869D01*
X191563566Y-73476536D02*
X191596900Y-73509869D01*
X191596900Y-73509869D02*
X191630233Y-73609869D01*
X191630233Y-73609869D02*
X191630233Y-73676536D01*
X191630233Y-73676536D02*
X191596900Y-73776536D01*
X191596900Y-73776536D02*
X191530233Y-73843203D01*
X191530233Y-73843203D02*
X191463566Y-73876536D01*
X191463566Y-73876536D02*
X191330233Y-73909869D01*
X191330233Y-73909869D02*
X191230233Y-73909869D01*
X191230233Y-73909869D02*
X191096900Y-73876536D01*
X191096900Y-73876536D02*
X191030233Y-73843203D01*
X191030233Y-73843203D02*
X190963566Y-73776536D01*
X190963566Y-73776536D02*
X190930233Y-73676536D01*
X190930233Y-73676536D02*
X190930233Y-73609869D01*
X190930233Y-73609869D02*
X190963566Y-73509869D01*
X190963566Y-73509869D02*
X190996900Y-73476536D01*
X191630233Y-73176536D02*
X190930233Y-73176536D01*
X190930233Y-73176536D02*
X191630233Y-72776536D01*
X191630233Y-72776536D02*
X190930233Y-72776536D01*
X190930233Y-72543203D02*
X191630233Y-72309870D01*
X191630233Y-72309870D02*
X190930233Y-72076536D01*
X191596900Y-71343203D02*
X191630233Y-71243203D01*
X191630233Y-71243203D02*
X191630233Y-71076537D01*
X191630233Y-71076537D02*
X191596900Y-71009870D01*
X191596900Y-71009870D02*
X191563566Y-70976537D01*
X191563566Y-70976537D02*
X191496900Y-70943203D01*
X191496900Y-70943203D02*
X191430233Y-70943203D01*
X191430233Y-70943203D02*
X191363566Y-70976537D01*
X191363566Y-70976537D02*
X191330233Y-71009870D01*
X191330233Y-71009870D02*
X191296900Y-71076537D01*
X191296900Y-71076537D02*
X191263566Y-71209870D01*
X191263566Y-71209870D02*
X191230233Y-71276537D01*
X191230233Y-71276537D02*
X191196900Y-71309870D01*
X191196900Y-71309870D02*
X191130233Y-71343203D01*
X191130233Y-71343203D02*
X191063566Y-71343203D01*
X191063566Y-71343203D02*
X190996900Y-71309870D01*
X190996900Y-71309870D02*
X190963566Y-71276537D01*
X190963566Y-71276537D02*
X190930233Y-71209870D01*
X190930233Y-71209870D02*
X190930233Y-71043203D01*
X190930233Y-71043203D02*
X190963566Y-70943203D01*
X191630233Y-70643203D02*
X190930233Y-70643203D01*
X190930233Y-70643203D02*
X190930233Y-70476536D01*
X190930233Y-70476536D02*
X190963566Y-70376536D01*
X190963566Y-70376536D02*
X191030233Y-70309870D01*
X191030233Y-70309870D02*
X191096900Y-70276536D01*
X191096900Y-70276536D02*
X191230233Y-70243203D01*
X191230233Y-70243203D02*
X191330233Y-70243203D01*
X191330233Y-70243203D02*
X191463566Y-70276536D01*
X191463566Y-70276536D02*
X191530233Y-70309870D01*
X191530233Y-70309870D02*
X191596900Y-70376536D01*
X191596900Y-70376536D02*
X191630233Y-70476536D01*
X191630233Y-70476536D02*
X191630233Y-70643203D01*
X190930233Y-69809870D02*
X190930233Y-69676536D01*
X190930233Y-69676536D02*
X190963566Y-69609870D01*
X190963566Y-69609870D02*
X191030233Y-69543203D01*
X191030233Y-69543203D02*
X191163566Y-69509870D01*
X191163566Y-69509870D02*
X191396900Y-69509870D01*
X191396900Y-69509870D02*
X191530233Y-69543203D01*
X191530233Y-69543203D02*
X191596900Y-69609870D01*
X191596900Y-69609870D02*
X191630233Y-69676536D01*
X191630233Y-69676536D02*
X191630233Y-69809870D01*
X191630233Y-69809870D02*
X191596900Y-69876536D01*
X191596900Y-69876536D02*
X191530233Y-69943203D01*
X191530233Y-69943203D02*
X191396900Y-69976536D01*
X191396900Y-69976536D02*
X191163566Y-69976536D01*
X191163566Y-69976536D02*
X191030233Y-69943203D01*
X191030233Y-69943203D02*
X190963566Y-69876536D01*
X190963566Y-69876536D02*
X190930233Y-69809870D01*
X191596900Y-68709870D02*
X191630233Y-68609870D01*
X191630233Y-68609870D02*
X191630233Y-68443204D01*
X191630233Y-68443204D02*
X191596900Y-68376537D01*
X191596900Y-68376537D02*
X191563566Y-68343204D01*
X191563566Y-68343204D02*
X191496900Y-68309870D01*
X191496900Y-68309870D02*
X191430233Y-68309870D01*
X191430233Y-68309870D02*
X191363566Y-68343204D01*
X191363566Y-68343204D02*
X191330233Y-68376537D01*
X191330233Y-68376537D02*
X191296900Y-68443204D01*
X191296900Y-68443204D02*
X191263566Y-68576537D01*
X191263566Y-68576537D02*
X191230233Y-68643204D01*
X191230233Y-68643204D02*
X191196900Y-68676537D01*
X191196900Y-68676537D02*
X191130233Y-68709870D01*
X191130233Y-68709870D02*
X191063566Y-68709870D01*
X191063566Y-68709870D02*
X190996900Y-68676537D01*
X190996900Y-68676537D02*
X190963566Y-68643204D01*
X190963566Y-68643204D02*
X190930233Y-68576537D01*
X190930233Y-68576537D02*
X190930233Y-68409870D01*
X190930233Y-68409870D02*
X190963566Y-68309870D01*
X191563566Y-67609870D02*
X191596900Y-67643203D01*
X191596900Y-67643203D02*
X191630233Y-67743203D01*
X191630233Y-67743203D02*
X191630233Y-67809870D01*
X191630233Y-67809870D02*
X191596900Y-67909870D01*
X191596900Y-67909870D02*
X191530233Y-67976537D01*
X191530233Y-67976537D02*
X191463566Y-68009870D01*
X191463566Y-68009870D02*
X191330233Y-68043203D01*
X191330233Y-68043203D02*
X191230233Y-68043203D01*
X191230233Y-68043203D02*
X191096900Y-68009870D01*
X191096900Y-68009870D02*
X191030233Y-67976537D01*
X191030233Y-67976537D02*
X190963566Y-67909870D01*
X190963566Y-67909870D02*
X190930233Y-67809870D01*
X190930233Y-67809870D02*
X190930233Y-67743203D01*
X190930233Y-67743203D02*
X190963566Y-67643203D01*
X190963566Y-67643203D02*
X190996900Y-67609870D01*
X191630233Y-67309870D02*
X190930233Y-67309870D01*
X191630233Y-66909870D02*
X191230233Y-67209870D01*
X190930233Y-66909870D02*
X191330233Y-67309870D01*
X191596900Y-66109870D02*
X191630233Y-66009870D01*
X191630233Y-66009870D02*
X191630233Y-65843204D01*
X191630233Y-65843204D02*
X191596900Y-65776537D01*
X191596900Y-65776537D02*
X191563566Y-65743204D01*
X191563566Y-65743204D02*
X191496900Y-65709870D01*
X191496900Y-65709870D02*
X191430233Y-65709870D01*
X191430233Y-65709870D02*
X191363566Y-65743204D01*
X191363566Y-65743204D02*
X191330233Y-65776537D01*
X191330233Y-65776537D02*
X191296900Y-65843204D01*
X191296900Y-65843204D02*
X191263566Y-65976537D01*
X191263566Y-65976537D02*
X191230233Y-66043204D01*
X191230233Y-66043204D02*
X191196900Y-66076537D01*
X191196900Y-66076537D02*
X191130233Y-66109870D01*
X191130233Y-66109870D02*
X191063566Y-66109870D01*
X191063566Y-66109870D02*
X190996900Y-66076537D01*
X190996900Y-66076537D02*
X190963566Y-66043204D01*
X190963566Y-66043204D02*
X190930233Y-65976537D01*
X190930233Y-65976537D02*
X190930233Y-65809870D01*
X190930233Y-65809870D02*
X190963566Y-65709870D01*
X191630233Y-65409870D02*
X190930233Y-65409870D01*
X190930233Y-65409870D02*
X190930233Y-65243203D01*
X190930233Y-65243203D02*
X190963566Y-65143203D01*
X190963566Y-65143203D02*
X191030233Y-65076537D01*
X191030233Y-65076537D02*
X191096900Y-65043203D01*
X191096900Y-65043203D02*
X191230233Y-65009870D01*
X191230233Y-65009870D02*
X191330233Y-65009870D01*
X191330233Y-65009870D02*
X191463566Y-65043203D01*
X191463566Y-65043203D02*
X191530233Y-65076537D01*
X191530233Y-65076537D02*
X191596900Y-65143203D01*
X191596900Y-65143203D02*
X191630233Y-65243203D01*
X191630233Y-65243203D02*
X191630233Y-65409870D01*
X191630233Y-64709870D02*
X190930233Y-64709870D01*
X190930233Y-63943204D02*
X191630233Y-63709871D01*
X191630233Y-63709871D02*
X190930233Y-63476537D01*
X191630233Y-63243204D02*
X190930233Y-63243204D01*
X190930233Y-62776538D02*
X190930233Y-62643204D01*
X190930233Y-62643204D02*
X190963566Y-62576538D01*
X190963566Y-62576538D02*
X191030233Y-62509871D01*
X191030233Y-62509871D02*
X191163566Y-62476538D01*
X191163566Y-62476538D02*
X191396900Y-62476538D01*
X191396900Y-62476538D02*
X191530233Y-62509871D01*
X191530233Y-62509871D02*
X191596900Y-62576538D01*
X191596900Y-62576538D02*
X191630233Y-62643204D01*
X191630233Y-62643204D02*
X191630233Y-62776538D01*
X191630233Y-62776538D02*
X191596900Y-62843204D01*
X191596900Y-62843204D02*
X191530233Y-62909871D01*
X191530233Y-62909871D02*
X191396900Y-62943204D01*
X191396900Y-62943204D02*
X191163566Y-62943204D01*
X191163566Y-62943204D02*
X191030233Y-62909871D01*
X191030233Y-62909871D02*
X190963566Y-62843204D01*
X190963566Y-62843204D02*
X190930233Y-62776538D01*
D11*
X160358333Y-71529819D02*
X160025000Y-71053628D01*
X159786905Y-71529819D02*
X159786905Y-70529819D01*
X159786905Y-70529819D02*
X160167857Y-70529819D01*
X160167857Y-70529819D02*
X160263095Y-70577438D01*
X160263095Y-70577438D02*
X160310714Y-70625057D01*
X160310714Y-70625057D02*
X160358333Y-70720295D01*
X160358333Y-70720295D02*
X160358333Y-70863152D01*
X160358333Y-70863152D02*
X160310714Y-70958390D01*
X160310714Y-70958390D02*
X160263095Y-71006009D01*
X160263095Y-71006009D02*
X160167857Y-71053628D01*
X160167857Y-71053628D02*
X159786905Y-71053628D01*
X161215476Y-70863152D02*
X161215476Y-71529819D01*
X160977381Y-70482200D02*
X160739286Y-71196485D01*
X160739286Y-71196485D02*
X161358333Y-71196485D01*
X175595180Y-69063095D02*
X174785657Y-69063095D01*
X174785657Y-69063095D02*
X174690419Y-69110714D01*
X174690419Y-69110714D02*
X174642800Y-69158333D01*
X174642800Y-69158333D02*
X174595180Y-69253571D01*
X174595180Y-69253571D02*
X174595180Y-69444047D01*
X174595180Y-69444047D02*
X174642800Y-69539285D01*
X174642800Y-69539285D02*
X174690419Y-69586904D01*
X174690419Y-69586904D02*
X174785657Y-69634523D01*
X174785657Y-69634523D02*
X175595180Y-69634523D01*
X175595180Y-70015476D02*
X175595180Y-70634523D01*
X175595180Y-70634523D02*
X175214228Y-70301190D01*
X175214228Y-70301190D02*
X175214228Y-70444047D01*
X175214228Y-70444047D02*
X175166609Y-70539285D01*
X175166609Y-70539285D02*
X175118990Y-70586904D01*
X175118990Y-70586904D02*
X175023752Y-70634523D01*
X175023752Y-70634523D02*
X174785657Y-70634523D01*
X174785657Y-70634523D02*
X174690419Y-70586904D01*
X174690419Y-70586904D02*
X174642800Y-70539285D01*
X174642800Y-70539285D02*
X174595180Y-70444047D01*
X174595180Y-70444047D02*
X174595180Y-70158333D01*
X174595180Y-70158333D02*
X174642800Y-70063095D01*
X174642800Y-70063095D02*
X174690419Y-70015476D01*
X177105819Y-68351799D02*
X177343914Y-68351799D01*
X177248676Y-68589894D02*
X177343914Y-68351799D01*
X177343914Y-68351799D02*
X177248676Y-68113704D01*
X177534390Y-68494656D02*
X177343914Y-68351799D01*
X177343914Y-68351799D02*
X177534390Y-68208942D01*
X178196180Y-68351800D02*
X177958085Y-68351800D01*
X178053323Y-68113705D02*
X177958085Y-68351800D01*
X177958085Y-68351800D02*
X178053323Y-68589895D01*
X177767609Y-68208943D02*
X177958085Y-68351800D01*
X177958085Y-68351800D02*
X177767609Y-68494657D01*
X170336904Y-69870180D02*
X170336904Y-69060657D01*
X170336904Y-69060657D02*
X170289285Y-68965419D01*
X170289285Y-68965419D02*
X170241666Y-68917800D01*
X170241666Y-68917800D02*
X170146428Y-68870180D01*
X170146428Y-68870180D02*
X169955952Y-68870180D01*
X169955952Y-68870180D02*
X169860714Y-68917800D01*
X169860714Y-68917800D02*
X169813095Y-68965419D01*
X169813095Y-68965419D02*
X169765476Y-69060657D01*
X169765476Y-69060657D02*
X169765476Y-69870180D01*
X168860714Y-69536847D02*
X168860714Y-68870180D01*
X169098809Y-69917800D02*
X169336904Y-69203514D01*
X169336904Y-69203514D02*
X168717857Y-69203514D01*
X177029819Y-65416666D02*
X176553628Y-65749999D01*
X177029819Y-65988094D02*
X176029819Y-65988094D01*
X176029819Y-65988094D02*
X176029819Y-65607142D01*
X176029819Y-65607142D02*
X176077438Y-65511904D01*
X176077438Y-65511904D02*
X176125057Y-65464285D01*
X176125057Y-65464285D02*
X176220295Y-65416666D01*
X176220295Y-65416666D02*
X176363152Y-65416666D01*
X176363152Y-65416666D02*
X176458390Y-65464285D01*
X176458390Y-65464285D02*
X176506009Y-65511904D01*
X176506009Y-65511904D02*
X176553628Y-65607142D01*
X176553628Y-65607142D02*
X176553628Y-65988094D01*
X177029819Y-64940475D02*
X177029819Y-64749999D01*
X177029819Y-64749999D02*
X176982200Y-64654761D01*
X176982200Y-64654761D02*
X176934580Y-64607142D01*
X176934580Y-64607142D02*
X176791723Y-64511904D01*
X176791723Y-64511904D02*
X176601247Y-64464285D01*
X176601247Y-64464285D02*
X176220295Y-64464285D01*
X176220295Y-64464285D02*
X176125057Y-64511904D01*
X176125057Y-64511904D02*
X176077438Y-64559523D01*
X176077438Y-64559523D02*
X176029819Y-64654761D01*
X176029819Y-64654761D02*
X176029819Y-64845237D01*
X176029819Y-64845237D02*
X176077438Y-64940475D01*
X176077438Y-64940475D02*
X176125057Y-64988094D01*
X176125057Y-64988094D02*
X176220295Y-65035713D01*
X176220295Y-65035713D02*
X176458390Y-65035713D01*
X176458390Y-65035713D02*
X176553628Y-64988094D01*
X176553628Y-64988094D02*
X176601247Y-64940475D01*
X176601247Y-64940475D02*
X176648866Y-64845237D01*
X176648866Y-64845237D02*
X176648866Y-64654761D01*
X176648866Y-64654761D02*
X176601247Y-64559523D01*
X176601247Y-64559523D02*
X176553628Y-64511904D01*
X176553628Y-64511904D02*
X176458390Y-64464285D01*
X162608718Y-69329819D02*
X162608718Y-70139342D01*
X162608718Y-70139342D02*
X162656337Y-70234580D01*
X162656337Y-70234580D02*
X162703956Y-70282200D01*
X162703956Y-70282200D02*
X162799194Y-70329819D01*
X162799194Y-70329819D02*
X162989670Y-70329819D01*
X162989670Y-70329819D02*
X163084908Y-70282200D01*
X163084908Y-70282200D02*
X163132527Y-70234580D01*
X163132527Y-70234580D02*
X163180146Y-70139342D01*
X163180146Y-70139342D02*
X163180146Y-69329819D01*
X164180146Y-70329819D02*
X163608718Y-70329819D01*
X163894432Y-70329819D02*
X163894432Y-69329819D01*
X163894432Y-69329819D02*
X163799194Y-69472676D01*
X163799194Y-69472676D02*
X163703956Y-69567914D01*
X163703956Y-69567914D02*
X163608718Y-69615533D01*
X161071900Y-71649819D02*
X161071900Y-71887914D01*
X160833805Y-71792676D02*
X161071900Y-71887914D01*
X161071900Y-71887914D02*
X161309995Y-71792676D01*
X160929043Y-72078390D02*
X161071900Y-71887914D01*
X161071900Y-71887914D02*
X161214757Y-72078390D01*
X161071900Y-71649819D02*
X161071900Y-71887914D01*
X160833805Y-71792676D02*
X161071900Y-71887914D01*
X161071900Y-71887914D02*
X161309995Y-71792676D01*
X160929043Y-72078390D02*
X161071900Y-71887914D01*
X161071900Y-71887914D02*
X161214757Y-72078390D01*
X185654819Y-69543333D02*
X186369104Y-69543333D01*
X186369104Y-69543333D02*
X186511961Y-69590952D01*
X186511961Y-69590952D02*
X186607200Y-69686190D01*
X186607200Y-69686190D02*
X186654819Y-69829047D01*
X186654819Y-69829047D02*
X186654819Y-69924285D01*
X185654819Y-69162380D02*
X185654819Y-68543333D01*
X185654819Y-68543333D02*
X186035771Y-68876666D01*
X186035771Y-68876666D02*
X186035771Y-68733809D01*
X186035771Y-68733809D02*
X186083390Y-68638571D01*
X186083390Y-68638571D02*
X186131009Y-68590952D01*
X186131009Y-68590952D02*
X186226247Y-68543333D01*
X186226247Y-68543333D02*
X186464342Y-68543333D01*
X186464342Y-68543333D02*
X186559580Y-68590952D01*
X186559580Y-68590952D02*
X186607200Y-68638571D01*
X186607200Y-68638571D02*
X186654819Y-68733809D01*
X186654819Y-68733809D02*
X186654819Y-69019523D01*
X186654819Y-69019523D02*
X186607200Y-69114761D01*
X186607200Y-69114761D02*
X186559580Y-69162380D01*
X148854819Y-73583333D02*
X149569104Y-73583333D01*
X149569104Y-73583333D02*
X149711961Y-73630952D01*
X149711961Y-73630952D02*
X149807200Y-73726190D01*
X149807200Y-73726190D02*
X149854819Y-73869047D01*
X149854819Y-73869047D02*
X149854819Y-73964285D01*
X149854819Y-72583333D02*
X149854819Y-73154761D01*
X149854819Y-72869047D02*
X148854819Y-72869047D01*
X148854819Y-72869047D02*
X148997676Y-72964285D01*
X148997676Y-72964285D02*
X149092914Y-73059523D01*
X149092914Y-73059523D02*
X149140533Y-73154761D01*
X182794642Y-72659580D02*
X182747023Y-72707200D01*
X182747023Y-72707200D02*
X182604166Y-72754819D01*
X182604166Y-72754819D02*
X182508928Y-72754819D01*
X182508928Y-72754819D02*
X182366071Y-72707200D01*
X182366071Y-72707200D02*
X182270833Y-72611961D01*
X182270833Y-72611961D02*
X182223214Y-72516723D01*
X182223214Y-72516723D02*
X182175595Y-72326247D01*
X182175595Y-72326247D02*
X182175595Y-72183390D01*
X182175595Y-72183390D02*
X182223214Y-71992914D01*
X182223214Y-71992914D02*
X182270833Y-71897676D01*
X182270833Y-71897676D02*
X182366071Y-71802438D01*
X182366071Y-71802438D02*
X182508928Y-71754819D01*
X182508928Y-71754819D02*
X182604166Y-71754819D01*
X182604166Y-71754819D02*
X182747023Y-71802438D01*
X182747023Y-71802438D02*
X182794642Y-71850057D01*
X183747023Y-72754819D02*
X183175595Y-72754819D01*
X183461309Y-72754819D02*
X183461309Y-71754819D01*
X183461309Y-71754819D02*
X183366071Y-71897676D01*
X183366071Y-71897676D02*
X183270833Y-71992914D01*
X183270833Y-71992914D02*
X183175595Y-72040533D01*
X184699404Y-72754819D02*
X184127976Y-72754819D01*
X184413690Y-72754819D02*
X184413690Y-71754819D01*
X184413690Y-71754819D02*
X184318452Y-71897676D01*
X184318452Y-71897676D02*
X184223214Y-71992914D01*
X184223214Y-71992914D02*
X184127976Y-72040533D01*
X171432142Y-72004819D02*
X171098809Y-71528628D01*
X170860714Y-72004819D02*
X170860714Y-71004819D01*
X170860714Y-71004819D02*
X171241666Y-71004819D01*
X171241666Y-71004819D02*
X171336904Y-71052438D01*
X171336904Y-71052438D02*
X171384523Y-71100057D01*
X171384523Y-71100057D02*
X171432142Y-71195295D01*
X171432142Y-71195295D02*
X171432142Y-71338152D01*
X171432142Y-71338152D02*
X171384523Y-71433390D01*
X171384523Y-71433390D02*
X171336904Y-71481009D01*
X171336904Y-71481009D02*
X171241666Y-71528628D01*
X171241666Y-71528628D02*
X170860714Y-71528628D01*
X172384523Y-72004819D02*
X171813095Y-72004819D01*
X172098809Y-72004819D02*
X172098809Y-71004819D01*
X172098809Y-71004819D02*
X172003571Y-71147676D01*
X172003571Y-71147676D02*
X171908333Y-71242914D01*
X171908333Y-71242914D02*
X171813095Y-71290533D01*
X173003571Y-71004819D02*
X173098809Y-71004819D01*
X173098809Y-71004819D02*
X173194047Y-71052438D01*
X173194047Y-71052438D02*
X173241666Y-71100057D01*
X173241666Y-71100057D02*
X173289285Y-71195295D01*
X173289285Y-71195295D02*
X173336904Y-71385771D01*
X173336904Y-71385771D02*
X173336904Y-71623866D01*
X173336904Y-71623866D02*
X173289285Y-71814342D01*
X173289285Y-71814342D02*
X173241666Y-71909580D01*
X173241666Y-71909580D02*
X173194047Y-71957200D01*
X173194047Y-71957200D02*
X173098809Y-72004819D01*
X173098809Y-72004819D02*
X173003571Y-72004819D01*
X173003571Y-72004819D02*
X172908333Y-71957200D01*
X172908333Y-71957200D02*
X172860714Y-71909580D01*
X172860714Y-71909580D02*
X172813095Y-71814342D01*
X172813095Y-71814342D02*
X172765476Y-71623866D01*
X172765476Y-71623866D02*
X172765476Y-71385771D01*
X172765476Y-71385771D02*
X172813095Y-71195295D01*
X172813095Y-71195295D02*
X172860714Y-71100057D01*
X172860714Y-71100057D02*
X172908333Y-71052438D01*
X172908333Y-71052438D02*
X173003571Y-71004819D01*
X183733333Y-61159580D02*
X183685714Y-61207200D01*
X183685714Y-61207200D02*
X183542857Y-61254819D01*
X183542857Y-61254819D02*
X183447619Y-61254819D01*
X183447619Y-61254819D02*
X183304762Y-61207200D01*
X183304762Y-61207200D02*
X183209524Y-61111961D01*
X183209524Y-61111961D02*
X183161905Y-61016723D01*
X183161905Y-61016723D02*
X183114286Y-60826247D01*
X183114286Y-60826247D02*
X183114286Y-60683390D01*
X183114286Y-60683390D02*
X183161905Y-60492914D01*
X183161905Y-60492914D02*
X183209524Y-60397676D01*
X183209524Y-60397676D02*
X183304762Y-60302438D01*
X183304762Y-60302438D02*
X183447619Y-60254819D01*
X183447619Y-60254819D02*
X183542857Y-60254819D01*
X183542857Y-60254819D02*
X183685714Y-60302438D01*
X183685714Y-60302438D02*
X183733333Y-60350057D01*
X184209524Y-61254819D02*
X184400000Y-61254819D01*
X184400000Y-61254819D02*
X184495238Y-61207200D01*
X184495238Y-61207200D02*
X184542857Y-61159580D01*
X184542857Y-61159580D02*
X184638095Y-61016723D01*
X184638095Y-61016723D02*
X184685714Y-60826247D01*
X184685714Y-60826247D02*
X184685714Y-60445295D01*
X184685714Y-60445295D02*
X184638095Y-60350057D01*
X184638095Y-60350057D02*
X184590476Y-60302438D01*
X184590476Y-60302438D02*
X184495238Y-60254819D01*
X184495238Y-60254819D02*
X184304762Y-60254819D01*
X184304762Y-60254819D02*
X184209524Y-60302438D01*
X184209524Y-60302438D02*
X184161905Y-60350057D01*
X184161905Y-60350057D02*
X184114286Y-60445295D01*
X184114286Y-60445295D02*
X184114286Y-60683390D01*
X184114286Y-60683390D02*
X184161905Y-60778628D01*
X184161905Y-60778628D02*
X184209524Y-60826247D01*
X184209524Y-60826247D02*
X184304762Y-60873866D01*
X184304762Y-60873866D02*
X184495238Y-60873866D01*
X184495238Y-60873866D02*
X184590476Y-60826247D01*
X184590476Y-60826247D02*
X184638095Y-60778628D01*
X184638095Y-60778628D02*
X184685714Y-60683390D01*
X158233333Y-71529819D02*
X157900000Y-71053628D01*
X157661905Y-71529819D02*
X157661905Y-70529819D01*
X157661905Y-70529819D02*
X158042857Y-70529819D01*
X158042857Y-70529819D02*
X158138095Y-70577438D01*
X158138095Y-70577438D02*
X158185714Y-70625057D01*
X158185714Y-70625057D02*
X158233333Y-70720295D01*
X158233333Y-70720295D02*
X158233333Y-70863152D01*
X158233333Y-70863152D02*
X158185714Y-70958390D01*
X158185714Y-70958390D02*
X158138095Y-71006009D01*
X158138095Y-71006009D02*
X158042857Y-71053628D01*
X158042857Y-71053628D02*
X157661905Y-71053628D01*
X158566667Y-70529819D02*
X159185714Y-70529819D01*
X159185714Y-70529819D02*
X158852381Y-70910771D01*
X158852381Y-70910771D02*
X158995238Y-70910771D01*
X158995238Y-70910771D02*
X159090476Y-70958390D01*
X159090476Y-70958390D02*
X159138095Y-71006009D01*
X159138095Y-71006009D02*
X159185714Y-71101247D01*
X159185714Y-71101247D02*
X159185714Y-71339342D01*
X159185714Y-71339342D02*
X159138095Y-71434580D01*
X159138095Y-71434580D02*
X159090476Y-71482200D01*
X159090476Y-71482200D02*
X158995238Y-71529819D01*
X158995238Y-71529819D02*
X158709524Y-71529819D01*
X158709524Y-71529819D02*
X158614286Y-71482200D01*
X158614286Y-71482200D02*
X158566667Y-71434580D01*
X175782142Y-77859580D02*
X175734523Y-77907200D01*
X175734523Y-77907200D02*
X175591666Y-77954819D01*
X175591666Y-77954819D02*
X175496428Y-77954819D01*
X175496428Y-77954819D02*
X175353571Y-77907200D01*
X175353571Y-77907200D02*
X175258333Y-77811961D01*
X175258333Y-77811961D02*
X175210714Y-77716723D01*
X175210714Y-77716723D02*
X175163095Y-77526247D01*
X175163095Y-77526247D02*
X175163095Y-77383390D01*
X175163095Y-77383390D02*
X175210714Y-77192914D01*
X175210714Y-77192914D02*
X175258333Y-77097676D01*
X175258333Y-77097676D02*
X175353571Y-77002438D01*
X175353571Y-77002438D02*
X175496428Y-76954819D01*
X175496428Y-76954819D02*
X175591666Y-76954819D01*
X175591666Y-76954819D02*
X175734523Y-77002438D01*
X175734523Y-77002438D02*
X175782142Y-77050057D01*
X176734523Y-77954819D02*
X176163095Y-77954819D01*
X176448809Y-77954819D02*
X176448809Y-76954819D01*
X176448809Y-76954819D02*
X176353571Y-77097676D01*
X176353571Y-77097676D02*
X176258333Y-77192914D01*
X176258333Y-77192914D02*
X176163095Y-77240533D01*
X177353571Y-76954819D02*
X177448809Y-76954819D01*
X177448809Y-76954819D02*
X177544047Y-77002438D01*
X177544047Y-77002438D02*
X177591666Y-77050057D01*
X177591666Y-77050057D02*
X177639285Y-77145295D01*
X177639285Y-77145295D02*
X177686904Y-77335771D01*
X177686904Y-77335771D02*
X177686904Y-77573866D01*
X177686904Y-77573866D02*
X177639285Y-77764342D01*
X177639285Y-77764342D02*
X177591666Y-77859580D01*
X177591666Y-77859580D02*
X177544047Y-77907200D01*
X177544047Y-77907200D02*
X177448809Y-77954819D01*
X177448809Y-77954819D02*
X177353571Y-77954819D01*
X177353571Y-77954819D02*
X177258333Y-77907200D01*
X177258333Y-77907200D02*
X177210714Y-77859580D01*
X177210714Y-77859580D02*
X177163095Y-77764342D01*
X177163095Y-77764342D02*
X177115476Y-77573866D01*
X177115476Y-77573866D02*
X177115476Y-77335771D01*
X177115476Y-77335771D02*
X177163095Y-77145295D01*
X177163095Y-77145295D02*
X177210714Y-77050057D01*
X177210714Y-77050057D02*
X177258333Y-77002438D01*
X177258333Y-77002438D02*
X177353571Y-76954819D01*
X169958333Y-76509580D02*
X169910714Y-76557200D01*
X169910714Y-76557200D02*
X169767857Y-76604819D01*
X169767857Y-76604819D02*
X169672619Y-76604819D01*
X169672619Y-76604819D02*
X169529762Y-76557200D01*
X169529762Y-76557200D02*
X169434524Y-76461961D01*
X169434524Y-76461961D02*
X169386905Y-76366723D01*
X169386905Y-76366723D02*
X169339286Y-76176247D01*
X169339286Y-76176247D02*
X169339286Y-76033390D01*
X169339286Y-76033390D02*
X169386905Y-75842914D01*
X169386905Y-75842914D02*
X169434524Y-75747676D01*
X169434524Y-75747676D02*
X169529762Y-75652438D01*
X169529762Y-75652438D02*
X169672619Y-75604819D01*
X169672619Y-75604819D02*
X169767857Y-75604819D01*
X169767857Y-75604819D02*
X169910714Y-75652438D01*
X169910714Y-75652438D02*
X169958333Y-75700057D01*
X170339286Y-75700057D02*
X170386905Y-75652438D01*
X170386905Y-75652438D02*
X170482143Y-75604819D01*
X170482143Y-75604819D02*
X170720238Y-75604819D01*
X170720238Y-75604819D02*
X170815476Y-75652438D01*
X170815476Y-75652438D02*
X170863095Y-75700057D01*
X170863095Y-75700057D02*
X170910714Y-75795295D01*
X170910714Y-75795295D02*
X170910714Y-75890533D01*
X170910714Y-75890533D02*
X170863095Y-76033390D01*
X170863095Y-76033390D02*
X170291667Y-76604819D01*
X170291667Y-76604819D02*
X170910714Y-76604819D01*
X155733333Y-71579819D02*
X155400000Y-71103628D01*
X155161905Y-71579819D02*
X155161905Y-70579819D01*
X155161905Y-70579819D02*
X155542857Y-70579819D01*
X155542857Y-70579819D02*
X155638095Y-70627438D01*
X155638095Y-70627438D02*
X155685714Y-70675057D01*
X155685714Y-70675057D02*
X155733333Y-70770295D01*
X155733333Y-70770295D02*
X155733333Y-70913152D01*
X155733333Y-70913152D02*
X155685714Y-71008390D01*
X155685714Y-71008390D02*
X155638095Y-71056009D01*
X155638095Y-71056009D02*
X155542857Y-71103628D01*
X155542857Y-71103628D02*
X155161905Y-71103628D01*
X156685714Y-71579819D02*
X156114286Y-71579819D01*
X156400000Y-71579819D02*
X156400000Y-70579819D01*
X156400000Y-70579819D02*
X156304762Y-70722676D01*
X156304762Y-70722676D02*
X156209524Y-70817914D01*
X156209524Y-70817914D02*
X156114286Y-70865533D01*
X167308333Y-72079819D02*
X166975000Y-71603628D01*
X166736905Y-72079819D02*
X166736905Y-71079819D01*
X166736905Y-71079819D02*
X167117857Y-71079819D01*
X167117857Y-71079819D02*
X167213095Y-71127438D01*
X167213095Y-71127438D02*
X167260714Y-71175057D01*
X167260714Y-71175057D02*
X167308333Y-71270295D01*
X167308333Y-71270295D02*
X167308333Y-71413152D01*
X167308333Y-71413152D02*
X167260714Y-71508390D01*
X167260714Y-71508390D02*
X167213095Y-71556009D01*
X167213095Y-71556009D02*
X167117857Y-71603628D01*
X167117857Y-71603628D02*
X166736905Y-71603628D01*
X167879762Y-71508390D02*
X167784524Y-71460771D01*
X167784524Y-71460771D02*
X167736905Y-71413152D01*
X167736905Y-71413152D02*
X167689286Y-71317914D01*
X167689286Y-71317914D02*
X167689286Y-71270295D01*
X167689286Y-71270295D02*
X167736905Y-71175057D01*
X167736905Y-71175057D02*
X167784524Y-71127438D01*
X167784524Y-71127438D02*
X167879762Y-71079819D01*
X167879762Y-71079819D02*
X168070238Y-71079819D01*
X168070238Y-71079819D02*
X168165476Y-71127438D01*
X168165476Y-71127438D02*
X168213095Y-71175057D01*
X168213095Y-71175057D02*
X168260714Y-71270295D01*
X168260714Y-71270295D02*
X168260714Y-71317914D01*
X168260714Y-71317914D02*
X168213095Y-71413152D01*
X168213095Y-71413152D02*
X168165476Y-71460771D01*
X168165476Y-71460771D02*
X168070238Y-71508390D01*
X168070238Y-71508390D02*
X167879762Y-71508390D01*
X167879762Y-71508390D02*
X167784524Y-71556009D01*
X167784524Y-71556009D02*
X167736905Y-71603628D01*
X167736905Y-71603628D02*
X167689286Y-71698866D01*
X167689286Y-71698866D02*
X167689286Y-71889342D01*
X167689286Y-71889342D02*
X167736905Y-71984580D01*
X167736905Y-71984580D02*
X167784524Y-72032200D01*
X167784524Y-72032200D02*
X167879762Y-72079819D01*
X167879762Y-72079819D02*
X168070238Y-72079819D01*
X168070238Y-72079819D02*
X168165476Y-72032200D01*
X168165476Y-72032200D02*
X168213095Y-71984580D01*
X168213095Y-71984580D02*
X168260714Y-71889342D01*
X168260714Y-71889342D02*
X168260714Y-71698866D01*
X168260714Y-71698866D02*
X168213095Y-71603628D01*
X168213095Y-71603628D02*
X168165476Y-71556009D01*
X168165476Y-71556009D02*
X168070238Y-71508390D01*
X161884580Y-77216666D02*
X161932200Y-77264285D01*
X161932200Y-77264285D02*
X161979819Y-77407142D01*
X161979819Y-77407142D02*
X161979819Y-77502380D01*
X161979819Y-77502380D02*
X161932200Y-77645237D01*
X161932200Y-77645237D02*
X161836961Y-77740475D01*
X161836961Y-77740475D02*
X161741723Y-77788094D01*
X161741723Y-77788094D02*
X161551247Y-77835713D01*
X161551247Y-77835713D02*
X161408390Y-77835713D01*
X161408390Y-77835713D02*
X161217914Y-77788094D01*
X161217914Y-77788094D02*
X161122676Y-77740475D01*
X161122676Y-77740475D02*
X161027438Y-77645237D01*
X161027438Y-77645237D02*
X160979819Y-77502380D01*
X160979819Y-77502380D02*
X160979819Y-77407142D01*
X160979819Y-77407142D02*
X161027438Y-77264285D01*
X161027438Y-77264285D02*
X161075057Y-77216666D01*
X161979819Y-76264285D02*
X161979819Y-76835713D01*
X161979819Y-76549999D02*
X160979819Y-76549999D01*
X160979819Y-76549999D02*
X161122676Y-76645237D01*
X161122676Y-76645237D02*
X161217914Y-76740475D01*
X161217914Y-76740475D02*
X161265533Y-76835713D01*
X166808333Y-76279819D02*
X166475000Y-75803628D01*
X166236905Y-76279819D02*
X166236905Y-75279819D01*
X166236905Y-75279819D02*
X166617857Y-75279819D01*
X166617857Y-75279819D02*
X166713095Y-75327438D01*
X166713095Y-75327438D02*
X166760714Y-75375057D01*
X166760714Y-75375057D02*
X166808333Y-75470295D01*
X166808333Y-75470295D02*
X166808333Y-75613152D01*
X166808333Y-75613152D02*
X166760714Y-75708390D01*
X166760714Y-75708390D02*
X166713095Y-75756009D01*
X166713095Y-75756009D02*
X166617857Y-75803628D01*
X166617857Y-75803628D02*
X166236905Y-75803628D01*
X167713095Y-75279819D02*
X167236905Y-75279819D01*
X167236905Y-75279819D02*
X167189286Y-75756009D01*
X167189286Y-75756009D02*
X167236905Y-75708390D01*
X167236905Y-75708390D02*
X167332143Y-75660771D01*
X167332143Y-75660771D02*
X167570238Y-75660771D01*
X167570238Y-75660771D02*
X167665476Y-75708390D01*
X167665476Y-75708390D02*
X167713095Y-75756009D01*
X167713095Y-75756009D02*
X167760714Y-75851247D01*
X167760714Y-75851247D02*
X167760714Y-76089342D01*
X167760714Y-76089342D02*
X167713095Y-76184580D01*
X167713095Y-76184580D02*
X167665476Y-76232200D01*
X167665476Y-76232200D02*
X167570238Y-76279819D01*
X167570238Y-76279819D02*
X167332143Y-76279819D01*
X167332143Y-76279819D02*
X167236905Y-76232200D01*
X167236905Y-76232200D02*
X167189286Y-76184580D01*
X174363095Y-73129819D02*
X174363095Y-73939342D01*
X174363095Y-73939342D02*
X174410714Y-74034580D01*
X174410714Y-74034580D02*
X174458333Y-74082200D01*
X174458333Y-74082200D02*
X174553571Y-74129819D01*
X174553571Y-74129819D02*
X174744047Y-74129819D01*
X174744047Y-74129819D02*
X174839285Y-74082200D01*
X174839285Y-74082200D02*
X174886904Y-74034580D01*
X174886904Y-74034580D02*
X174934523Y-73939342D01*
X174934523Y-73939342D02*
X174934523Y-73129819D01*
X175886904Y-73129819D02*
X175410714Y-73129819D01*
X175410714Y-73129819D02*
X175363095Y-73606009D01*
X175363095Y-73606009D02*
X175410714Y-73558390D01*
X175410714Y-73558390D02*
X175505952Y-73510771D01*
X175505952Y-73510771D02*
X175744047Y-73510771D01*
X175744047Y-73510771D02*
X175839285Y-73558390D01*
X175839285Y-73558390D02*
X175886904Y-73606009D01*
X175886904Y-73606009D02*
X175934523Y-73701247D01*
X175934523Y-73701247D02*
X175934523Y-73939342D01*
X175934523Y-73939342D02*
X175886904Y-74034580D01*
X175886904Y-74034580D02*
X175839285Y-74082200D01*
X175839285Y-74082200D02*
X175744047Y-74129819D01*
X175744047Y-74129819D02*
X175505952Y-74129819D01*
X175505952Y-74129819D02*
X175410714Y-74082200D01*
X175410714Y-74082200D02*
X175363095Y-74034580D01*
X165916666Y-61029819D02*
X165916666Y-61744104D01*
X165916666Y-61744104D02*
X165869047Y-61886961D01*
X165869047Y-61886961D02*
X165773809Y-61982200D01*
X165773809Y-61982200D02*
X165630952Y-62029819D01*
X165630952Y-62029819D02*
X165535714Y-62029819D01*
X166345238Y-61125057D02*
X166392857Y-61077438D01*
X166392857Y-61077438D02*
X166488095Y-61029819D01*
X166488095Y-61029819D02*
X166726190Y-61029819D01*
X166726190Y-61029819D02*
X166821428Y-61077438D01*
X166821428Y-61077438D02*
X166869047Y-61125057D01*
X166869047Y-61125057D02*
X166916666Y-61220295D01*
X166916666Y-61220295D02*
X166916666Y-61315533D01*
X166916666Y-61315533D02*
X166869047Y-61458390D01*
X166869047Y-61458390D02*
X166297619Y-62029819D01*
X166297619Y-62029819D02*
X166916666Y-62029819D01*
X155733333Y-76159819D02*
X155400000Y-75683628D01*
X155161905Y-76159819D02*
X155161905Y-75159819D01*
X155161905Y-75159819D02*
X155542857Y-75159819D01*
X155542857Y-75159819D02*
X155638095Y-75207438D01*
X155638095Y-75207438D02*
X155685714Y-75255057D01*
X155685714Y-75255057D02*
X155733333Y-75350295D01*
X155733333Y-75350295D02*
X155733333Y-75493152D01*
X155733333Y-75493152D02*
X155685714Y-75588390D01*
X155685714Y-75588390D02*
X155638095Y-75636009D01*
X155638095Y-75636009D02*
X155542857Y-75683628D01*
X155542857Y-75683628D02*
X155161905Y-75683628D01*
X156114286Y-75255057D02*
X156161905Y-75207438D01*
X156161905Y-75207438D02*
X156257143Y-75159819D01*
X156257143Y-75159819D02*
X156495238Y-75159819D01*
X156495238Y-75159819D02*
X156590476Y-75207438D01*
X156590476Y-75207438D02*
X156638095Y-75255057D01*
X156638095Y-75255057D02*
X156685714Y-75350295D01*
X156685714Y-75350295D02*
X156685714Y-75445533D01*
X156685714Y-75445533D02*
X156638095Y-75588390D01*
X156638095Y-75588390D02*
X156066667Y-76159819D01*
X156066667Y-76159819D02*
X156685714Y-76159819D01*
X171483333Y-64554819D02*
X171150000Y-64078628D01*
X170911905Y-64554819D02*
X170911905Y-63554819D01*
X170911905Y-63554819D02*
X171292857Y-63554819D01*
X171292857Y-63554819D02*
X171388095Y-63602438D01*
X171388095Y-63602438D02*
X171435714Y-63650057D01*
X171435714Y-63650057D02*
X171483333Y-63745295D01*
X171483333Y-63745295D02*
X171483333Y-63888152D01*
X171483333Y-63888152D02*
X171435714Y-63983390D01*
X171435714Y-63983390D02*
X171388095Y-64031009D01*
X171388095Y-64031009D02*
X171292857Y-64078628D01*
X171292857Y-64078628D02*
X170911905Y-64078628D01*
X171816667Y-63554819D02*
X172483333Y-63554819D01*
X172483333Y-63554819D02*
X172054762Y-64554819D01*
X180539580Y-70341666D02*
X180587200Y-70389285D01*
X180587200Y-70389285D02*
X180634819Y-70532142D01*
X180634819Y-70532142D02*
X180634819Y-70627380D01*
X180634819Y-70627380D02*
X180587200Y-70770237D01*
X180587200Y-70770237D02*
X180491961Y-70865475D01*
X180491961Y-70865475D02*
X180396723Y-70913094D01*
X180396723Y-70913094D02*
X180206247Y-70960713D01*
X180206247Y-70960713D02*
X180063390Y-70960713D01*
X180063390Y-70960713D02*
X179872914Y-70913094D01*
X179872914Y-70913094D02*
X179777676Y-70865475D01*
X179777676Y-70865475D02*
X179682438Y-70770237D01*
X179682438Y-70770237D02*
X179634819Y-70627380D01*
X179634819Y-70627380D02*
X179634819Y-70532142D01*
X179634819Y-70532142D02*
X179682438Y-70389285D01*
X179682438Y-70389285D02*
X179730057Y-70341666D01*
X179634819Y-70008332D02*
X179634819Y-69341666D01*
X179634819Y-69341666D02*
X180634819Y-69770237D01*
X179970180Y-64288095D02*
X179160657Y-64288095D01*
X179160657Y-64288095D02*
X179065419Y-64335714D01*
X179065419Y-64335714D02*
X179017800Y-64383333D01*
X179017800Y-64383333D02*
X178970180Y-64478571D01*
X178970180Y-64478571D02*
X178970180Y-64669047D01*
X178970180Y-64669047D02*
X179017800Y-64764285D01*
X179017800Y-64764285D02*
X179065419Y-64811904D01*
X179065419Y-64811904D02*
X179160657Y-64859523D01*
X179160657Y-64859523D02*
X179970180Y-64859523D01*
X179874942Y-65288095D02*
X179922561Y-65335714D01*
X179922561Y-65335714D02*
X179970180Y-65430952D01*
X179970180Y-65430952D02*
X179970180Y-65669047D01*
X179970180Y-65669047D02*
X179922561Y-65764285D01*
X179922561Y-65764285D02*
X179874942Y-65811904D01*
X179874942Y-65811904D02*
X179779704Y-65859523D01*
X179779704Y-65859523D02*
X179684466Y-65859523D01*
X179684466Y-65859523D02*
X179541609Y-65811904D01*
X179541609Y-65811904D02*
X178970180Y-65240476D01*
X178970180Y-65240476D02*
X178970180Y-65859523D01*
X183526180Y-62383000D02*
X183288085Y-62383000D01*
X183383323Y-62144905D02*
X183288085Y-62383000D01*
X183288085Y-62383000D02*
X183383323Y-62621095D01*
X183097609Y-62240143D02*
X183288085Y-62383000D01*
X183288085Y-62383000D02*
X183097609Y-62525857D01*
X182435819Y-62382999D02*
X182673914Y-62382999D01*
X182578676Y-62621094D02*
X182673914Y-62382999D01*
X182673914Y-62382999D02*
X182578676Y-62144904D01*
X182864390Y-62525856D02*
X182673914Y-62382999D01*
X182673914Y-62382999D02*
X182864390Y-62240142D01*
X166759580Y-77566666D02*
X166807200Y-77614285D01*
X166807200Y-77614285D02*
X166854819Y-77757142D01*
X166854819Y-77757142D02*
X166854819Y-77852380D01*
X166854819Y-77852380D02*
X166807200Y-77995237D01*
X166807200Y-77995237D02*
X166711961Y-78090475D01*
X166711961Y-78090475D02*
X166616723Y-78138094D01*
X166616723Y-78138094D02*
X166426247Y-78185713D01*
X166426247Y-78185713D02*
X166283390Y-78185713D01*
X166283390Y-78185713D02*
X166092914Y-78138094D01*
X166092914Y-78138094D02*
X165997676Y-78090475D01*
X165997676Y-78090475D02*
X165902438Y-77995237D01*
X165902438Y-77995237D02*
X165854819Y-77852380D01*
X165854819Y-77852380D02*
X165854819Y-77757142D01*
X165854819Y-77757142D02*
X165902438Y-77614285D01*
X165902438Y-77614285D02*
X165950057Y-77566666D01*
X166188152Y-76709523D02*
X166854819Y-76709523D01*
X165807200Y-76947618D02*
X166521485Y-77185713D01*
X166521485Y-77185713D02*
X166521485Y-76566666D01*
X166433333Y-67234580D02*
X166385714Y-67282200D01*
X166385714Y-67282200D02*
X166242857Y-67329819D01*
X166242857Y-67329819D02*
X166147619Y-67329819D01*
X166147619Y-67329819D02*
X166004762Y-67282200D01*
X166004762Y-67282200D02*
X165909524Y-67186961D01*
X165909524Y-67186961D02*
X165861905Y-67091723D01*
X165861905Y-67091723D02*
X165814286Y-66901247D01*
X165814286Y-66901247D02*
X165814286Y-66758390D01*
X165814286Y-66758390D02*
X165861905Y-66567914D01*
X165861905Y-66567914D02*
X165909524Y-66472676D01*
X165909524Y-66472676D02*
X166004762Y-66377438D01*
X166004762Y-66377438D02*
X166147619Y-66329819D01*
X166147619Y-66329819D02*
X166242857Y-66329819D01*
X166242857Y-66329819D02*
X166385714Y-66377438D01*
X166385714Y-66377438D02*
X166433333Y-66425057D01*
X167338095Y-66329819D02*
X166861905Y-66329819D01*
X166861905Y-66329819D02*
X166814286Y-66806009D01*
X166814286Y-66806009D02*
X166861905Y-66758390D01*
X166861905Y-66758390D02*
X166957143Y-66710771D01*
X166957143Y-66710771D02*
X167195238Y-66710771D01*
X167195238Y-66710771D02*
X167290476Y-66758390D01*
X167290476Y-66758390D02*
X167338095Y-66806009D01*
X167338095Y-66806009D02*
X167385714Y-66901247D01*
X167385714Y-66901247D02*
X167385714Y-67139342D01*
X167385714Y-67139342D02*
X167338095Y-67234580D01*
X167338095Y-67234580D02*
X167290476Y-67282200D01*
X167290476Y-67282200D02*
X167195238Y-67329819D01*
X167195238Y-67329819D02*
X166957143Y-67329819D01*
X166957143Y-67329819D02*
X166861905Y-67282200D01*
X166861905Y-67282200D02*
X166814286Y-67234580D01*
X173208333Y-66079819D02*
X172875000Y-65603628D01*
X172636905Y-66079819D02*
X172636905Y-65079819D01*
X172636905Y-65079819D02*
X173017857Y-65079819D01*
X173017857Y-65079819D02*
X173113095Y-65127438D01*
X173113095Y-65127438D02*
X173160714Y-65175057D01*
X173160714Y-65175057D02*
X173208333Y-65270295D01*
X173208333Y-65270295D02*
X173208333Y-65413152D01*
X173208333Y-65413152D02*
X173160714Y-65508390D01*
X173160714Y-65508390D02*
X173113095Y-65556009D01*
X173113095Y-65556009D02*
X173017857Y-65603628D01*
X173017857Y-65603628D02*
X172636905Y-65603628D01*
X174065476Y-65079819D02*
X173875000Y-65079819D01*
X173875000Y-65079819D02*
X173779762Y-65127438D01*
X173779762Y-65127438D02*
X173732143Y-65175057D01*
X173732143Y-65175057D02*
X173636905Y-65317914D01*
X173636905Y-65317914D02*
X173589286Y-65508390D01*
X173589286Y-65508390D02*
X173589286Y-65889342D01*
X173589286Y-65889342D02*
X173636905Y-65984580D01*
X173636905Y-65984580D02*
X173684524Y-66032200D01*
X173684524Y-66032200D02*
X173779762Y-66079819D01*
X173779762Y-66079819D02*
X173970238Y-66079819D01*
X173970238Y-66079819D02*
X174065476Y-66032200D01*
X174065476Y-66032200D02*
X174113095Y-65984580D01*
X174113095Y-65984580D02*
X174160714Y-65889342D01*
X174160714Y-65889342D02*
X174160714Y-65651247D01*
X174160714Y-65651247D02*
X174113095Y-65556009D01*
X174113095Y-65556009D02*
X174065476Y-65508390D01*
X174065476Y-65508390D02*
X173970238Y-65460771D01*
X173970238Y-65460771D02*
X173779762Y-65460771D01*
X173779762Y-65460771D02*
X173684524Y-65508390D01*
X173684524Y-65508390D02*
X173636905Y-65556009D01*
X173636905Y-65556009D02*
X173589286Y-65651247D01*
D12*
%TO.C,R4*%
X160972500Y-73020276D02*
X160972500Y-73529724D01*
X159927500Y-73020276D02*
X159927500Y-73529724D01*
D13*
%TO.C,U3*%
X173424400Y-68847100D02*
X173424400Y-70802900D01*
X176675600Y-70802900D02*
X176675600Y-68847100D01*
%TO.C,U4*%
X168597100Y-70950600D02*
X170552900Y-70950600D01*
X170552900Y-67699400D02*
X168597100Y-67699400D01*
D12*
%TO.C,R9*%
X174652500Y-65670276D02*
X174652500Y-66179724D01*
X175697500Y-65670276D02*
X175697500Y-66179724D01*
D13*
%TO.C,U1*%
X161884700Y-71518600D02*
X161884700Y-71985259D01*
X161884700Y-74404741D02*
X161884700Y-74871400D01*
X161884700Y-74871400D02*
X162351359Y-74871400D01*
X162351359Y-71518600D02*
X161884700Y-71518600D01*
X164770841Y-74871400D02*
X165237500Y-74871400D01*
X165237500Y-71518600D02*
X164770841Y-71518600D01*
X165237500Y-71985259D02*
X165237500Y-71518600D01*
X165237500Y-74871400D02*
X165237500Y-74404741D01*
D14*
G36*
X165923300Y-73635500D02*
G01*
X165669300Y-73635500D01*
X165669300Y-73254499D01*
X165923300Y-73254499D01*
X165923300Y-73635500D01*
G37*
D12*
%TO.C,J3*%
X187345000Y-61480000D02*
X188725000Y-61480000D01*
X187345000Y-62860000D02*
X187345000Y-61480000D01*
X187345000Y-64130000D02*
X187345000Y-76940000D01*
X187345000Y-64130000D02*
X190105000Y-64130000D01*
X187345000Y-76940000D02*
X190105000Y-76940000D01*
X190105000Y-64130000D02*
X190105000Y-76940000D01*
%TO.C,J1*%
X140950000Y-70425000D02*
X140950000Y-76075000D01*
X141150000Y-73250000D02*
X141850000Y-72750000D01*
X141150000Y-73250000D02*
X141850000Y-73750000D01*
X143625000Y-78980000D02*
X149275000Y-78980000D01*
X149275000Y-67520000D02*
X143625000Y-67520000D01*
X152180000Y-76075000D02*
X152180000Y-70425000D01*
%TO.C,C11*%
X183583767Y-70360000D02*
X183291233Y-70360000D01*
X183583767Y-71380000D02*
X183291233Y-71380000D01*
%TO.C,R10*%
X172002500Y-69070276D02*
X172002500Y-69579724D01*
X173047500Y-69070276D02*
X173047500Y-69579724D01*
%TO.C,C9*%
X180953733Y-60315000D02*
X181246267Y-60315000D01*
X180953733Y-61335000D02*
X181246267Y-61335000D01*
%TO.C,R3*%
X157877500Y-73579724D02*
X157877500Y-73070276D01*
X158922500Y-73579724D02*
X158922500Y-73070276D01*
%TO.C,C10*%
X176278733Y-75640000D02*
X176571267Y-75640000D01*
X176278733Y-76660000D02*
X176571267Y-76660000D01*
%TO.C,C2*%
X169665000Y-73921267D02*
X169665000Y-73628733D01*
X170685000Y-73921267D02*
X170685000Y-73628733D01*
%TO.C,R1*%
X156154724Y-71902500D02*
X155645276Y-71902500D01*
X156154724Y-72947500D02*
X155645276Y-72947500D01*
%TO.C,R8*%
X167370276Y-72402500D02*
X167879724Y-72402500D01*
X167370276Y-73447500D02*
X167879724Y-73447500D01*
%TO.C,C1*%
X162315000Y-76903733D02*
X162315000Y-77196267D01*
X163335000Y-76903733D02*
X163335000Y-77196267D01*
%TO.C,R5*%
X167270276Y-74027500D02*
X167779724Y-74027500D01*
X167270276Y-75072500D02*
X167779724Y-75072500D01*
D13*
%TO.C,U5*%
X173498000Y-75302000D02*
X176752000Y-75302000D01*
X176752000Y-72048000D02*
X173498000Y-72048000D01*
D14*
G36*
X178360399Y-72865499D02*
G01*
X178106399Y-72865499D01*
X178106399Y-72484499D01*
X178360399Y-72484499D01*
X178360399Y-72865499D01*
G37*
D12*
%TO.C,J2*%
X167765000Y-60195000D02*
X167765000Y-62955000D01*
X172955000Y-60195000D02*
X167765000Y-60195000D01*
X172955000Y-60195000D02*
X172955000Y-62955000D01*
X172955000Y-62955000D02*
X167765000Y-62955000D01*
X174225000Y-60195000D02*
X175605000Y-60195000D01*
X175605000Y-60195000D02*
X175605000Y-61575000D01*
%TO.C,R2*%
X156154724Y-73752500D02*
X155645276Y-73752500D01*
X156154724Y-74797500D02*
X155645276Y-74797500D01*
%TO.C,R7*%
X171029724Y-64852500D02*
X170520276Y-64852500D01*
X171029724Y-65897500D02*
X170520276Y-65897500D01*
%TO.C,C7*%
X178240000Y-70028733D02*
X178240000Y-70321267D01*
X179260000Y-70028733D02*
X179260000Y-70321267D01*
D13*
%TO.C,U2*%
X176796100Y-62929100D02*
X176796100Y-67170900D01*
X182053900Y-67170900D02*
X182053900Y-62929100D01*
D12*
%TO.C,C4*%
X164465000Y-76853733D02*
X164465000Y-77146267D01*
X165485000Y-76853733D02*
X165485000Y-77146267D01*
%TO.C,C5*%
X169103733Y-66390000D02*
X169396267Y-66390000D01*
X169103733Y-67410000D02*
X169396267Y-67410000D01*
%TO.C,R6*%
X172879724Y-66402500D02*
X172370276Y-66402500D01*
X172879724Y-67447500D02*
X172370276Y-67447500D01*
%TD*%
M02*
